<ttFont>
    <TTGlyph name=".notdef" xMin="41" yMin="0" xMax="459" yMax="1212">
      <contour>
        <pt x="41" y="1212" on="1"/>
        <pt x="459" y="1212" on="1"/>
        <pt x="459" y="0" on="1"/>
        <pt x="41" y="0" on="1"/>
      </contour>
      <contour>
        <pt x="442" y="16" on="1"/>
        <pt x="442" y="1196" on="1"/>
        <pt x="57" y="1196" on="1"/>
        <pt x="57" y="16" on="1"/>
      </contour>
    </TTGlyph>
    <TTGlyph name="A" xMin="51" yMin="-41" xMax="1704" yMax="1679">
      <contour>
        <pt x="1704" y="1679" on="1"/>
        <pt x="1704" y="1618" on="1"/>
        <pt x="1688" y="1618" on="0"/>
        <pt x="1645" y="1612" on="0"/>
        <pt x="1595" y="1595" on="0"/>
        <pt x="1550" y="1567" on="0"/>
        <pt x="1532" y="1546" on="1"/>
        <pt x="1487" y="1493" on="0"/>
        <pt x="1456" y="1331" on="0"/>
        <pt x="1456" y="1182" on="1"/>
        <pt x="1456" y="1120" on="0"/>
        <pt x="1460" y="1008" on="0"/>
        <pt x="1464" y="887" on="0"/>
        <pt x="1468" y="756" on="0"/>
        <pt x="1468" y="676" on="1"/>
        <pt x="1468" y="627" on="0"/>
        <pt x="1464" y="520" on="0"/>
        <pt x="1450" y="416" on="0"/>
        <pt x="1425" y="319" on="0"/>
        <pt x="1407" y="283" on="1"/>
        <pt x="1376" y="221" on="0"/>
        <pt x="1266" y="104" on="0"/>
        <pt x="1182" y="82" on="1"/>
        <pt x="1182" y="61" on="1"/>
        <pt x="1460" y="61" on="1"/>
        <pt x="1516" y="61" on="0"/>
        <pt x="1579" y="104" on="0"/>
        <pt x="1614" y="172" on="0"/>
        <pt x="1624" y="250" on="0"/>
        <pt x="1624" y="287" on="1"/>
        <pt x="1624" y="352" on="1"/>
        <pt x="1690" y="352" on="1"/>
        <pt x="1690" y="287" on="1"/>
        <pt x="1690" y="225" on="0"/>
        <pt x="1669" y="121" on="0"/>
        <pt x="1616" y="43" on="0"/>
        <pt x="1524" y="0" on="0"/>
        <pt x="1452" y="0" on="1"/>
        <pt x="963" y="0" on="1"/>
        <pt x="963" y="61" on="1"/>
        <pt x="1036" y="61" on="0"/>
        <pt x="1171" y="104" on="0"/>
        <pt x="1212" y="145" on="1"/>
        <pt x="1255" y="188" on="0"/>
        <pt x="1303" y="291" on="0"/>
        <pt x="1325" y="408" on="0"/>
        <pt x="1329" y="535" on="0"/>
        <pt x="1329" y="598" on="1"/>
        <pt x="1329" y="705" on="0"/>
        <pt x="1323" y="819" on="1"/>
        <pt x="1116" y="819" on="1"/>
        <pt x="1104" y="750" on="0"/>
        <pt x="1077" y="616" on="0"/>
        <pt x="1061" y="555" on="1"/>
        <pt x="1026" y="420" on="0"/>
        <pt x="932" y="201" on="0"/>
        <pt x="793" y="45" on="0"/>
        <pt x="598" y="-41" on="0"/>
        <pt x="467" y="-41" on="1"/>
        <pt x="373" y="-41" on="0"/>
        <pt x="219" y="23" on="0"/>
        <pt x="111" y="135" on="0"/>
        <pt x="51" y="293" on="0"/>
        <pt x="51" y="389" on="1"/>
        <pt x="51" y="494" on="0"/>
        <pt x="121" y="641" on="0"/>
        <pt x="227" y="733" on="0"/>
        <pt x="352" y="774" on="0"/>
        <pt x="410" y="774" on="1"/>
        <pt x="481" y="774" on="0"/>
        <pt x="594" y="731" on="0"/>
        <pt x="670" y="653" on="0"/>
        <pt x="711" y="551" on="0"/>
        <pt x="711" y="494" on="1"/>
        <pt x="711" y="453" on="0"/>
        <pt x="686" y="365" on="0"/>
        <pt x="633" y="293" on="0"/>
        <pt x="549" y="246" on="0"/>
        <pt x="492" y="246" on="1"/>
        <pt x="375" y="246" on="0"/>
        <pt x="283" y="395" on="0"/>
        <pt x="283" y="506" on="1"/>
        <pt x="348" y="506" on="1"/>
        <pt x="348" y="467" on="0"/>
        <pt x="360" y="395" on="0"/>
        <pt x="393" y="340" on="0"/>
        <pt x="449" y="307" on="0"/>
        <pt x="492" y="307" on="1"/>
        <pt x="551" y="307" on="0"/>
        <pt x="645" y="395" on="0"/>
        <pt x="645" y="494" on="1"/>
        <pt x="645" y="596" on="0"/>
        <pt x="512" y="713" on="0"/>
        <pt x="410" y="713" on="1"/>
        <pt x="354" y="713" on="0"/>
        <pt x="250" y="678" on="0"/>
        <pt x="168" y="600" on="0"/>
        <pt x="117" y="477" on="0"/>
        <pt x="117" y="389" on="1"/>
        <pt x="117" y="285" on="0"/>
        <pt x="188" y="143" on="0"/>
        <pt x="297" y="57" on="0"/>
        <pt x="420" y="20" on="0"/>
        <pt x="471" y="20" on="1"/>
        <pt x="588" y="20" on="0"/>
        <pt x="760" y="100" on="0"/>
        <pt x="883" y="244" on="0"/>
        <pt x="965" y="442" on="0"/>
        <pt x="995" y="561" on="1"/>
        <pt x="1026" y="684" on="0"/>
        <pt x="1075" y="958" on="0"/>
        <pt x="1124" y="1214" on="0"/>
        <pt x="1184" y="1432" on="0"/>
        <pt x="1225" y="1499" on="1"/>
        <pt x="1237" y="1520" on="0"/>
        <pt x="1288" y="1577" on="0"/>
        <pt x="1329" y="1597" on="1"/>
        <pt x="1329" y="1618" on="1"/>
        <pt x="1225" y="1618" on="0"/>
        <pt x="997" y="1552" on="0"/>
        <pt x="911" y="1481" on="1"/>
        <pt x="852" y="1432" on="0"/>
        <pt x="776" y="1294" on="0"/>
        <pt x="776" y="1204" on="1"/>
        <pt x="776" y="1135" on="0"/>
        <pt x="838" y="1061" on="0"/>
        <pt x="887" y="1061" on="1"/>
        <pt x="928" y="1061" on="0"/>
        <pt x="977" y="1110" on="0"/>
        <pt x="977" y="1149" on="1"/>
        <pt x="977" y="1194" on="0"/>
        <pt x="920" y="1227" on="0"/>
        <pt x="891" y="1227" on="1"/>
        <pt x="891" y="1288" on="1"/>
        <pt x="956" y="1288" on="0"/>
        <pt x="1042" y="1217" on="0"/>
        <pt x="1042" y="1149" on="1"/>
        <pt x="1042" y="1083" on="0"/>
        <pt x="954" y="999" on="0"/>
        <pt x="889" y="999" on="1"/>
        <pt x="803" y="999" on="0"/>
        <pt x="711" y="1110" on="0"/>
        <pt x="711" y="1202" on="1"/>
        <pt x="711" y="1305" on="0"/>
        <pt x="807" y="1466" on="0"/>
        <pt x="881" y="1526" on="1"/>
        <pt x="1001" y="1622" on="0"/>
        <pt x="1305" y="1679" on="0"/>
        <pt x="1495" y="1679" on="1"/>
      </contour>
      <contour>
        <pt x="1292" y="1491" on="1"/>
        <pt x="1262" y="1446" on="0"/>
        <pt x="1214" y="1313" on="0"/>
        <pt x="1176" y="1153" on="0"/>
        <pt x="1143" y="973" on="0"/>
        <pt x="1126" y="881" on="1"/>
        <pt x="1321" y="881" on="1"/>
        <pt x="1319" y="922" on="0"/>
        <pt x="1319" y="1008" on="0"/>
        <pt x="1319" y="1055" on="1"/>
        <pt x="1319" y="1143" on="0"/>
        <pt x="1325" y="1278" on="0"/>
        <pt x="1343" y="1384" on="0"/>
        <pt x="1376" y="1470" on="0"/>
        <pt x="1401" y="1507" on="1"/>
        <pt x="1432" y="1552" on="0"/>
        <pt x="1507" y="1602" on="0"/>
        <pt x="1544" y="1618" on="1"/>
        <pt x="1458" y="1614" on="0"/>
        <pt x="1335" y="1554" on="0"/>
      </contour>
    </TTGlyph>
    <TTGlyph name="AE" xMin="51" yMin="-41" xMax="2464" yMax="1720">
      <contour>
        <pt x="1704" y="1679" on="1"/>
        <pt x="1704" y="1618" on="1"/>
        <pt x="1688" y="1618" on="0"/>
        <pt x="1645" y="1612" on="0"/>
        <pt x="1595" y="1595" on="0"/>
        <pt x="1550" y="1567" on="0"/>
        <pt x="1532" y="1546" on="1"/>
        <pt x="1487" y="1493" on="0"/>
        <pt x="1456" y="1331" on="0"/>
        <pt x="1456" y="1182" on="1"/>
        <pt x="1456" y="1120" on="0"/>
        <pt x="1460" y="1008" on="0"/>
        <pt x="1464" y="887" on="0"/>
        <pt x="1468" y="756" on="0"/>
        <pt x="1468" y="676" on="1"/>
        <pt x="1468" y="627" on="0"/>
        <pt x="1464" y="520" on="0"/>
        <pt x="1450" y="416" on="0"/>
        <pt x="1425" y="319" on="0"/>
        <pt x="1407" y="283" on="1"/>
        <pt x="1376" y="221" on="0"/>
        <pt x="1266" y="104" on="0"/>
        <pt x="1182" y="82" on="1"/>
        <pt x="1182" y="61" on="1"/>
        <pt x="1460" y="61" on="1"/>
        <pt x="1526" y="61" on="0"/>
        <pt x="1591" y="121" on="0"/>
        <pt x="1608" y="164" on="1"/>
        <pt x="1573" y="217" on="0"/>
        <pt x="1536" y="348" on="0"/>
        <pt x="1536" y="434" on="1"/>
        <pt x="1536" y="602" on="0"/>
        <pt x="1737" y="856" on="0"/>
        <pt x="1935" y="895" on="1"/>
        <pt x="1935" y="915" on="1"/>
        <pt x="1864" y="940" on="0"/>
        <pt x="1765" y="1026" on="0"/>
        <pt x="1704" y="1130" on="0"/>
        <pt x="1677" y="1243" on="0"/>
        <pt x="1677" y="1292" on="1"/>
        <pt x="1677" y="1415" on="0"/>
        <pt x="1782" y="1614" on="0"/>
        <pt x="1882" y="1671" on="1"/>
        <pt x="1931" y="1700" on="0"/>
        <pt x="2034" y="1720" on="0"/>
        <pt x="2093" y="1720" on="1"/>
        <pt x="2150" y="1720" on="0"/>
        <pt x="2241" y="1683" on="0"/>
        <pt x="2304" y="1622" on="0"/>
        <pt x="2339" y="1542" on="0"/>
        <pt x="2339" y="1499" on="1"/>
        <pt x="2339" y="1407" on="0"/>
        <pt x="2247" y="1296" on="0"/>
        <pt x="2163" y="1296" on="1"/>
        <pt x="2097" y="1296" on="0"/>
        <pt x="2013" y="1376" on="0"/>
        <pt x="2013" y="1444" on="1"/>
        <pt x="2013" y="1516" on="0"/>
        <pt x="2099" y="1585" on="0"/>
        <pt x="2165" y="1585" on="1"/>
        <pt x="2165" y="1524" on="1"/>
        <pt x="2136" y="1524" on="0"/>
        <pt x="2079" y="1491" on="0"/>
        <pt x="2079" y="1446" on="1"/>
        <pt x="2079" y="1405" on="0"/>
        <pt x="2126" y="1358" on="0"/>
        <pt x="2167" y="1358" on="1"/>
        <pt x="2214" y="1358" on="0"/>
        <pt x="2273" y="1423" on="0"/>
        <pt x="2273" y="1495" on="1"/>
        <pt x="2273" y="1561" on="0"/>
        <pt x="2181" y="1659" on="0"/>
        <pt x="2089" y="1659" on="1"/>
        <pt x="2015" y="1659" on="0"/>
        <pt x="1911" y="1597" on="0"/>
        <pt x="1845" y="1495" on="0"/>
        <pt x="1817" y="1360" on="0"/>
        <pt x="1817" y="1286" on="1"/>
        <pt x="1817" y="1204" on="0"/>
        <pt x="1858" y="1073" on="0"/>
        <pt x="1925" y="981" on="0"/>
        <pt x="2015" y="928" on="0"/>
        <pt x="2066" y="922" on="1"/>
        <pt x="2066" y="860" on="1"/>
        <pt x="2017" y="860" on="0"/>
        <pt x="1886" y="823" on="0"/>
        <pt x="1769" y="731" on="0"/>
        <pt x="1690" y="578" on="0"/>
        <pt x="1690" y="459" on="1"/>
        <pt x="1690" y="250" on="0"/>
        <pt x="1882" y="20" on="0"/>
        <pt x="2044" y="20" on="1"/>
        <pt x="2101" y="20" on="0"/>
        <pt x="2228" y="57" on="0"/>
        <pt x="2331" y="143" on="0"/>
        <pt x="2398" y="285" on="0"/>
        <pt x="2398" y="389" on="1"/>
        <pt x="2398" y="477" on="0"/>
        <pt x="2351" y="600" on="0"/>
        <pt x="2271" y="678" on="0"/>
        <pt x="2169" y="713" on="0"/>
        <pt x="2114" y="713" on="1"/>
        <pt x="2007" y="713" on="0"/>
        <pt x="1870" y="594" on="0"/>
        <pt x="1870" y="492" on="1"/>
        <pt x="1870" y="393" on="0"/>
        <pt x="1964" y="307" on="0"/>
        <pt x="2023" y="307" on="1"/>
        <pt x="2066" y="307" on="0"/>
        <pt x="2122" y="340" on="0"/>
        <pt x="2154" y="395" on="0"/>
        <pt x="2167" y="467" on="0"/>
        <pt x="2167" y="506" on="1"/>
        <pt x="2232" y="506" on="1"/>
        <pt x="2232" y="395" on="0"/>
        <pt x="2140" y="246" on="0"/>
        <pt x="2023" y="246" on="1"/>
        <pt x="1964" y="246" on="0"/>
        <pt x="1882" y="287" on="0"/>
        <pt x="1829" y="354" on="0"/>
        <pt x="1804" y="444" on="0"/>
        <pt x="1804" y="492" on="1"/>
        <pt x="1804" y="549" on="0"/>
        <pt x="1847" y="651" on="0"/>
        <pt x="1927" y="729" on="0"/>
        <pt x="2042" y="774" on="0"/>
        <pt x="2114" y="774" on="1"/>
        <pt x="2181" y="774" on="0"/>
        <pt x="2306" y="731" on="0"/>
        <pt x="2404" y="639" on="0"/>
        <pt x="2464" y="492" on="0"/>
        <pt x="2464" y="389" on="1"/>
        <pt x="2464" y="293" on="0"/>
        <pt x="2404" y="135" on="0"/>
        <pt x="2294" y="23" on="0"/>
        <pt x="2140" y="-41" on="0"/>
        <pt x="2046" y="-41" on="1"/>
        <pt x="1935" y="-41" on="0"/>
        <pt x="1729" y="27" on="0"/>
        <pt x="1655" y="104" on="1"/>
        <pt x="1630" y="55" on="0"/>
        <pt x="1534" y="0" on="0"/>
        <pt x="1452" y="0" on="1"/>
        <pt x="963" y="0" on="1"/>
        <pt x="963" y="61" on="1"/>
        <pt x="1036" y="61" on="0"/>
        <pt x="1171" y="104" on="0"/>
        <pt x="1212" y="145" on="1"/>
        <pt x="1255" y="188" on="0"/>
        <pt x="1303" y="291" on="0"/>
        <pt x="1325" y="408" on="0"/>
        <pt x="1329" y="535" on="0"/>
        <pt x="1329" y="598" on="1"/>
        <pt x="1329" y="705" on="0"/>
        <pt x="1323" y="819" on="1"/>
        <pt x="1116" y="819" on="1"/>
        <pt x="1104" y="750" on="0"/>
        <pt x="1077" y="616" on="0"/>
        <pt x="1061" y="555" on="1"/>
        <pt x="1026" y="420" on="0"/>
        <pt x="932" y="201" on="0"/>
        <pt x="793" y="45" on="0"/>
        <pt x="598" y="-41" on="0"/>
        <pt x="467" y="-41" on="1"/>
        <pt x="373" y="-41" on="0"/>
        <pt x="219" y="23" on="0"/>
        <pt x="111" y="135" on="0"/>
        <pt x="51" y="293" on="0"/>
        <pt x="51" y="389" on="1"/>
        <pt x="51" y="494" on="0"/>
        <pt x="121" y="641" on="0"/>
        <pt x="227" y="733" on="0"/>
        <pt x="352" y="774" on="0"/>
        <pt x="410" y="774" on="1"/>
        <pt x="481" y="774" on="0"/>
        <pt x="594" y="731" on="0"/>
        <pt x="670" y="653" on="0"/>
        <pt x="711" y="551" on="0"/>
        <pt x="711" y="494" on="1"/>
        <pt x="711" y="453" on="0"/>
        <pt x="686" y="365" on="0"/>
        <pt x="633" y="293" on="0"/>
        <pt x="549" y="246" on="0"/>
        <pt x="492" y="246" on="1"/>
        <pt x="375" y="246" on="0"/>
        <pt x="283" y="395" on="0"/>
        <pt x="283" y="506" on="1"/>
        <pt x="348" y="506" on="1"/>
        <pt x="348" y="467" on="0"/>
        <pt x="360" y="395" on="0"/>
        <pt x="393" y="340" on="0"/>
        <pt x="449" y="307" on="0"/>
        <pt x="492" y="307" on="1"/>
        <pt x="551" y="307" on="0"/>
        <pt x="645" y="395" on="0"/>
        <pt x="645" y="494" on="1"/>
        <pt x="645" y="596" on="0"/>
        <pt x="512" y="713" on="0"/>
        <pt x="410" y="713" on="1"/>
        <pt x="354" y="713" on="0"/>
        <pt x="250" y="678" on="0"/>
        <pt x="168" y="600" on="0"/>
        <pt x="117" y="477" on="0"/>
        <pt x="117" y="389" on="1"/>
        <pt x="117" y="285" on="0"/>
        <pt x="188" y="143" on="0"/>
        <pt x="297" y="57" on="0"/>
        <pt x="420" y="20" on="0"/>
        <pt x="471" y="20" on="1"/>
        <pt x="588" y="20" on="0"/>
        <pt x="760" y="100" on="0"/>
        <pt x="883" y="244" on="0"/>
        <pt x="965" y="442" on="0"/>
        <pt x="995" y="561" on="1"/>
        <pt x="1026" y="684" on="0"/>
        <pt x="1075" y="958" on="0"/>
        <pt x="1124" y="1214" on="0"/>
        <pt x="1184" y="1432" on="0"/>
        <pt x="1225" y="1499" on="1"/>
        <pt x="1237" y="1520" on="0"/>
        <pt x="1288" y="1577" on="0"/>
        <pt x="1329" y="1597" on="1"/>
        <pt x="1329" y="1618" on="1"/>
        <pt x="1225" y="1618" on="0"/>
        <pt x="997" y="1552" on="0"/>
        <pt x="911" y="1481" on="1"/>
        <pt x="852" y="1432" on="0"/>
        <pt x="776" y="1294" on="0"/>
        <pt x="776" y="1204" on="1"/>
        <pt x="776" y="1135" on="0"/>
        <pt x="838" y="1061" on="0"/>
        <pt x="887" y="1061" on="1"/>
        <pt x="928" y="1061" on="0"/>
        <pt x="977" y="1110" on="0"/>
        <pt x="977" y="1149" on="1"/>
        <pt x="977" y="1194" on="0"/>
        <pt x="920" y="1227" on="0"/>
        <pt x="891" y="1227" on="1"/>
        <pt x="891" y="1288" on="1"/>
        <pt x="956" y="1288" on="0"/>
        <pt x="1042" y="1217" on="0"/>
        <pt x="1042" y="1149" on="1"/>
        <pt x="1042" y="1083" on="0"/>
        <pt x="954" y="999" on="0"/>
        <pt x="889" y="999" on="1"/>
        <pt x="803" y="999" on="0"/>
        <pt x="711" y="1110" on="0"/>
        <pt x="711" y="1202" on="1"/>
        <pt x="711" y="1305" on="0"/>
        <pt x="807" y="1466" on="0"/>
        <pt x="881" y="1526" on="1"/>
        <pt x="1001" y="1622" on="0"/>
        <pt x="1305" y="1679" on="0"/>
        <pt x="1495" y="1679" on="1"/>
      </contour>
      <contour>
        <pt x="1292" y="1491" on="1"/>
        <pt x="1262" y="1446" on="0"/>
        <pt x="1214" y="1313" on="0"/>
        <pt x="1176" y="1153" on="0"/>
        <pt x="1143" y="973" on="0"/>
        <pt x="1126" y="881" on="1"/>
        <pt x="1321" y="881" on="1"/>
        <pt x="1319" y="922" on="0"/>
        <pt x="1319" y="1008" on="0"/>
        <pt x="1319" y="1055" on="1"/>
        <pt x="1319" y="1143" on="0"/>
        <pt x="1325" y="1278" on="0"/>
        <pt x="1346" y="1384" on="0"/>
        <pt x="1378" y="1470" on="0"/>
        <pt x="1407" y="1507" on="1"/>
        <pt x="1440" y="1550" on="0"/>
        <pt x="1507" y="1597" on="0"/>
        <pt x="1544" y="1618" on="1"/>
        <pt x="1458" y="1614" on="0"/>
        <pt x="1335" y="1554" on="0"/>
      </contour>
    </TTGlyph>
    <TTGlyph name="Aacute" xMin="51" yMin="-41" xMax="1790" yMax="2058">
      <component glyphName="A" x="0" y="0" flags="0x204"/>
      <component glyphName="acute" x="1395" y="860" flags="0x4"/>
    </TTGlyph>
    <TTGlyph name="Acircumflex" xMin="51" yMin="-41" xMax="1722" yMax="2044">
      <component glyphName="A" x="0" y="0" flags="0x204"/>
      <component glyphName="circumflex" x="1251" y="860" flags="0x4"/>
    </TTGlyph>
    <TTGlyph name="Adieresis" xMin="51" yMin="-41" xMax="1704" yMax="1999">
      <component glyphName="A" x="0" y="0" flags="0x204"/>
      <component glyphName="dieresis" x="1251" y="860" flags="0x4"/>
    </TTGlyph>
    <TTGlyph name="Agrave" xMin="51" yMin="-41" xMax="1704" yMax="2062">
      <component glyphName="A" x="0" y="0" flags="0x204"/>
      <component glyphName="grave" x="1128" y="860" flags="0x4"/>
    </TTGlyph>
    <TTGlyph name="Aring" xMin="51" yMin="-41" xMax="1704" yMax="2060">
      <component glyphName="A" x="0" y="0" flags="0x204"/>
      <component glyphName="ring" x="1264" y="860" flags="0x4"/>
    </TTGlyph>
    <TTGlyph name="Atilde" xMin="51" yMin="-41" xMax="1731" yMax="1997">
      <component glyphName="A" x="0" y="0" flags="0x204"/>
      <component glyphName="tilde" x="1262" y="860" flags="0x4"/>
    </TTGlyph>
    <TTGlyph name="B" xMin="51" yMin="-41" xMax="1655" yMax="1720">
      <contour>
        <pt x="965" y="1182" on="1"/>
        <pt x="965" y="1059" on="0"/>
        <pt x="977" y="795" on="0"/>
        <pt x="977" y="635" on="1"/>
        <pt x="977" y="311" on="0"/>
        <pt x="737" y="-41" on="0"/>
        <pt x="467" y="-41" on="1"/>
        <pt x="373" y="-41" on="0"/>
        <pt x="219" y="23" on="0"/>
        <pt x="111" y="135" on="0"/>
        <pt x="51" y="293" on="0"/>
        <pt x="51" y="389" on="1"/>
        <pt x="51" y="494" on="0"/>
        <pt x="121" y="641" on="0"/>
        <pt x="227" y="733" on="0"/>
        <pt x="352" y="774" on="0"/>
        <pt x="410" y="774" on="1"/>
        <pt x="481" y="774" on="0"/>
        <pt x="594" y="731" on="0"/>
        <pt x="670" y="653" on="0"/>
        <pt x="711" y="551" on="0"/>
        <pt x="711" y="494" on="1"/>
        <pt x="711" y="453" on="0"/>
        <pt x="686" y="365" on="0"/>
        <pt x="633" y="293" on="0"/>
        <pt x="549" y="246" on="0"/>
        <pt x="492" y="246" on="1"/>
        <pt x="375" y="246" on="0"/>
        <pt x="283" y="395" on="0"/>
        <pt x="283" y="506" on="1"/>
        <pt x="348" y="506" on="1"/>
        <pt x="348" y="467" on="0"/>
        <pt x="360" y="395" on="0"/>
        <pt x="393" y="340" on="0"/>
        <pt x="449" y="307" on="0"/>
        <pt x="492" y="307" on="1"/>
        <pt x="551" y="307" on="0"/>
        <pt x="645" y="395" on="0"/>
        <pt x="645" y="494" on="1"/>
        <pt x="645" y="596" on="0"/>
        <pt x="512" y="713" on="0"/>
        <pt x="410" y="713" on="1"/>
        <pt x="354" y="713" on="0"/>
        <pt x="250" y="678" on="0"/>
        <pt x="168" y="600" on="0"/>
        <pt x="117" y="477" on="0"/>
        <pt x="117" y="389" on="1"/>
        <pt x="117" y="285" on="0"/>
        <pt x="188" y="143" on="0"/>
        <pt x="297" y="57" on="0"/>
        <pt x="420" y="20" on="0"/>
        <pt x="471" y="20" on="1"/>
        <pt x="592" y="20" on="0"/>
        <pt x="737" y="113" on="0"/>
        <pt x="813" y="264" on="0"/>
        <pt x="838" y="457" on="0"/>
        <pt x="838" y="557" on="1"/>
        <pt x="838" y="666" on="0"/>
        <pt x="827" y="926" on="0"/>
        <pt x="827" y="1055" on="1"/>
        <pt x="827" y="1237" on="0"/>
        <pt x="860" y="1460" on="0"/>
        <pt x="901" y="1536" on="1"/>
        <pt x="827" y="1530" on="0"/>
        <pt x="684" y="1483" on="0"/>
        <pt x="569" y="1401" on="0"/>
        <pt x="500" y="1280" on="0"/>
        <pt x="500" y="1204" on="1"/>
        <pt x="500" y="1135" on="0"/>
        <pt x="561" y="1061" on="0"/>
        <pt x="610" y="1061" on="1"/>
        <pt x="651" y="1061" on="0"/>
        <pt x="700" y="1110" on="0"/>
        <pt x="700" y="1149" on="1"/>
        <pt x="700" y="1194" on="0"/>
        <pt x="643" y="1227" on="0"/>
        <pt x="614" y="1227" on="1"/>
        <pt x="614" y="1288" on="1"/>
        <pt x="680" y="1288" on="0"/>
        <pt x="766" y="1217" on="0"/>
        <pt x="766" y="1149" on="1"/>
        <pt x="766" y="1083" on="0"/>
        <pt x="676" y="999" on="0"/>
        <pt x="610" y="999" on="1"/>
        <pt x="524" y="999" on="0"/>
        <pt x="434" y="1110" on="0"/>
        <pt x="434" y="1202" on="1"/>
        <pt x="434" y="1298" on="0"/>
        <pt x="524" y="1444" on="0"/>
        <pt x="670" y="1544" on="0"/>
        <pt x="852" y="1597" on="0"/>
        <pt x="944" y="1599" on="1"/>
        <pt x="993" y="1657" on="0"/>
        <pt x="1135" y="1720" on="0"/>
        <pt x="1219" y="1720" on="1"/>
        <pt x="1219" y="1659" on="1"/>
        <pt x="1190" y="1659" on="0"/>
        <pt x="1090" y="1632" on="0"/>
        <pt x="1053" y="1595" on="1"/>
        <pt x="1169" y="1585" on="0"/>
        <pt x="1333" y="1516" on="0"/>
        <pt x="1436" y="1417" on="0"/>
        <pt x="1483" y="1292" on="0"/>
        <pt x="1483" y="1227" on="1"/>
        <pt x="1483" y="1114" on="0"/>
        <pt x="1358" y="930" on="0"/>
        <pt x="1227" y="903" on="1"/>
        <pt x="1227" y="883" on="1"/>
        <pt x="1346" y="877" on="0"/>
        <pt x="1509" y="795" on="0"/>
        <pt x="1612" y="670" on="0"/>
        <pt x="1655" y="514" on="0"/>
        <pt x="1655" y="434" on="1"/>
        <pt x="1655" y="344" on="0"/>
        <pt x="1610" y="172" on="0"/>
        <pt x="1518" y="39" on="0"/>
        <pt x="1370" y="-41" on="0"/>
        <pt x="1270" y="-41" on="1"/>
        <pt x="1192" y="-41" on="0"/>
        <pt x="1071" y="18" on="0"/>
        <pt x="1040" y="66" on="1"/>
        <pt x="1012" y="109" on="0"/>
        <pt x="985" y="223" on="0"/>
        <pt x="985" y="311" on="1"/>
        <pt x="1051" y="311" on="1"/>
        <pt x="1051" y="186" on="0"/>
        <pt x="1096" y="109" on="1"/>
        <pt x="1118" y="68" on="0"/>
        <pt x="1206" y="20" on="0"/>
        <pt x="1257" y="20" on="1"/>
        <pt x="1346" y="20" on="0"/>
        <pt x="1444" y="113" on="0"/>
        <pt x="1491" y="246" on="0"/>
        <pt x="1501" y="393" on="0"/>
        <pt x="1501" y="449" on="1"/>
        <pt x="1501" y="537" on="0"/>
        <pt x="1460" y="684" on="0"/>
        <pt x="1368" y="791" on="0"/>
        <pt x="1225" y="848" on="0"/>
        <pt x="1124" y="848" on="1"/>
        <pt x="1087" y="848" on="1"/>
        <pt x="1087" y="909" on="1"/>
        <pt x="1116" y="909" on="1"/>
        <pt x="1176" y="909" on="0"/>
        <pt x="1257" y="969" on="0"/>
        <pt x="1307" y="1061" on="0"/>
        <pt x="1329" y="1169" on="0"/>
        <pt x="1329" y="1221" on="1"/>
        <pt x="1329" y="1303" on="0"/>
        <pt x="1280" y="1415" on="0"/>
        <pt x="1194" y="1489" on="0"/>
        <pt x="1079" y="1528" on="0"/>
        <pt x="1012" y="1534" on="1"/>
        <pt x="985" y="1479" on="0"/>
        <pt x="965" y="1311" on="0"/>
      </contour>
    </TTGlyph>
    <TTGlyph name="C" xMin="51" yMin="-41" xMax="1219" yMax="1720">
      <contour>
        <pt x="801" y="-41" on="1"/>
        <pt x="649" y="-41" on="0"/>
        <pt x="449" y="84" on="0"/>
        <pt x="328" y="289" on="0"/>
        <pt x="279" y="555" on="0"/>
        <pt x="279" y="696" on="1"/>
        <pt x="279" y="874" on="0"/>
        <pt x="313" y="1038" on="1"/>
        <pt x="203" y="1079" on="0"/>
        <pt x="51" y="1257" on="0"/>
        <pt x="51" y="1399" on="1"/>
        <pt x="51" y="1491" on="0"/>
        <pt x="147" y="1604" on="0"/>
        <pt x="231" y="1604" on="1"/>
        <pt x="297" y="1604" on="0"/>
        <pt x="377" y="1524" on="0"/>
        <pt x="377" y="1456" on="1"/>
        <pt x="377" y="1384" on="0"/>
        <pt x="291" y="1315" on="0"/>
        <pt x="225" y="1315" on="1"/>
        <pt x="225" y="1376" on="1"/>
        <pt x="254" y="1376" on="0"/>
        <pt x="311" y="1409" on="0"/>
        <pt x="311" y="1454" on="1"/>
        <pt x="311" y="1495" on="0"/>
        <pt x="268" y="1542" on="0"/>
        <pt x="227" y="1542" on="1"/>
        <pt x="180" y="1542" on="0"/>
        <pt x="117" y="1475" on="0"/>
        <pt x="117" y="1403" on="1"/>
        <pt x="117" y="1290" on="0"/>
        <pt x="238" y="1143" on="0"/>
        <pt x="330" y="1104" on="1"/>
        <pt x="362" y="1235" on="0"/>
        <pt x="465" y="1462" on="0"/>
        <pt x="600" y="1626" on="0"/>
        <pt x="772" y="1720" on="0"/>
        <pt x="874" y="1720" on="1"/>
        <pt x="993" y="1720" on="0"/>
        <pt x="1110" y="1585" on="0"/>
        <pt x="1110" y="1489" on="1"/>
        <pt x="1110" y="1382" on="0"/>
        <pt x="1024" y="1202" on="0"/>
        <pt x="872" y="1073" on="0"/>
        <pt x="668" y="999" on="0"/>
        <pt x="549" y="999" on="1"/>
        <pt x="498" y="999" on="0"/>
        <pt x="453" y="1006" on="1"/>
        <pt x="442" y="932" on="0"/>
        <pt x="432" y="772" on="0"/>
        <pt x="432" y="713" on="1"/>
        <pt x="432" y="604" on="0"/>
        <pt x="446" y="434" on="0"/>
        <pt x="473" y="303" on="0"/>
        <pt x="514" y="201" on="0"/>
        <pt x="541" y="162" on="1"/>
        <pt x="588" y="94" on="0"/>
        <pt x="727" y="20" on="0"/>
        <pt x="799" y="20" on="1"/>
        <pt x="856" y="20" on="0"/>
        <pt x="983" y="57" on="0"/>
        <pt x="1085" y="143" on="0"/>
        <pt x="1153" y="285" on="0"/>
        <pt x="1153" y="389" on="1"/>
        <pt x="1153" y="477" on="0"/>
        <pt x="1106" y="600" on="0"/>
        <pt x="1026" y="678" on="0"/>
        <pt x="924" y="713" on="0"/>
        <pt x="868" y="713" on="1"/>
        <pt x="762" y="713" on="0"/>
        <pt x="625" y="594" on="0"/>
        <pt x="625" y="492" on="1"/>
        <pt x="625" y="393" on="0"/>
        <pt x="719" y="307" on="0"/>
        <pt x="778" y="307" on="1"/>
        <pt x="821" y="307" on="0"/>
        <pt x="877" y="340" on="0"/>
        <pt x="909" y="395" on="0"/>
        <pt x="922" y="467" on="0"/>
        <pt x="922" y="506" on="1"/>
        <pt x="987" y="506" on="1"/>
        <pt x="987" y="395" on="0"/>
        <pt x="895" y="246" on="0"/>
        <pt x="778" y="246" on="1"/>
        <pt x="719" y="246" on="0"/>
        <pt x="637" y="287" on="0"/>
        <pt x="584" y="354" on="0"/>
        <pt x="559" y="444" on="0"/>
        <pt x="559" y="492" on="1"/>
        <pt x="559" y="549" on="0"/>
        <pt x="602" y="651" on="0"/>
        <pt x="682" y="729" on="0"/>
        <pt x="797" y="774" on="0"/>
        <pt x="868" y="774" on="1"/>
        <pt x="936" y="774" on="0"/>
        <pt x="1061" y="731" on="0"/>
        <pt x="1159" y="639" on="0"/>
        <pt x="1219" y="492" on="0"/>
        <pt x="1219" y="389" on="1"/>
        <pt x="1219" y="293" on="0"/>
        <pt x="1159" y="135" on="0"/>
        <pt x="1049" y="23" on="0"/>
        <pt x="895" y="-41" on="0"/>
      </contour>
      <contour>
        <pt x="547" y="1061" on="1"/>
        <pt x="655" y="1061" on="0"/>
        <pt x="838" y="1124" on="0"/>
        <pt x="971" y="1237" on="0"/>
        <pt x="1044" y="1393" on="0"/>
        <pt x="1044" y="1483" on="1"/>
        <pt x="1044" y="1565" on="0"/>
        <pt x="956" y="1659" on="0"/>
        <pt x="872" y="1659" on="1"/>
        <pt x="784" y="1659" on="0"/>
        <pt x="649" y="1556" on="0"/>
        <pt x="549" y="1389" on="0"/>
        <pt x="481" y="1178" on="0"/>
        <pt x="463" y="1067" on="1"/>
        <pt x="502" y="1061" on="0"/>
      </contour>
    </TTGlyph>
    <TTGlyph name="Ccedilla" xMin="51" yMin="-524" xMax="1219" yMax="1720">
      <contour>
        <pt x="279" y="696" on="1"/>
        <pt x="279" y="874" on="0"/>
        <pt x="313" y="1038" on="1"/>
        <pt x="203" y="1079" on="0"/>
        <pt x="51" y="1257" on="0"/>
        <pt x="51" y="1399" on="1"/>
        <pt x="51" y="1491" on="0"/>
        <pt x="147" y="1604" on="0"/>
        <pt x="231" y="1604" on="1"/>
        <pt x="297" y="1604" on="0"/>
        <pt x="377" y="1524" on="0"/>
        <pt x="377" y="1456" on="1"/>
        <pt x="377" y="1384" on="0"/>
        <pt x="291" y="1315" on="0"/>
        <pt x="225" y="1315" on="1"/>
        <pt x="225" y="1376" on="1"/>
        <pt x="254" y="1376" on="0"/>
        <pt x="311" y="1409" on="0"/>
        <pt x="311" y="1454" on="1"/>
        <pt x="311" y="1495" on="0"/>
        <pt x="268" y="1542" on="0"/>
        <pt x="227" y="1542" on="1"/>
        <pt x="180" y="1542" on="0"/>
        <pt x="117" y="1475" on="0"/>
        <pt x="117" y="1403" on="1"/>
        <pt x="117" y="1290" on="0"/>
        <pt x="238" y="1143" on="0"/>
        <pt x="330" y="1104" on="1"/>
        <pt x="362" y="1235" on="0"/>
        <pt x="465" y="1462" on="0"/>
        <pt x="600" y="1626" on="0"/>
        <pt x="772" y="1720" on="0"/>
        <pt x="874" y="1720" on="1"/>
        <pt x="993" y="1720" on="0"/>
        <pt x="1110" y="1585" on="0"/>
        <pt x="1110" y="1489" on="1"/>
        <pt x="1110" y="1382" on="0"/>
        <pt x="1024" y="1202" on="0"/>
        <pt x="872" y="1073" on="0"/>
        <pt x="668" y="999" on="0"/>
        <pt x="549" y="999" on="1"/>
        <pt x="498" y="999" on="0"/>
        <pt x="453" y="1006" on="1"/>
        <pt x="442" y="932" on="0"/>
        <pt x="432" y="772" on="0"/>
        <pt x="432" y="713" on="1"/>
        <pt x="432" y="604" on="0"/>
        <pt x="446" y="434" on="0"/>
        <pt x="473" y="303" on="0"/>
        <pt x="514" y="201" on="0"/>
        <pt x="541" y="162" on="1"/>
        <pt x="588" y="94" on="0"/>
        <pt x="727" y="20" on="0"/>
        <pt x="799" y="20" on="1"/>
        <pt x="856" y="20" on="0"/>
        <pt x="983" y="57" on="0"/>
        <pt x="1085" y="143" on="0"/>
        <pt x="1153" y="285" on="0"/>
        <pt x="1153" y="389" on="1"/>
        <pt x="1153" y="477" on="0"/>
        <pt x="1106" y="600" on="0"/>
        <pt x="1026" y="678" on="0"/>
        <pt x="924" y="713" on="0"/>
        <pt x="868" y="713" on="1"/>
        <pt x="762" y="713" on="0"/>
        <pt x="625" y="594" on="0"/>
        <pt x="625" y="492" on="1"/>
        <pt x="625" y="393" on="0"/>
        <pt x="719" y="307" on="0"/>
        <pt x="778" y="307" on="1"/>
        <pt x="821" y="307" on="0"/>
        <pt x="877" y="340" on="0"/>
        <pt x="909" y="395" on="0"/>
        <pt x="922" y="467" on="0"/>
        <pt x="922" y="506" on="1"/>
        <pt x="987" y="506" on="1"/>
        <pt x="987" y="395" on="0"/>
        <pt x="895" y="246" on="0"/>
        <pt x="778" y="246" on="1"/>
        <pt x="719" y="246" on="0"/>
        <pt x="637" y="287" on="0"/>
        <pt x="584" y="354" on="0"/>
        <pt x="559" y="444" on="0"/>
        <pt x="559" y="492" on="1"/>
        <pt x="559" y="549" on="0"/>
        <pt x="602" y="651" on="0"/>
        <pt x="682" y="729" on="0"/>
        <pt x="797" y="774" on="0"/>
        <pt x="868" y="774" on="1"/>
        <pt x="936" y="774" on="0"/>
        <pt x="1061" y="731" on="0"/>
        <pt x="1159" y="639" on="0"/>
        <pt x="1219" y="492" on="0"/>
        <pt x="1219" y="389" on="1"/>
        <pt x="1219" y="297" on="0"/>
        <pt x="1161" y="141" on="0"/>
        <pt x="1055" y="27" on="0"/>
        <pt x="907" y="-39" on="0"/>
        <pt x="817" y="-41" on="1"/>
        <pt x="778" y="-111" on="1"/>
        <pt x="823" y="-111" on="0"/>
        <pt x="901" y="-133" on="0"/>
        <pt x="958" y="-182" on="0"/>
        <pt x="991" y="-262" on="0"/>
        <pt x="991" y="-319" on="1"/>
        <pt x="991" y="-412" on="0"/>
        <pt x="887" y="-524" on="0"/>
        <pt x="801" y="-524" on="1"/>
        <pt x="741" y="-524" on="0"/>
        <pt x="645" y="-453" on="0"/>
        <pt x="645" y="-377" on="1"/>
        <pt x="645" y="-299" on="0"/>
        <pt x="741" y="-233" on="0"/>
        <pt x="813" y="-233" on="1"/>
        <pt x="813" y="-295" on="1"/>
        <pt x="774" y="-295" on="0"/>
        <pt x="711" y="-328" on="0"/>
        <pt x="711" y="-377" on="1"/>
        <pt x="711" y="-412" on="0"/>
        <pt x="760" y="-463" on="0"/>
        <pt x="805" y="-463" on="1"/>
        <pt x="866" y="-463" on="0"/>
        <pt x="926" y="-377" on="0"/>
        <pt x="926" y="-319" on="1"/>
        <pt x="926" y="-258" on="0"/>
        <pt x="858" y="-172" on="0"/>
        <pt x="772" y="-172" on="1"/>
        <pt x="709" y="-172" on="1"/>
        <pt x="709" y="-111" on="1"/>
        <pt x="752" y="-39" on="1"/>
        <pt x="614" y="-29" on="0"/>
        <pt x="432" y="102" on="0"/>
        <pt x="324" y="305" on="0"/>
        <pt x="279" y="561" on="0"/>
      </contour>
      <contour>
        <pt x="547" y="1061" on="1"/>
        <pt x="655" y="1061" on="0"/>
        <pt x="838" y="1124" on="0"/>
        <pt x="971" y="1237" on="0"/>
        <pt x="1044" y="1393" on="0"/>
        <pt x="1044" y="1483" on="1"/>
        <pt x="1044" y="1565" on="0"/>
        <pt x="956" y="1659" on="0"/>
        <pt x="872" y="1659" on="1"/>
        <pt x="784" y="1659" on="0"/>
        <pt x="649" y="1556" on="0"/>
        <pt x="549" y="1389" on="0"/>
        <pt x="481" y="1178" on="0"/>
        <pt x="463" y="1067" on="1"/>
        <pt x="502" y="1061" on="0"/>
      </contour>
    </TTGlyph>
    <TTGlyph name="D" xMin="51" yMin="-41" xMax="1669" yMax="1720">
      <contour>
        <pt x="965" y="1182" on="1"/>
        <pt x="965" y="1059" on="0"/>
        <pt x="977" y="795" on="0"/>
        <pt x="977" y="635" on="1"/>
        <pt x="977" y="311" on="0"/>
        <pt x="737" y="-41" on="0"/>
        <pt x="467" y="-41" on="1"/>
        <pt x="373" y="-41" on="0"/>
        <pt x="219" y="23" on="0"/>
        <pt x="111" y="135" on="0"/>
        <pt x="51" y="293" on="0"/>
        <pt x="51" y="389" on="1"/>
        <pt x="51" y="494" on="0"/>
        <pt x="121" y="641" on="0"/>
        <pt x="227" y="733" on="0"/>
        <pt x="352" y="774" on="0"/>
        <pt x="410" y="774" on="1"/>
        <pt x="481" y="774" on="0"/>
        <pt x="594" y="731" on="0"/>
        <pt x="670" y="653" on="0"/>
        <pt x="711" y="551" on="0"/>
        <pt x="711" y="494" on="1"/>
        <pt x="711" y="453" on="0"/>
        <pt x="686" y="365" on="0"/>
        <pt x="633" y="293" on="0"/>
        <pt x="549" y="246" on="0"/>
        <pt x="492" y="246" on="1"/>
        <pt x="375" y="246" on="0"/>
        <pt x="283" y="395" on="0"/>
        <pt x="283" y="506" on="1"/>
        <pt x="348" y="506" on="1"/>
        <pt x="348" y="467" on="0"/>
        <pt x="360" y="395" on="0"/>
        <pt x="393" y="340" on="0"/>
        <pt x="449" y="307" on="0"/>
        <pt x="492" y="307" on="1"/>
        <pt x="551" y="307" on="0"/>
        <pt x="645" y="395" on="0"/>
        <pt x="645" y="494" on="1"/>
        <pt x="645" y="596" on="0"/>
        <pt x="512" y="713" on="0"/>
        <pt x="410" y="713" on="1"/>
        <pt x="354" y="713" on="0"/>
        <pt x="250" y="678" on="0"/>
        <pt x="168" y="600" on="0"/>
        <pt x="117" y="477" on="0"/>
        <pt x="117" y="389" on="1"/>
        <pt x="117" y="285" on="0"/>
        <pt x="188" y="143" on="0"/>
        <pt x="297" y="57" on="0"/>
        <pt x="420" y="20" on="0"/>
        <pt x="471" y="20" on="1"/>
        <pt x="592" y="20" on="0"/>
        <pt x="737" y="113" on="0"/>
        <pt x="813" y="264" on="0"/>
        <pt x="838" y="457" on="0"/>
        <pt x="838" y="557" on="1"/>
        <pt x="838" y="666" on="0"/>
        <pt x="827" y="926" on="0"/>
        <pt x="827" y="1055" on="1"/>
        <pt x="827" y="1237" on="0"/>
        <pt x="860" y="1460" on="0"/>
        <pt x="901" y="1536" on="1"/>
        <pt x="827" y="1530" on="0"/>
        <pt x="684" y="1483" on="0"/>
        <pt x="569" y="1401" on="0"/>
        <pt x="500" y="1280" on="0"/>
        <pt x="500" y="1204" on="1"/>
        <pt x="500" y="1135" on="0"/>
        <pt x="561" y="1061" on="0"/>
        <pt x="610" y="1061" on="1"/>
        <pt x="651" y="1061" on="0"/>
        <pt x="700" y="1110" on="0"/>
        <pt x="700" y="1149" on="1"/>
        <pt x="700" y="1194" on="0"/>
        <pt x="643" y="1227" on="0"/>
        <pt x="614" y="1227" on="1"/>
        <pt x="614" y="1288" on="1"/>
        <pt x="680" y="1288" on="0"/>
        <pt x="766" y="1217" on="0"/>
        <pt x="766" y="1149" on="1"/>
        <pt x="766" y="1083" on="0"/>
        <pt x="676" y="999" on="0"/>
        <pt x="610" y="999" on="1"/>
        <pt x="524" y="999" on="0"/>
        <pt x="434" y="1110" on="0"/>
        <pt x="434" y="1202" on="1"/>
        <pt x="434" y="1300" on="0"/>
        <pt x="528" y="1448" on="0"/>
        <pt x="676" y="1548" on="0"/>
        <pt x="856" y="1599" on="0"/>
        <pt x="944" y="1599" on="1"/>
        <pt x="993" y="1657" on="0"/>
        <pt x="1135" y="1720" on="0"/>
        <pt x="1219" y="1720" on="1"/>
        <pt x="1219" y="1659" on="1"/>
        <pt x="1190" y="1659" on="0"/>
        <pt x="1090" y="1632" on="0"/>
        <pt x="1053" y="1593" on="1"/>
        <pt x="1221" y="1575" on="0"/>
        <pt x="1454" y="1423" on="0"/>
        <pt x="1602" y="1184" on="0"/>
        <pt x="1669" y="870" on="0"/>
        <pt x="1669" y="690" on="1"/>
        <pt x="1669" y="569" on="0"/>
        <pt x="1630" y="311" on="0"/>
        <pt x="1538" y="98" on="0"/>
        <pt x="1380" y="-41" on="0"/>
        <pt x="1262" y="-41" on="1"/>
        <pt x="1186" y="-41" on="0"/>
        <pt x="1079" y="12" on="0"/>
        <pt x="1014" y="106" on="0"/>
        <pt x="985" y="236" on="0"/>
        <pt x="985" y="311" on="1"/>
        <pt x="1051" y="311" on="1"/>
        <pt x="1051" y="252" on="0"/>
        <pt x="1073" y="145" on="0"/>
        <pt x="1122" y="66" on="0"/>
        <pt x="1202" y="20" on="0"/>
        <pt x="1260" y="20" on="1"/>
        <pt x="1323" y="20" on="0"/>
        <pt x="1411" y="88" on="0"/>
        <pt x="1468" y="199" on="0"/>
        <pt x="1499" y="342" on="0"/>
        <pt x="1513" y="489" on="0"/>
        <pt x="1516" y="633" on="0"/>
        <pt x="1516" y="688" on="1"/>
        <pt x="1516" y="825" on="0"/>
        <pt x="1475" y="1110" on="0"/>
        <pt x="1364" y="1352" on="0"/>
        <pt x="1167" y="1518" on="0"/>
        <pt x="1012" y="1534" on="1"/>
        <pt x="983" y="1479" on="0"/>
        <pt x="965" y="1311" on="0"/>
      </contour>
    </TTGlyph>
    <TTGlyph name="E" xMin="51" yMin="-41" xMax="1206" yMax="1720">
      <contour>
        <pt x="117" y="1403" on="1"/>
        <pt x="117" y="1323" on="0"/>
        <pt x="180" y="1202" on="0"/>
        <pt x="285" y="1118" on="0"/>
        <pt x="422" y="1069" on="0"/>
        <pt x="496" y="1063" on="1"/>
        <pt x="463" y="1118" on="0"/>
        <pt x="440" y="1239" on="0"/>
        <pt x="440" y="1292" on="1"/>
        <pt x="440" y="1415" on="0"/>
        <pt x="559" y="1614" on="0"/>
        <pt x="659" y="1671" on="1"/>
        <pt x="709" y="1700" on="0"/>
        <pt x="813" y="1720" on="0"/>
        <pt x="872" y="1720" on="1"/>
        <pt x="993" y="1720" on="0"/>
        <pt x="1110" y="1587" on="0"/>
        <pt x="1110" y="1489" on="1"/>
        <pt x="1110" y="1393" on="0"/>
        <pt x="1040" y="1229" on="0"/>
        <pt x="918" y="1102" on="0"/>
        <pt x="748" y="1020" on="0"/>
        <pt x="647" y="1006" on="1"/>
        <pt x="700" y="930" on="0"/>
        <pt x="788" y="922" on="1"/>
        <pt x="788" y="860" on="1"/>
        <pt x="745" y="860" on="0"/>
        <pt x="625" y="823" on="0"/>
        <pt x="512" y="731" on="0"/>
        <pt x="432" y="578" on="0"/>
        <pt x="432" y="459" on="1"/>
        <pt x="432" y="250" on="0"/>
        <pt x="625" y="20" on="0"/>
        <pt x="786" y="20" on="1"/>
        <pt x="844" y="20" on="0"/>
        <pt x="971" y="57" on="0"/>
        <pt x="1073" y="143" on="0"/>
        <pt x="1141" y="285" on="0"/>
        <pt x="1141" y="389" on="1"/>
        <pt x="1141" y="477" on="0"/>
        <pt x="1094" y="600" on="0"/>
        <pt x="1014" y="678" on="0"/>
        <pt x="911" y="713" on="0"/>
        <pt x="856" y="713" on="1"/>
        <pt x="750" y="713" on="0"/>
        <pt x="612" y="594" on="0"/>
        <pt x="612" y="492" on="1"/>
        <pt x="612" y="393" on="0"/>
        <pt x="707" y="307" on="0"/>
        <pt x="766" y="307" on="1"/>
        <pt x="809" y="307" on="0"/>
        <pt x="864" y="340" on="0"/>
        <pt x="897" y="395" on="0"/>
        <pt x="909" y="467" on="0"/>
        <pt x="909" y="506" on="1"/>
        <pt x="975" y="506" on="1"/>
        <pt x="975" y="395" on="0"/>
        <pt x="883" y="246" on="0"/>
        <pt x="766" y="246" on="1"/>
        <pt x="707" y="246" on="0"/>
        <pt x="625" y="287" on="0"/>
        <pt x="571" y="354" on="0"/>
        <pt x="547" y="444" on="0"/>
        <pt x="547" y="492" on="1"/>
        <pt x="547" y="549" on="0"/>
        <pt x="590" y="651" on="0"/>
        <pt x="670" y="729" on="0"/>
        <pt x="784" y="774" on="0"/>
        <pt x="856" y="774" on="1"/>
        <pt x="924" y="774" on="0"/>
        <pt x="1049" y="731" on="0"/>
        <pt x="1147" y="639" on="0"/>
        <pt x="1206" y="492" on="0"/>
        <pt x="1206" y="389" on="1"/>
        <pt x="1206" y="293" on="0"/>
        <pt x="1147" y="135" on="0"/>
        <pt x="1036" y="23" on="0"/>
        <pt x="883" y="-41" on="0"/>
        <pt x="788" y="-41" on="1"/>
        <pt x="692" y="-41" on="0"/>
        <pt x="510" y="12" on="0"/>
        <pt x="367" y="125" on="0"/>
        <pt x="279" y="305" on="0"/>
        <pt x="279" y="434" on="1"/>
        <pt x="279" y="602" on="0"/>
        <pt x="479" y="856" on="0"/>
        <pt x="678" y="895" on="1"/>
        <pt x="678" y="915" on="1"/>
        <pt x="594" y="942" on="0"/>
        <pt x="543" y="999" on="1"/>
        <pt x="453" y="999" on="0"/>
        <pt x="276" y="1047" on="0"/>
        <pt x="137" y="1145" on="0"/>
        <pt x="51" y="1294" on="0"/>
        <pt x="51" y="1399" on="1"/>
        <pt x="51" y="1491" on="0"/>
        <pt x="147" y="1604" on="0"/>
        <pt x="231" y="1604" on="1"/>
        <pt x="297" y="1604" on="0"/>
        <pt x="377" y="1524" on="0"/>
        <pt x="377" y="1456" on="1"/>
        <pt x="377" y="1384" on="0"/>
        <pt x="291" y="1315" on="0"/>
        <pt x="225" y="1315" on="1"/>
        <pt x="225" y="1376" on="1"/>
        <pt x="254" y="1376" on="0"/>
        <pt x="311" y="1409" on="0"/>
        <pt x="311" y="1454" on="1"/>
        <pt x="311" y="1495" on="0"/>
        <pt x="268" y="1542" on="0"/>
        <pt x="227" y="1542" on="1"/>
        <pt x="180" y="1542" on="0"/>
        <pt x="117" y="1475" on="0"/>
      </contour>
      <contour>
        <pt x="868" y="1659" on="1"/>
        <pt x="795" y="1659" on="0"/>
        <pt x="684" y="1597" on="0"/>
        <pt x="614" y="1495" on="0"/>
        <pt x="580" y="1360" on="0"/>
        <pt x="580" y="1286" on="1"/>
        <pt x="580" y="1155" on="0"/>
        <pt x="614" y="1063" on="1"/>
        <pt x="709" y="1073" on="0"/>
        <pt x="868" y="1143" on="0"/>
        <pt x="981" y="1253" on="0"/>
        <pt x="1044" y="1399" on="0"/>
        <pt x="1044" y="1483" on="1"/>
        <pt x="1044" y="1565" on="0"/>
        <pt x="952" y="1659" on="0"/>
      </contour>
    </TTGlyph>
    <TTGlyph name="Eacute" xMin="51" yMin="-41" xMax="1206" yMax="2058">
      <component glyphName="E" x="0" y="0" flags="0x204"/>
      <component glyphName="acute" x="748" y="860" flags="0x4"/>
    </TTGlyph>
    <TTGlyph name="Ecircumflex" xMin="51" yMin="-41" xMax="1206" yMax="2044">
      <component glyphName="E" x="0" y="0" flags="0x204"/>
      <component glyphName="circumflex" x="627" y="860" flags="0x4"/>
    </TTGlyph>
    <TTGlyph name="Edieresis" xMin="51" yMin="-41" xMax="1206" yMax="1999">
      <component glyphName="E" x="0" y="0" flags="0x204"/>
      <component glyphName="dieresis" x="627" y="860" flags="0x4"/>
    </TTGlyph>
    <TTGlyph name="Egrave" xMin="51" yMin="-41" xMax="1206" yMax="2062">
      <component glyphName="E" x="0" y="0" flags="0x204"/>
      <component glyphName="grave" x="504" y="860" flags="0x4"/>
    </TTGlyph>
    <TTGlyph name="Eth" xMin="51" yMin="-41" xMax="1669" yMax="1720">
      <contour>
        <pt x="965" y="1182" on="1"/>
        <pt x="965" y="1110" on="0"/>
        <pt x="969" y="961" on="0"/>
        <pt x="973" y="881" on="1"/>
        <pt x="1141" y="881" on="1"/>
        <pt x="1141" y="819" on="1"/>
        <pt x="975" y="819" on="1"/>
        <pt x="977" y="774" on="0"/>
        <pt x="977" y="682" on="0"/>
        <pt x="977" y="635" on="1"/>
        <pt x="977" y="311" on="0"/>
        <pt x="737" y="-41" on="0"/>
        <pt x="467" y="-41" on="1"/>
        <pt x="373" y="-41" on="0"/>
        <pt x="219" y="23" on="0"/>
        <pt x="111" y="135" on="0"/>
        <pt x="51" y="293" on="0"/>
        <pt x="51" y="389" on="1"/>
        <pt x="51" y="494" on="0"/>
        <pt x="121" y="641" on="0"/>
        <pt x="227" y="733" on="0"/>
        <pt x="352" y="774" on="0"/>
        <pt x="410" y="774" on="1"/>
        <pt x="481" y="774" on="0"/>
        <pt x="594" y="731" on="0"/>
        <pt x="670" y="653" on="0"/>
        <pt x="711" y="551" on="0"/>
        <pt x="711" y="494" on="1"/>
        <pt x="711" y="453" on="0"/>
        <pt x="686" y="365" on="0"/>
        <pt x="633" y="293" on="0"/>
        <pt x="549" y="246" on="0"/>
        <pt x="492" y="246" on="1"/>
        <pt x="375" y="246" on="0"/>
        <pt x="283" y="395" on="0"/>
        <pt x="283" y="506" on="1"/>
        <pt x="348" y="506" on="1"/>
        <pt x="348" y="467" on="0"/>
        <pt x="360" y="395" on="0"/>
        <pt x="393" y="340" on="0"/>
        <pt x="449" y="307" on="0"/>
        <pt x="492" y="307" on="1"/>
        <pt x="551" y="307" on="0"/>
        <pt x="645" y="395" on="0"/>
        <pt x="645" y="494" on="1"/>
        <pt x="645" y="596" on="0"/>
        <pt x="512" y="713" on="0"/>
        <pt x="410" y="713" on="1"/>
        <pt x="354" y="713" on="0"/>
        <pt x="250" y="678" on="0"/>
        <pt x="168" y="600" on="0"/>
        <pt x="117" y="477" on="0"/>
        <pt x="117" y="389" on="1"/>
        <pt x="117" y="285" on="0"/>
        <pt x="188" y="143" on="0"/>
        <pt x="297" y="57" on="0"/>
        <pt x="420" y="20" on="0"/>
        <pt x="471" y="20" on="1"/>
        <pt x="592" y="20" on="0"/>
        <pt x="737" y="113" on="0"/>
        <pt x="813" y="264" on="0"/>
        <pt x="838" y="457" on="0"/>
        <pt x="838" y="557" on="1"/>
        <pt x="838" y="616" on="0"/>
        <pt x="834" y="748" on="0"/>
        <pt x="831" y="819" on="1"/>
        <pt x="682" y="819" on="1"/>
        <pt x="682" y="881" on="1"/>
        <pt x="829" y="881" on="1"/>
        <pt x="827" y="924" on="0"/>
        <pt x="827" y="1012" on="0"/>
        <pt x="827" y="1055" on="1"/>
        <pt x="827" y="1237" on="0"/>
        <pt x="860" y="1460" on="0"/>
        <pt x="901" y="1536" on="1"/>
        <pt x="827" y="1530" on="0"/>
        <pt x="684" y="1483" on="0"/>
        <pt x="569" y="1401" on="0"/>
        <pt x="500" y="1280" on="0"/>
        <pt x="500" y="1204" on="1"/>
        <pt x="500" y="1135" on="0"/>
        <pt x="561" y="1061" on="0"/>
        <pt x="610" y="1061" on="1"/>
        <pt x="651" y="1061" on="0"/>
        <pt x="700" y="1110" on="0"/>
        <pt x="700" y="1149" on="1"/>
        <pt x="700" y="1194" on="0"/>
        <pt x="643" y="1227" on="0"/>
        <pt x="614" y="1227" on="1"/>
        <pt x="614" y="1288" on="1"/>
        <pt x="680" y="1288" on="0"/>
        <pt x="766" y="1217" on="0"/>
        <pt x="766" y="1149" on="1"/>
        <pt x="766" y="1083" on="0"/>
        <pt x="676" y="999" on="0"/>
        <pt x="610" y="999" on="1"/>
        <pt x="524" y="999" on="0"/>
        <pt x="434" y="1110" on="0"/>
        <pt x="434" y="1202" on="1"/>
        <pt x="434" y="1300" on="0"/>
        <pt x="528" y="1448" on="0"/>
        <pt x="676" y="1548" on="0"/>
        <pt x="856" y="1599" on="0"/>
        <pt x="944" y="1599" on="1"/>
        <pt x="993" y="1657" on="0"/>
        <pt x="1135" y="1720" on="0"/>
        <pt x="1219" y="1720" on="1"/>
        <pt x="1219" y="1659" on="1"/>
        <pt x="1190" y="1659" on="0"/>
        <pt x="1090" y="1632" on="0"/>
        <pt x="1053" y="1593" on="1"/>
        <pt x="1221" y="1575" on="0"/>
        <pt x="1454" y="1423" on="0"/>
        <pt x="1602" y="1184" on="0"/>
        <pt x="1669" y="870" on="0"/>
        <pt x="1669" y="690" on="1"/>
        <pt x="1669" y="569" on="0"/>
        <pt x="1630" y="311" on="0"/>
        <pt x="1538" y="98" on="0"/>
        <pt x="1380" y="-41" on="0"/>
        <pt x="1262" y="-41" on="1"/>
        <pt x="1186" y="-41" on="0"/>
        <pt x="1079" y="12" on="0"/>
        <pt x="1014" y="106" on="0"/>
        <pt x="985" y="236" on="0"/>
        <pt x="985" y="311" on="1"/>
        <pt x="1051" y="311" on="1"/>
        <pt x="1051" y="252" on="0"/>
        <pt x="1073" y="145" on="0"/>
        <pt x="1122" y="66" on="0"/>
        <pt x="1202" y="20" on="0"/>
        <pt x="1260" y="20" on="1"/>
        <pt x="1323" y="20" on="0"/>
        <pt x="1411" y="88" on="0"/>
        <pt x="1468" y="199" on="0"/>
        <pt x="1499" y="342" on="0"/>
        <pt x="1513" y="489" on="0"/>
        <pt x="1516" y="633" on="0"/>
        <pt x="1516" y="688" on="1"/>
        <pt x="1516" y="825" on="0"/>
        <pt x="1475" y="1110" on="0"/>
        <pt x="1364" y="1352" on="0"/>
        <pt x="1167" y="1518" on="0"/>
        <pt x="1012" y="1534" on="1"/>
        <pt x="983" y="1479" on="0"/>
        <pt x="965" y="1311" on="0"/>
      </contour>
    </TTGlyph>
    <TTGlyph name="Euro" xMin="51" yMin="-41" xMax="1219" yMax="1720">
      <contour>
        <pt x="680" y="762" on="1"/>
        <pt x="432" y="762" on="1"/>
        <pt x="432" y="713" on="1"/>
        <pt x="432" y="604" on="0"/>
        <pt x="446" y="434" on="0"/>
        <pt x="473" y="303" on="0"/>
        <pt x="514" y="201" on="0"/>
        <pt x="541" y="162" on="1"/>
        <pt x="588" y="94" on="0"/>
        <pt x="727" y="20" on="0"/>
        <pt x="799" y="20" on="1"/>
        <pt x="856" y="20" on="0"/>
        <pt x="983" y="57" on="0"/>
        <pt x="1085" y="143" on="0"/>
        <pt x="1153" y="285" on="0"/>
        <pt x="1153" y="389" on="1"/>
        <pt x="1153" y="477" on="0"/>
        <pt x="1106" y="600" on="0"/>
        <pt x="1026" y="678" on="0"/>
        <pt x="924" y="713" on="0"/>
        <pt x="868" y="713" on="1"/>
        <pt x="762" y="713" on="0"/>
        <pt x="625" y="594" on="0"/>
        <pt x="625" y="492" on="1"/>
        <pt x="625" y="393" on="0"/>
        <pt x="719" y="307" on="0"/>
        <pt x="778" y="307" on="1"/>
        <pt x="821" y="307" on="0"/>
        <pt x="877" y="340" on="0"/>
        <pt x="909" y="395" on="0"/>
        <pt x="922" y="467" on="0"/>
        <pt x="922" y="506" on="1"/>
        <pt x="987" y="506" on="1"/>
        <pt x="987" y="395" on="0"/>
        <pt x="895" y="246" on="0"/>
        <pt x="778" y="246" on="1"/>
        <pt x="719" y="246" on="0"/>
        <pt x="637" y="287" on="0"/>
        <pt x="584" y="354" on="0"/>
        <pt x="559" y="444" on="0"/>
        <pt x="559" y="492" on="1"/>
        <pt x="559" y="549" on="0"/>
        <pt x="602" y="651" on="0"/>
        <pt x="682" y="729" on="0"/>
        <pt x="797" y="774" on="0"/>
        <pt x="868" y="774" on="1"/>
        <pt x="936" y="774" on="0"/>
        <pt x="1061" y="731" on="0"/>
        <pt x="1159" y="639" on="0"/>
        <pt x="1219" y="492" on="0"/>
        <pt x="1219" y="389" on="1"/>
        <pt x="1219" y="293" on="0"/>
        <pt x="1159" y="135" on="0"/>
        <pt x="1049" y="23" on="0"/>
        <pt x="895" y="-41" on="0"/>
        <pt x="801" y="-41" on="1"/>
        <pt x="649" y="-41" on="0"/>
        <pt x="449" y="84" on="0"/>
        <pt x="328" y="289" on="0"/>
        <pt x="279" y="555" on="0"/>
        <pt x="279" y="696" on="1"/>
        <pt x="279" y="762" on="1"/>
        <pt x="188" y="762" on="1"/>
        <pt x="188" y="823" on="1"/>
        <pt x="283" y="823" on="1"/>
        <pt x="283" y="838" on="0"/>
        <pt x="287" y="866" on="0"/>
        <pt x="289" y="883" on="1"/>
        <pt x="188" y="883" on="1"/>
        <pt x="188" y="944" on="1"/>
        <pt x="295" y="944" on="1"/>
        <pt x="313" y="1038" on="1"/>
        <pt x="203" y="1079" on="0"/>
        <pt x="51" y="1257" on="0"/>
        <pt x="51" y="1399" on="1"/>
        <pt x="51" y="1491" on="0"/>
        <pt x="147" y="1604" on="0"/>
        <pt x="231" y="1604" on="1"/>
        <pt x="297" y="1604" on="0"/>
        <pt x="377" y="1524" on="0"/>
        <pt x="377" y="1456" on="1"/>
        <pt x="377" y="1384" on="0"/>
        <pt x="291" y="1315" on="0"/>
        <pt x="225" y="1315" on="1"/>
        <pt x="225" y="1376" on="1"/>
        <pt x="254" y="1376" on="0"/>
        <pt x="311" y="1409" on="0"/>
        <pt x="311" y="1454" on="1"/>
        <pt x="311" y="1495" on="0"/>
        <pt x="268" y="1542" on="0"/>
        <pt x="227" y="1542" on="1"/>
        <pt x="180" y="1542" on="0"/>
        <pt x="117" y="1475" on="0"/>
        <pt x="117" y="1403" on="1"/>
        <pt x="117" y="1290" on="0"/>
        <pt x="238" y="1143" on="0"/>
        <pt x="330" y="1104" on="1"/>
        <pt x="362" y="1235" on="0"/>
        <pt x="465" y="1462" on="0"/>
        <pt x="600" y="1626" on="0"/>
        <pt x="772" y="1720" on="0"/>
        <pt x="874" y="1720" on="1"/>
        <pt x="993" y="1720" on="0"/>
        <pt x="1110" y="1585" on="0"/>
        <pt x="1110" y="1489" on="1"/>
        <pt x="1110" y="1382" on="0"/>
        <pt x="1024" y="1202" on="0"/>
        <pt x="872" y="1073" on="0"/>
        <pt x="668" y="999" on="0"/>
        <pt x="549" y="999" on="1"/>
        <pt x="498" y="999" on="0"/>
        <pt x="453" y="1006" on="1"/>
        <pt x="449" y="989" on="0"/>
        <pt x="446" y="961" on="0"/>
        <pt x="444" y="944" on="1"/>
        <pt x="680" y="944" on="1"/>
        <pt x="680" y="883" on="1"/>
        <pt x="438" y="883" on="1"/>
        <pt x="434" y="823" on="1"/>
        <pt x="680" y="823" on="1"/>
      </contour>
      <contour>
        <pt x="547" y="1061" on="1"/>
        <pt x="655" y="1061" on="0"/>
        <pt x="838" y="1124" on="0"/>
        <pt x="971" y="1237" on="0"/>
        <pt x="1044" y="1393" on="0"/>
        <pt x="1044" y="1483" on="1"/>
        <pt x="1044" y="1565" on="0"/>
        <pt x="956" y="1659" on="0"/>
        <pt x="872" y="1659" on="1"/>
        <pt x="784" y="1659" on="0"/>
        <pt x="649" y="1556" on="0"/>
        <pt x="549" y="1389" on="0"/>
        <pt x="481" y="1178" on="0"/>
        <pt x="463" y="1067" on="1"/>
        <pt x="502" y="1061" on="0"/>
      </contour>
    </TTGlyph>
    <TTGlyph name="F" xMin="51" yMin="-41" xMax="1219" yMax="1679">
      <contour>
        <pt x="1053" y="1618" on="1"/>
        <pt x="946" y="1618" on="0"/>
        <pt x="721" y="1552" on="0"/>
        <pt x="635" y="1481" on="1"/>
        <pt x="575" y="1432" on="0"/>
        <pt x="500" y="1294" on="0"/>
        <pt x="500" y="1204" on="1"/>
        <pt x="500" y="1135" on="0"/>
        <pt x="561" y="1061" on="0"/>
        <pt x="610" y="1061" on="1"/>
        <pt x="651" y="1061" on="0"/>
        <pt x="700" y="1110" on="0"/>
        <pt x="700" y="1149" on="1"/>
        <pt x="700" y="1194" on="0"/>
        <pt x="643" y="1227" on="0"/>
        <pt x="614" y="1227" on="1"/>
        <pt x="614" y="1288" on="1"/>
        <pt x="680" y="1288" on="0"/>
        <pt x="766" y="1217" on="0"/>
        <pt x="766" y="1149" on="1"/>
        <pt x="766" y="1083" on="0"/>
        <pt x="678" y="999" on="0"/>
        <pt x="612" y="999" on="1"/>
        <pt x="526" y="999" on="0"/>
        <pt x="434" y="1110" on="0"/>
        <pt x="434" y="1202" on="1"/>
        <pt x="434" y="1305" on="0"/>
        <pt x="530" y="1466" on="0"/>
        <pt x="604" y="1526" on="1"/>
        <pt x="725" y="1622" on="0"/>
        <pt x="1028" y="1679" on="0"/>
        <pt x="1219" y="1679" on="1"/>
        <pt x="1219" y="1618" on="1"/>
        <pt x="1188" y="1618" on="0"/>
        <pt x="1085" y="1589" on="0"/>
        <pt x="1047" y="1546" on="1"/>
        <pt x="991" y="1483" on="0"/>
        <pt x="965" y="1270" on="0"/>
        <pt x="965" y="1141" on="1"/>
        <pt x="965" y="1073" on="0"/>
        <pt x="969" y="948" on="0"/>
        <pt x="971" y="881" on="1"/>
        <pt x="1135" y="881" on="1"/>
        <pt x="1135" y="819" on="1"/>
        <pt x="973" y="819" on="1"/>
        <pt x="975" y="778" on="0"/>
        <pt x="977" y="686" on="0"/>
        <pt x="977" y="635" on="1"/>
        <pt x="977" y="311" on="0"/>
        <pt x="737" y="-41" on="0"/>
        <pt x="467" y="-41" on="1"/>
        <pt x="373" y="-41" on="0"/>
        <pt x="219" y="23" on="0"/>
        <pt x="111" y="135" on="0"/>
        <pt x="51" y="293" on="0"/>
        <pt x="51" y="389" on="1"/>
        <pt x="51" y="494" on="0"/>
        <pt x="121" y="641" on="0"/>
        <pt x="227" y="733" on="0"/>
        <pt x="352" y="774" on="0"/>
        <pt x="410" y="774" on="1"/>
        <pt x="481" y="774" on="0"/>
        <pt x="594" y="731" on="0"/>
        <pt x="670" y="653" on="0"/>
        <pt x="711" y="551" on="0"/>
        <pt x="711" y="494" on="1"/>
        <pt x="711" y="453" on="0"/>
        <pt x="686" y="365" on="0"/>
        <pt x="633" y="293" on="0"/>
        <pt x="549" y="246" on="0"/>
        <pt x="492" y="246" on="1"/>
        <pt x="375" y="246" on="0"/>
        <pt x="283" y="395" on="0"/>
        <pt x="283" y="506" on="1"/>
        <pt x="348" y="506" on="1"/>
        <pt x="348" y="467" on="0"/>
        <pt x="360" y="395" on="0"/>
        <pt x="393" y="340" on="0"/>
        <pt x="449" y="307" on="0"/>
        <pt x="492" y="307" on="1"/>
        <pt x="551" y="307" on="0"/>
        <pt x="645" y="395" on="0"/>
        <pt x="645" y="494" on="1"/>
        <pt x="645" y="596" on="0"/>
        <pt x="512" y="713" on="0"/>
        <pt x="410" y="713" on="1"/>
        <pt x="354" y="713" on="0"/>
        <pt x="250" y="678" on="0"/>
        <pt x="168" y="600" on="0"/>
        <pt x="117" y="477" on="0"/>
        <pt x="117" y="389" on="1"/>
        <pt x="117" y="285" on="0"/>
        <pt x="188" y="143" on="0"/>
        <pt x="297" y="57" on="0"/>
        <pt x="420" y="20" on="0"/>
        <pt x="471" y="20" on="1"/>
        <pt x="592" y="20" on="0"/>
        <pt x="737" y="113" on="0"/>
        <pt x="813" y="264" on="0"/>
        <pt x="838" y="457" on="0"/>
        <pt x="838" y="557" on="1"/>
        <pt x="838" y="621" on="0"/>
        <pt x="834" y="748" on="0"/>
        <pt x="829" y="819" on="1"/>
        <pt x="672" y="819" on="1"/>
        <pt x="672" y="881" on="1"/>
        <pt x="827" y="881" on="1"/>
        <pt x="827" y="1014" on="1"/>
        <pt x="827" y="1112" on="0"/>
        <pt x="838" y="1290" on="0"/>
        <pt x="854" y="1358" on="1"/>
        <pt x="874" y="1436" on="0"/>
        <pt x="967" y="1563" on="0"/>
        <pt x="1053" y="1597" on="1"/>
      </contour>
    </TTGlyph>
    <TTGlyph name="G" xMin="51" yMin="-717" xMax="1313" yMax="1720">
      <contour>
        <pt x="1018" y="272" on="1"/>
        <pt x="997" y="272" on="1"/>
        <pt x="985" y="184" on="0"/>
        <pt x="926" y="63" on="0"/>
        <pt x="842" y="-10" on="0"/>
        <pt x="748" y="-41" on="0"/>
        <pt x="702" y="-41" on="1"/>
        <pt x="582" y="-41" on="0"/>
        <pt x="420" y="78" on="0"/>
        <pt x="322" y="281" on="0"/>
        <pt x="279" y="547" on="0"/>
        <pt x="279" y="696" on="1"/>
        <pt x="279" y="874" on="0"/>
        <pt x="313" y="1038" on="1"/>
        <pt x="203" y="1079" on="0"/>
        <pt x="51" y="1257" on="0"/>
        <pt x="51" y="1399" on="1"/>
        <pt x="51" y="1491" on="0"/>
        <pt x="147" y="1604" on="0"/>
        <pt x="231" y="1604" on="1"/>
        <pt x="297" y="1604" on="0"/>
        <pt x="377" y="1524" on="0"/>
        <pt x="377" y="1456" on="1"/>
        <pt x="377" y="1384" on="0"/>
        <pt x="291" y="1315" on="0"/>
        <pt x="225" y="1315" on="1"/>
        <pt x="225" y="1376" on="1"/>
        <pt x="254" y="1376" on="0"/>
        <pt x="311" y="1409" on="0"/>
        <pt x="311" y="1454" on="1"/>
        <pt x="311" y="1495" on="0"/>
        <pt x="268" y="1542" on="0"/>
        <pt x="227" y="1542" on="1"/>
        <pt x="180" y="1542" on="0"/>
        <pt x="117" y="1475" on="0"/>
        <pt x="117" y="1403" on="1"/>
        <pt x="117" y="1290" on="0"/>
        <pt x="238" y="1143" on="0"/>
        <pt x="330" y="1104" on="1"/>
        <pt x="350" y="1184" on="0"/>
        <pt x="403" y="1331" on="0"/>
        <pt x="438" y="1395" on="1"/>
        <pt x="524" y="1561" on="0"/>
        <pt x="758" y="1720" on="0"/>
        <pt x="874" y="1720" on="1"/>
        <pt x="993" y="1720" on="0"/>
        <pt x="1110" y="1585" on="0"/>
        <pt x="1110" y="1489" on="1"/>
        <pt x="1110" y="1382" on="0"/>
        <pt x="1024" y="1202" on="0"/>
        <pt x="872" y="1073" on="0"/>
        <pt x="668" y="999" on="0"/>
        <pt x="549" y="999" on="1"/>
        <pt x="498" y="999" on="0"/>
        <pt x="453" y="1006" on="1"/>
        <pt x="442" y="932" on="0"/>
        <pt x="432" y="791" on="0"/>
        <pt x="432" y="731" on="1"/>
        <pt x="432" y="569" on="0"/>
        <pt x="463" y="307" on="0"/>
        <pt x="532" y="121" on="0"/>
        <pt x="643" y="20" on="0"/>
        <pt x="721" y="20" on="1"/>
        <pt x="862" y="20" on="0"/>
        <pt x="1010" y="389" on="0"/>
        <pt x="1010" y="758" on="1"/>
        <pt x="844" y="758" on="1"/>
        <pt x="844" y="819" on="1"/>
        <pt x="1300" y="819" on="1"/>
        <pt x="1300" y="758" on="1"/>
        <pt x="1145" y="758" on="1"/>
        <pt x="1145" y="90" on="1"/>
        <pt x="1192" y="137" on="0"/>
        <pt x="1247" y="231" on="0"/>
        <pt x="1247" y="291" on="1"/>
        <pt x="1247" y="311" on="1"/>
        <pt x="1313" y="311" on="1"/>
        <pt x="1313" y="293" on="1"/>
        <pt x="1313" y="207" on="0"/>
        <pt x="1217" y="72" on="0"/>
        <pt x="1145" y="10" on="1"/>
        <pt x="1145" y="-14" on="1"/>
        <pt x="1145" y="-76" on="0"/>
        <pt x="1141" y="-213" on="0"/>
        <pt x="1126" y="-350" on="0"/>
        <pt x="1098" y="-479" on="0"/>
        <pt x="1075" y="-532" on="1"/>
        <pt x="1040" y="-612" on="0"/>
        <pt x="918" y="-717" on="0"/>
        <pt x="836" y="-717" on="1"/>
        <pt x="752" y="-717" on="0"/>
        <pt x="659" y="-610" on="0"/>
        <pt x="659" y="-512" on="1"/>
        <pt x="659" y="-428" on="0"/>
        <pt x="727" y="-285" on="0"/>
        <pt x="834" y="-162" on="0"/>
        <pt x="965" y="-55" on="0"/>
        <pt x="1026" y="-8" on="1"/>
      </contour>
      <contour>
        <pt x="547" y="1061" on="1"/>
        <pt x="655" y="1061" on="0"/>
        <pt x="838" y="1124" on="0"/>
        <pt x="971" y="1237" on="0"/>
        <pt x="1044" y="1393" on="0"/>
        <pt x="1044" y="1483" on="1"/>
        <pt x="1044" y="1565" on="0"/>
        <pt x="956" y="1659" on="0"/>
        <pt x="872" y="1659" on="1"/>
        <pt x="784" y="1659" on="0"/>
        <pt x="649" y="1556" on="0"/>
        <pt x="549" y="1389" on="0"/>
        <pt x="481" y="1178" on="0"/>
        <pt x="463" y="1067" on="1"/>
        <pt x="502" y="1061" on="0"/>
      </contour>
      <contour>
        <pt x="725" y="-512" on="1"/>
        <pt x="725" y="-584" on="0"/>
        <pt x="791" y="-655" on="0"/>
        <pt x="838" y="-655" on="1"/>
        <pt x="893" y="-655" on="0"/>
        <pt x="971" y="-582" on="0"/>
        <pt x="991" y="-516" on="1"/>
        <pt x="1004" y="-475" on="0"/>
        <pt x="1020" y="-360" on="0"/>
        <pt x="1026" y="-240" on="0"/>
        <pt x="1028" y="-123" on="0"/>
        <pt x="1028" y="-78" on="1"/>
        <pt x="973" y="-121" on="0"/>
        <pt x="864" y="-213" on="0"/>
        <pt x="778" y="-317" on="0"/>
        <pt x="725" y="-440" on="0"/>
      </contour>
    </TTGlyph>
    <TTGlyph name="H" xMin="51" yMin="-41" xMax="1763" yMax="1679">
      <contour>
        <pt x="1053" y="1618" on="1"/>
        <pt x="946" y="1618" on="0"/>
        <pt x="721" y="1552" on="0"/>
        <pt x="635" y="1481" on="1"/>
        <pt x="575" y="1432" on="0"/>
        <pt x="500" y="1294" on="0"/>
        <pt x="500" y="1204" on="1"/>
        <pt x="500" y="1135" on="0"/>
        <pt x="561" y="1061" on="0"/>
        <pt x="610" y="1061" on="1"/>
        <pt x="651" y="1061" on="0"/>
        <pt x="700" y="1110" on="0"/>
        <pt x="700" y="1149" on="1"/>
        <pt x="700" y="1194" on="0"/>
        <pt x="643" y="1227" on="0"/>
        <pt x="614" y="1227" on="1"/>
        <pt x="614" y="1288" on="1"/>
        <pt x="680" y="1288" on="0"/>
        <pt x="766" y="1217" on="0"/>
        <pt x="766" y="1149" on="1"/>
        <pt x="766" y="1083" on="0"/>
        <pt x="678" y="999" on="0"/>
        <pt x="612" y="999" on="1"/>
        <pt x="526" y="999" on="0"/>
        <pt x="434" y="1110" on="0"/>
        <pt x="434" y="1202" on="1"/>
        <pt x="434" y="1305" on="0"/>
        <pt x="530" y="1466" on="0"/>
        <pt x="604" y="1526" on="1"/>
        <pt x="725" y="1622" on="0"/>
        <pt x="1028" y="1679" on="0"/>
        <pt x="1219" y="1679" on="1"/>
        <pt x="1219" y="1618" on="1"/>
        <pt x="1188" y="1618" on="0"/>
        <pt x="1085" y="1589" on="0"/>
        <pt x="1047" y="1546" on="1"/>
        <pt x="991" y="1483" on="0"/>
        <pt x="965" y="1270" on="0"/>
        <pt x="965" y="1141" on="1"/>
        <pt x="965" y="1073" on="0"/>
        <pt x="969" y="948" on="0"/>
        <pt x="971" y="881" on="1"/>
        <pt x="1374" y="881" on="1"/>
        <pt x="1372" y="915" on="0"/>
        <pt x="1372" y="993" on="0"/>
        <pt x="1372" y="1034" on="1"/>
        <pt x="1372" y="1135" on="0"/>
        <pt x="1382" y="1286" on="0"/>
        <pt x="1405" y="1401" on="0"/>
        <pt x="1440" y="1487" on="0"/>
        <pt x="1464" y="1526" on="1"/>
        <pt x="1511" y="1597" on="0"/>
        <pt x="1669" y="1679" on="0"/>
        <pt x="1763" y="1679" on="1"/>
        <pt x="1763" y="1618" on="1"/>
        <pt x="1733" y="1618" on="0"/>
        <pt x="1628" y="1589" on="0"/>
        <pt x="1591" y="1546" on="1"/>
        <pt x="1567" y="1518" on="0"/>
        <pt x="1536" y="1452" on="0"/>
        <pt x="1518" y="1362" on="0"/>
        <pt x="1509" y="1243" on="0"/>
        <pt x="1509" y="1161" on="1"/>
        <pt x="1509" y="1100" on="0"/>
        <pt x="1513" y="993" on="0"/>
        <pt x="1518" y="881" on="0"/>
        <pt x="1522" y="756" on="0"/>
        <pt x="1522" y="676" on="1"/>
        <pt x="1522" y="627" on="0"/>
        <pt x="1518" y="520" on="0"/>
        <pt x="1503" y="416" on="0"/>
        <pt x="1479" y="319" on="0"/>
        <pt x="1460" y="283" on="1"/>
        <pt x="1430" y="221" on="0"/>
        <pt x="1319" y="104" on="0"/>
        <pt x="1235" y="82" on="1"/>
        <pt x="1235" y="61" on="1"/>
        <pt x="1513" y="61" on="1"/>
        <pt x="1569" y="61" on="0"/>
        <pt x="1632" y="104" on="0"/>
        <pt x="1667" y="172" on="0"/>
        <pt x="1677" y="250" on="0"/>
        <pt x="1677" y="287" on="1"/>
        <pt x="1677" y="352" on="1"/>
        <pt x="1743" y="352" on="1"/>
        <pt x="1743" y="287" on="1"/>
        <pt x="1743" y="225" on="0"/>
        <pt x="1722" y="121" on="0"/>
        <pt x="1669" y="43" on="0"/>
        <pt x="1577" y="0" on="0"/>
        <pt x="1505" y="0" on="1"/>
        <pt x="1016" y="0" on="1"/>
        <pt x="1016" y="61" on="1"/>
        <pt x="1090" y="61" on="0"/>
        <pt x="1225" y="104" on="0"/>
        <pt x="1266" y="145" on="1"/>
        <pt x="1309" y="188" on="0"/>
        <pt x="1356" y="291" on="0"/>
        <pt x="1378" y="408" on="0"/>
        <pt x="1382" y="535" on="0"/>
        <pt x="1382" y="598" on="1"/>
        <pt x="1382" y="655" on="0"/>
        <pt x="1378" y="762" on="0"/>
        <pt x="1376" y="819" on="1"/>
        <pt x="973" y="819" on="1"/>
        <pt x="975" y="778" on="0"/>
        <pt x="977" y="686" on="0"/>
        <pt x="977" y="635" on="1"/>
        <pt x="977" y="311" on="0"/>
        <pt x="737" y="-41" on="0"/>
        <pt x="467" y="-41" on="1"/>
        <pt x="373" y="-41" on="0"/>
        <pt x="219" y="23" on="0"/>
        <pt x="111" y="135" on="0"/>
        <pt x="51" y="293" on="0"/>
        <pt x="51" y="389" on="1"/>
        <pt x="51" y="494" on="0"/>
        <pt x="121" y="641" on="0"/>
        <pt x="227" y="733" on="0"/>
        <pt x="352" y="774" on="0"/>
        <pt x="410" y="774" on="1"/>
        <pt x="481" y="774" on="0"/>
        <pt x="594" y="731" on="0"/>
        <pt x="670" y="653" on="0"/>
        <pt x="711" y="551" on="0"/>
        <pt x="711" y="494" on="1"/>
        <pt x="711" y="453" on="0"/>
        <pt x="686" y="365" on="0"/>
        <pt x="633" y="293" on="0"/>
        <pt x="549" y="246" on="0"/>
        <pt x="492" y="246" on="1"/>
        <pt x="375" y="246" on="0"/>
        <pt x="283" y="395" on="0"/>
        <pt x="283" y="506" on="1"/>
        <pt x="348" y="506" on="1"/>
        <pt x="348" y="467" on="0"/>
        <pt x="360" y="395" on="0"/>
        <pt x="393" y="340" on="0"/>
        <pt x="449" y="307" on="0"/>
        <pt x="492" y="307" on="1"/>
        <pt x="551" y="307" on="0"/>
        <pt x="645" y="395" on="0"/>
        <pt x="645" y="494" on="1"/>
        <pt x="645" y="596" on="0"/>
        <pt x="512" y="713" on="0"/>
        <pt x="410" y="713" on="1"/>
        <pt x="354" y="713" on="0"/>
        <pt x="250" y="678" on="0"/>
        <pt x="168" y="600" on="0"/>
        <pt x="117" y="477" on="0"/>
        <pt x="117" y="389" on="1"/>
        <pt x="117" y="285" on="0"/>
        <pt x="188" y="143" on="0"/>
        <pt x="297" y="57" on="0"/>
        <pt x="420" y="20" on="0"/>
        <pt x="471" y="20" on="1"/>
        <pt x="592" y="20" on="0"/>
        <pt x="737" y="113" on="0"/>
        <pt x="813" y="264" on="0"/>
        <pt x="838" y="457" on="0"/>
        <pt x="838" y="557" on="1"/>
        <pt x="838" y="666" on="0"/>
        <pt x="827" y="885" on="0"/>
        <pt x="827" y="1014" on="1"/>
        <pt x="827" y="1112" on="0"/>
        <pt x="838" y="1290" on="0"/>
        <pt x="854" y="1358" on="1"/>
        <pt x="874" y="1436" on="0"/>
        <pt x="967" y="1563" on="0"/>
        <pt x="1053" y="1597" on="1"/>
      </contour>
    </TTGlyph>
    <TTGlyph name="I" xMin="51" yMin="-41" xMax="1219" yMax="1679">
      <contour>
        <pt x="1053" y="1618" on="1"/>
        <pt x="946" y="1618" on="0"/>
        <pt x="721" y="1552" on="0"/>
        <pt x="635" y="1481" on="1"/>
        <pt x="575" y="1432" on="0"/>
        <pt x="500" y="1294" on="0"/>
        <pt x="500" y="1204" on="1"/>
        <pt x="500" y="1135" on="0"/>
        <pt x="561" y="1061" on="0"/>
        <pt x="610" y="1061" on="1"/>
        <pt x="651" y="1061" on="0"/>
        <pt x="700" y="1110" on="0"/>
        <pt x="700" y="1149" on="1"/>
        <pt x="700" y="1194" on="0"/>
        <pt x="643" y="1227" on="0"/>
        <pt x="614" y="1227" on="1"/>
        <pt x="614" y="1288" on="1"/>
        <pt x="680" y="1288" on="0"/>
        <pt x="766" y="1217" on="0"/>
        <pt x="766" y="1149" on="1"/>
        <pt x="766" y="1083" on="0"/>
        <pt x="678" y="999" on="0"/>
        <pt x="612" y="999" on="1"/>
        <pt x="526" y="999" on="0"/>
        <pt x="434" y="1110" on="0"/>
        <pt x="434" y="1202" on="1"/>
        <pt x="434" y="1305" on="0"/>
        <pt x="530" y="1466" on="0"/>
        <pt x="604" y="1526" on="1"/>
        <pt x="725" y="1622" on="0"/>
        <pt x="1028" y="1679" on="0"/>
        <pt x="1219" y="1679" on="1"/>
        <pt x="1219" y="1618" on="1"/>
        <pt x="1188" y="1618" on="0"/>
        <pt x="1085" y="1589" on="0"/>
        <pt x="1047" y="1546" on="1"/>
        <pt x="991" y="1483" on="0"/>
        <pt x="965" y="1270" on="0"/>
        <pt x="965" y="1141" on="1"/>
        <pt x="965" y="1079" on="0"/>
        <pt x="969" y="967" on="0"/>
        <pt x="973" y="846" on="0"/>
        <pt x="977" y="715" on="0"/>
        <pt x="977" y="635" on="1"/>
        <pt x="977" y="311" on="0"/>
        <pt x="737" y="-41" on="0"/>
        <pt x="467" y="-41" on="1"/>
        <pt x="373" y="-41" on="0"/>
        <pt x="219" y="23" on="0"/>
        <pt x="111" y="135" on="0"/>
        <pt x="51" y="293" on="0"/>
        <pt x="51" y="389" on="1"/>
        <pt x="51" y="494" on="0"/>
        <pt x="121" y="641" on="0"/>
        <pt x="227" y="733" on="0"/>
        <pt x="352" y="774" on="0"/>
        <pt x="410" y="774" on="1"/>
        <pt x="481" y="774" on="0"/>
        <pt x="594" y="731" on="0"/>
        <pt x="670" y="653" on="0"/>
        <pt x="711" y="551" on="0"/>
        <pt x="711" y="494" on="1"/>
        <pt x="711" y="453" on="0"/>
        <pt x="686" y="365" on="0"/>
        <pt x="633" y="293" on="0"/>
        <pt x="549" y="246" on="0"/>
        <pt x="492" y="246" on="1"/>
        <pt x="375" y="246" on="0"/>
        <pt x="283" y="395" on="0"/>
        <pt x="283" y="506" on="1"/>
        <pt x="348" y="506" on="1"/>
        <pt x="348" y="467" on="0"/>
        <pt x="360" y="395" on="0"/>
        <pt x="393" y="340" on="0"/>
        <pt x="449" y="307" on="0"/>
        <pt x="492" y="307" on="1"/>
        <pt x="551" y="307" on="0"/>
        <pt x="645" y="395" on="0"/>
        <pt x="645" y="494" on="1"/>
        <pt x="645" y="596" on="0"/>
        <pt x="512" y="713" on="0"/>
        <pt x="410" y="713" on="1"/>
        <pt x="354" y="713" on="0"/>
        <pt x="250" y="678" on="0"/>
        <pt x="168" y="600" on="0"/>
        <pt x="117" y="477" on="0"/>
        <pt x="117" y="389" on="1"/>
        <pt x="117" y="285" on="0"/>
        <pt x="188" y="143" on="0"/>
        <pt x="297" y="57" on="0"/>
        <pt x="420" y="20" on="0"/>
        <pt x="471" y="20" on="1"/>
        <pt x="592" y="20" on="0"/>
        <pt x="737" y="113" on="0"/>
        <pt x="813" y="264" on="0"/>
        <pt x="838" y="457" on="0"/>
        <pt x="838" y="557" on="1"/>
        <pt x="838" y="666" on="0"/>
        <pt x="827" y="885" on="0"/>
        <pt x="827" y="1014" on="1"/>
        <pt x="827" y="1106" on="0"/>
        <pt x="829" y="1280" on="0"/>
        <pt x="868" y="1430" on="0"/>
        <pt x="963" y="1554" on="0"/>
        <pt x="1053" y="1597" on="1"/>
      </contour>
    </TTGlyph>
    <TTGlyph name="Iacute" xMin="51" yMin="-41" xMax="1333" yMax="2058">
      <component glyphName="I" x="0" y="0" flags="0x204"/>
      <component glyphName="acute" x="938" y="860" flags="0x4"/>
    </TTGlyph>
    <TTGlyph name="Icircumflex" xMin="51" yMin="-41" xMax="1219" yMax="2044">
      <component glyphName="I" x="0" y="0" flags="0x204"/>
      <component glyphName="circumflex" x="739" y="860" flags="0x4"/>
    </TTGlyph>
    <TTGlyph name="Idieresis" xMin="51" yMin="-41" xMax="1219" yMax="1999">
      <component glyphName="I" x="0" y="0" flags="0x204"/>
      <component glyphName="dieresis" x="784" y="860" flags="0x4"/>
    </TTGlyph>
    <TTGlyph name="Igrave" xMin="51" yMin="-41" xMax="1219" yMax="2062">
      <component glyphName="I" x="0" y="0" flags="0x204"/>
      <component glyphName="grave" x="760" y="860" flags="0x4"/>
    </TTGlyph>
    <TTGlyph name="J" xMin="51" yMin="-696" xMax="836" yMax="1679">
      <contour>
        <pt x="451" y="557" on="1"/>
        <pt x="444" y="772" on="0"/>
        <pt x="444" y="1014" on="1"/>
        <pt x="444" y="1112" on="0"/>
        <pt x="455" y="1290" on="0"/>
        <pt x="471" y="1358" on="1"/>
        <pt x="492" y="1436" on="0"/>
        <pt x="582" y="1565" on="0"/>
        <pt x="670" y="1597" on="1"/>
        <pt x="670" y="1618" on="1"/>
        <pt x="618" y="1618" on="0"/>
        <pt x="508" y="1602" on="0"/>
        <pt x="397" y="1567" on="0"/>
        <pt x="295" y="1516" on="0"/>
        <pt x="252" y="1481" on="1"/>
        <pt x="193" y="1432" on="0"/>
        <pt x="117" y="1294" on="0"/>
        <pt x="117" y="1204" on="1"/>
        <pt x="117" y="1135" on="0"/>
        <pt x="178" y="1061" on="0"/>
        <pt x="227" y="1061" on="1"/>
        <pt x="268" y="1061" on="0"/>
        <pt x="317" y="1110" on="0"/>
        <pt x="317" y="1149" on="1"/>
        <pt x="317" y="1194" on="0"/>
        <pt x="260" y="1227" on="0"/>
        <pt x="231" y="1227" on="1"/>
        <pt x="231" y="1288" on="1"/>
        <pt x="297" y="1288" on="0"/>
        <pt x="383" y="1217" on="0"/>
        <pt x="383" y="1149" on="1"/>
        <pt x="383" y="1083" on="0"/>
        <pt x="293" y="999" on="0"/>
        <pt x="227" y="999" on="1"/>
        <pt x="141" y="999" on="0"/>
        <pt x="51" y="1110" on="0"/>
        <pt x="51" y="1202" on="1"/>
        <pt x="51" y="1303" on="0"/>
        <pt x="150" y="1468" on="0"/>
        <pt x="221" y="1526" on="1"/>
        <pt x="344" y="1620" on="0"/>
        <pt x="647" y="1679" on="0"/>
        <pt x="836" y="1679" on="1"/>
        <pt x="836" y="1618" on="1"/>
        <pt x="793" y="1618" on="0"/>
        <pt x="705" y="1587" on="0"/>
        <pt x="666" y="1546" on="1"/>
        <pt x="637" y="1516" on="0"/>
        <pt x="602" y="1423" on="0"/>
        <pt x="586" y="1315" on="0"/>
        <pt x="582" y="1196" on="0"/>
        <pt x="582" y="1141" on="1"/>
        <pt x="582" y="111" on="1"/>
        <pt x="629" y="158" on="0"/>
        <pt x="684" y="252" on="0"/>
        <pt x="684" y="311" on="1"/>
        <pt x="684" y="332" on="1"/>
        <pt x="750" y="332" on="1"/>
        <pt x="750" y="313" on="1"/>
        <pt x="750" y="227" on="0"/>
        <pt x="653" y="92" on="0"/>
        <pt x="582" y="31" on="1"/>
        <pt x="582" y="6" on="1"/>
        <pt x="582" y="-55" on="0"/>
        <pt x="578" y="-193" on="0"/>
        <pt x="563" y="-330" on="0"/>
        <pt x="535" y="-459" on="0"/>
        <pt x="512" y="-512" on="1"/>
        <pt x="477" y="-592" on="0"/>
        <pt x="354" y="-696" on="0"/>
        <pt x="272" y="-696" on="1"/>
        <pt x="188" y="-696" on="0"/>
        <pt x="96" y="-590" on="0"/>
        <pt x="96" y="-492" on="1"/>
        <pt x="96" y="-420" on="0"/>
        <pt x="147" y="-293" on="0"/>
        <pt x="233" y="-182" on="0"/>
        <pt x="340" y="-84" on="0"/>
        <pt x="395" y="-41" on="1"/>
        <pt x="414" y="-25" on="0"/>
        <pt x="449" y="2" on="0"/>
        <pt x="465" y="14" on="1"/>
      </contour>
      <contour>
        <pt x="162" y="-492" on="1"/>
        <pt x="162" y="-563" on="0"/>
        <pt x="227" y="-635" on="0"/>
        <pt x="274" y="-635" on="1"/>
        <pt x="330" y="-635" on="0"/>
        <pt x="408" y="-561" on="0"/>
        <pt x="428" y="-496" on="1"/>
        <pt x="440" y="-455" on="0"/>
        <pt x="457" y="-338" on="0"/>
        <pt x="465" y="-215" on="0"/>
        <pt x="467" y="-100" on="0"/>
        <pt x="467" y="-57" on="1"/>
        <pt x="412" y="-100" on="0"/>
        <pt x="303" y="-193" on="0"/>
        <pt x="215" y="-297" on="0"/>
        <pt x="162" y="-420" on="0"/>
      </contour>
    </TTGlyph>
    <TTGlyph name="K" xMin="51" yMin="-41" xMax="1804" yMax="1679">
      <contour>
        <pt x="1063" y="909" on="1"/>
        <pt x="1092" y="909" on="1"/>
        <pt x="1151" y="909" on="0"/>
        <pt x="1223" y="936" on="0"/>
        <pt x="1264" y="993" on="0"/>
        <pt x="1282" y="1085" on="0"/>
        <pt x="1288" y="1151" on="1"/>
        <pt x="1303" y="1282" on="0"/>
        <pt x="1339" y="1452" on="0"/>
        <pt x="1370" y="1511" on="1"/>
        <pt x="1419" y="1606" on="0"/>
        <pt x="1575" y="1679" on="0"/>
        <pt x="1679" y="1679" on="1"/>
        <pt x="1679" y="1618" on="1"/>
        <pt x="1616" y="1618" on="0"/>
        <pt x="1528" y="1575" on="0"/>
        <pt x="1470" y="1483" on="0"/>
        <pt x="1438" y="1339" on="0"/>
        <pt x="1430" y="1239" on="1"/>
        <pt x="1423" y="1149" on="0"/>
        <pt x="1393" y="1028" on="0"/>
        <pt x="1337" y="950" on="0"/>
        <pt x="1253" y="911" on="0"/>
        <pt x="1194" y="901" on="1"/>
        <pt x="1194" y="881" on="1"/>
        <pt x="1313" y="872" on="0"/>
        <pt x="1446" y="774" on="0"/>
        <pt x="1507" y="633" on="0"/>
        <pt x="1520" y="467" on="0"/>
        <pt x="1520" y="393" on="1"/>
        <pt x="1520" y="287" on="0"/>
        <pt x="1532" y="143" on="0"/>
        <pt x="1559" y="57" on="0"/>
        <pt x="1604" y="20" on="0"/>
        <pt x="1636" y="20" on="1"/>
        <pt x="1669" y="20" on="0"/>
        <pt x="1708" y="57" on="0"/>
        <pt x="1731" y="115" on="0"/>
        <pt x="1739" y="188" on="0"/>
        <pt x="1739" y="223" on="1"/>
        <pt x="1739" y="311" on="1"/>
        <pt x="1804" y="311" on="1"/>
        <pt x="1804" y="225" on="1"/>
        <pt x="1804" y="104" on="0"/>
        <pt x="1718" y="-41" on="0"/>
        <pt x="1606" y="-41" on="1"/>
        <pt x="1538" y="-41" on="0"/>
        <pt x="1446" y="18" on="0"/>
        <pt x="1391" y="129" on="0"/>
        <pt x="1366" y="283" on="0"/>
        <pt x="1366" y="377" on="1"/>
        <pt x="1366" y="469" on="0"/>
        <pt x="1358" y="639" on="0"/>
        <pt x="1309" y="770" on="0"/>
        <pt x="1202" y="848" on="0"/>
        <pt x="1104" y="848" on="1"/>
        <pt x="1063" y="848" on="1"/>
      </contour>
      <contour>
        <pt x="1053" y="1618" on="1"/>
        <pt x="946" y="1618" on="0"/>
        <pt x="721" y="1552" on="0"/>
        <pt x="635" y="1481" on="1"/>
        <pt x="575" y="1432" on="0"/>
        <pt x="500" y="1294" on="0"/>
        <pt x="500" y="1204" on="1"/>
        <pt x="500" y="1135" on="0"/>
        <pt x="561" y="1061" on="0"/>
        <pt x="610" y="1061" on="1"/>
        <pt x="651" y="1061" on="0"/>
        <pt x="700" y="1110" on="0"/>
        <pt x="700" y="1149" on="1"/>
        <pt x="700" y="1194" on="0"/>
        <pt x="643" y="1227" on="0"/>
        <pt x="614" y="1227" on="1"/>
        <pt x="614" y="1288" on="1"/>
        <pt x="680" y="1288" on="0"/>
        <pt x="766" y="1217" on="0"/>
        <pt x="766" y="1149" on="1"/>
        <pt x="766" y="1083" on="0"/>
        <pt x="678" y="999" on="0"/>
        <pt x="612" y="999" on="1"/>
        <pt x="526" y="999" on="0"/>
        <pt x="434" y="1110" on="0"/>
        <pt x="434" y="1202" on="1"/>
        <pt x="434" y="1305" on="0"/>
        <pt x="530" y="1466" on="0"/>
        <pt x="604" y="1526" on="1"/>
        <pt x="725" y="1622" on="0"/>
        <pt x="1028" y="1679" on="0"/>
        <pt x="1219" y="1679" on="1"/>
        <pt x="1219" y="1618" on="1"/>
        <pt x="1188" y="1618" on="0"/>
        <pt x="1085" y="1589" on="0"/>
        <pt x="1047" y="1546" on="1"/>
        <pt x="991" y="1483" on="0"/>
        <pt x="965" y="1270" on="0"/>
        <pt x="965" y="1141" on="1"/>
        <pt x="965" y="1079" on="0"/>
        <pt x="969" y="967" on="0"/>
        <pt x="973" y="846" on="0"/>
        <pt x="977" y="715" on="0"/>
        <pt x="977" y="635" on="1"/>
        <pt x="977" y="311" on="0"/>
        <pt x="737" y="-41" on="0"/>
        <pt x="467" y="-41" on="1"/>
        <pt x="373" y="-41" on="0"/>
        <pt x="219" y="23" on="0"/>
        <pt x="111" y="135" on="0"/>
        <pt x="51" y="293" on="0"/>
        <pt x="51" y="389" on="1"/>
        <pt x="51" y="494" on="0"/>
        <pt x="121" y="641" on="0"/>
        <pt x="227" y="733" on="0"/>
        <pt x="352" y="774" on="0"/>
        <pt x="410" y="774" on="1"/>
        <pt x="481" y="774" on="0"/>
        <pt x="594" y="731" on="0"/>
        <pt x="670" y="653" on="0"/>
        <pt x="711" y="551" on="0"/>
        <pt x="711" y="494" on="1"/>
        <pt x="711" y="453" on="0"/>
        <pt x="686" y="365" on="0"/>
        <pt x="633" y="293" on="0"/>
        <pt x="549" y="246" on="0"/>
        <pt x="492" y="246" on="1"/>
        <pt x="375" y="246" on="0"/>
        <pt x="283" y="395" on="0"/>
        <pt x="283" y="506" on="1"/>
        <pt x="348" y="506" on="1"/>
        <pt x="348" y="467" on="0"/>
        <pt x="360" y="395" on="0"/>
        <pt x="393" y="340" on="0"/>
        <pt x="449" y="307" on="0"/>
        <pt x="492" y="307" on="1"/>
        <pt x="551" y="307" on="0"/>
        <pt x="645" y="395" on="0"/>
        <pt x="645" y="494" on="1"/>
        <pt x="645" y="596" on="0"/>
        <pt x="512" y="713" on="0"/>
        <pt x="410" y="713" on="1"/>
        <pt x="354" y="713" on="0"/>
        <pt x="250" y="678" on="0"/>
        <pt x="168" y="600" on="0"/>
        <pt x="117" y="477" on="0"/>
        <pt x="117" y="389" on="1"/>
        <pt x="117" y="285" on="0"/>
        <pt x="188" y="143" on="0"/>
        <pt x="297" y="57" on="0"/>
        <pt x="420" y="20" on="0"/>
        <pt x="471" y="20" on="1"/>
        <pt x="592" y="20" on="0"/>
        <pt x="737" y="113" on="0"/>
        <pt x="813" y="264" on="0"/>
        <pt x="838" y="457" on="0"/>
        <pt x="838" y="557" on="1"/>
        <pt x="838" y="666" on="0"/>
        <pt x="827" y="885" on="0"/>
        <pt x="827" y="1014" on="1"/>
        <pt x="827" y="1112" on="0"/>
        <pt x="838" y="1290" on="0"/>
        <pt x="854" y="1358" on="1"/>
        <pt x="874" y="1436" on="0"/>
        <pt x="967" y="1563" on="0"/>
        <pt x="1053" y="1597" on="1"/>
      </contour>
    </TTGlyph>
    <TTGlyph name="L" xMin="51" yMin="0" xMax="1110" yMax="1720">
      <contour>
        <pt x="117" y="1403" on="1"/>
        <pt x="117" y="1325" on="0"/>
        <pt x="176" y="1206" on="0"/>
        <pt x="279" y="1120" on="0"/>
        <pt x="410" y="1069" on="0"/>
        <pt x="481" y="1061" on="1"/>
        <pt x="481" y="1161" on="0"/>
        <pt x="492" y="1315" on="0"/>
        <pt x="516" y="1436" on="0"/>
        <pt x="553" y="1528" on="0"/>
        <pt x="578" y="1567" on="1"/>
        <pt x="625" y="1638" on="0"/>
        <pt x="780" y="1720" on="0"/>
        <pt x="874" y="1720" on="1"/>
        <pt x="993" y="1720" on="0"/>
        <pt x="1110" y="1585" on="0"/>
        <pt x="1110" y="1489" on="1"/>
        <pt x="1110" y="1391" on="0"/>
        <pt x="1036" y="1223" on="0"/>
        <pt x="907" y="1094" on="0"/>
        <pt x="727" y="1012" on="0"/>
        <pt x="623" y="1001" on="1"/>
        <pt x="627" y="930" on="0"/>
        <pt x="631" y="774" on="0"/>
        <pt x="631" y="676" on="1"/>
        <pt x="631" y="627" on="0"/>
        <pt x="627" y="520" on="0"/>
        <pt x="612" y="416" on="0"/>
        <pt x="588" y="319" on="0"/>
        <pt x="569" y="283" on="1"/>
        <pt x="539" y="221" on="0"/>
        <pt x="428" y="104" on="0"/>
        <pt x="344" y="82" on="1"/>
        <pt x="344" y="61" on="1"/>
        <pt x="705" y="61" on="1"/>
        <pt x="760" y="61" on="0"/>
        <pt x="823" y="104" on="0"/>
        <pt x="858" y="172" on="0"/>
        <pt x="868" y="250" on="0"/>
        <pt x="868" y="287" on="1"/>
        <pt x="868" y="352" on="1"/>
        <pt x="934" y="352" on="1"/>
        <pt x="934" y="287" on="1"/>
        <pt x="934" y="225" on="0"/>
        <pt x="913" y="121" on="0"/>
        <pt x="860" y="43" on="0"/>
        <pt x="768" y="0" on="0"/>
        <pt x="696" y="0" on="1"/>
        <pt x="125" y="0" on="1"/>
        <pt x="125" y="61" on="1"/>
        <pt x="199" y="61" on="0"/>
        <pt x="334" y="104" on="0"/>
        <pt x="375" y="145" on="1"/>
        <pt x="418" y="188" on="0"/>
        <pt x="465" y="291" on="0"/>
        <pt x="487" y="408" on="0"/>
        <pt x="492" y="535" on="0"/>
        <pt x="492" y="598" on="1"/>
        <pt x="492" y="694" on="0"/>
        <pt x="483" y="891" on="0"/>
        <pt x="481" y="999" on="1"/>
        <pt x="399" y="1008" on="0"/>
        <pt x="244" y="1063" on="0"/>
        <pt x="125" y="1161" on="0"/>
        <pt x="51" y="1303" on="0"/>
        <pt x="51" y="1399" on="1"/>
        <pt x="51" y="1491" on="0"/>
        <pt x="147" y="1604" on="0"/>
        <pt x="231" y="1604" on="1"/>
        <pt x="297" y="1604" on="0"/>
        <pt x="377" y="1524" on="0"/>
        <pt x="377" y="1456" on="1"/>
        <pt x="377" y="1384" on="0"/>
        <pt x="291" y="1315" on="0"/>
        <pt x="225" y="1315" on="1"/>
        <pt x="225" y="1376" on="1"/>
        <pt x="254" y="1376" on="0"/>
        <pt x="311" y="1409" on="0"/>
        <pt x="311" y="1454" on="1"/>
        <pt x="311" y="1495" on="0"/>
        <pt x="268" y="1542" on="0"/>
        <pt x="227" y="1542" on="1"/>
        <pt x="180" y="1542" on="0"/>
        <pt x="117" y="1475" on="0"/>
      </contour>
      <contour>
        <pt x="872" y="1659" on="1"/>
        <pt x="793" y="1659" on="0"/>
        <pt x="694" y="1581" on="0"/>
        <pt x="639" y="1450" on="0"/>
        <pt x="618" y="1278" on="0"/>
        <pt x="618" y="1182" on="1"/>
        <pt x="618" y="1151" on="0"/>
        <pt x="618" y="1094" on="0"/>
        <pt x="621" y="1065" on="1"/>
        <pt x="715" y="1075" on="0"/>
        <pt x="870" y="1145" on="0"/>
        <pt x="983" y="1255" on="0"/>
        <pt x="1044" y="1399" on="0"/>
        <pt x="1044" y="1483" on="1"/>
        <pt x="1044" y="1565" on="0"/>
        <pt x="956" y="1659" on="0"/>
      </contour>
    </TTGlyph>
    <TTGlyph name="M" xMin="51" yMin="-41" xMax="2294" yMax="1720">
      <contour>
        <pt x="2294" y="1618" on="1"/>
        <pt x="2263" y="1618" on="0"/>
        <pt x="2161" y="1589" on="0"/>
        <pt x="2122" y="1546" on="1"/>
        <pt x="2073" y="1493" on="0"/>
        <pt x="2040" y="1305" on="0"/>
        <pt x="2040" y="1141" on="1"/>
        <pt x="2040" y="1079" on="0"/>
        <pt x="2044" y="979" on="0"/>
        <pt x="2048" y="874" on="0"/>
        <pt x="2052" y="756" on="0"/>
        <pt x="2052" y="676" on="1"/>
        <pt x="2052" y="627" on="0"/>
        <pt x="2048" y="520" on="0"/>
        <pt x="2034" y="416" on="0"/>
        <pt x="2009" y="319" on="0"/>
        <pt x="1991" y="283" on="1"/>
        <pt x="1960" y="221" on="0"/>
        <pt x="1849" y="104" on="0"/>
        <pt x="1765" y="82" on="1"/>
        <pt x="1765" y="61" on="1"/>
        <pt x="2044" y="61" on="1"/>
        <pt x="2099" y="61" on="0"/>
        <pt x="2163" y="104" on="0"/>
        <pt x="2198" y="172" on="0"/>
        <pt x="2208" y="250" on="0"/>
        <pt x="2208" y="287" on="1"/>
        <pt x="2208" y="352" on="1"/>
        <pt x="2273" y="352" on="1"/>
        <pt x="2273" y="287" on="1"/>
        <pt x="2273" y="225" on="0"/>
        <pt x="2253" y="121" on="0"/>
        <pt x="2200" y="43" on="0"/>
        <pt x="2107" y="0" on="0"/>
        <pt x="2036" y="0" on="1"/>
        <pt x="1546" y="0" on="1"/>
        <pt x="1546" y="61" on="1"/>
        <pt x="1620" y="61" on="0"/>
        <pt x="1755" y="104" on="0"/>
        <pt x="1796" y="145" on="1"/>
        <pt x="1839" y="188" on="0"/>
        <pt x="1886" y="291" on="0"/>
        <pt x="1909" y="408" on="0"/>
        <pt x="1913" y="535" on="0"/>
        <pt x="1913" y="598" on="1"/>
        <pt x="1913" y="651" on="0"/>
        <pt x="1909" y="748" on="0"/>
        <pt x="1907" y="844" on="0"/>
        <pt x="1903" y="950" on="0"/>
        <pt x="1903" y="1014" on="1"/>
        <pt x="1903" y="1239" on="0"/>
        <pt x="1929" y="1360" on="1"/>
        <pt x="1952" y="1458" on="0"/>
        <pt x="2056" y="1575" on="0"/>
        <pt x="2128" y="1597" on="1"/>
        <pt x="2128" y="1618" on="1"/>
        <pt x="2052" y="1618" on="0"/>
        <pt x="1917" y="1520" on="0"/>
        <pt x="1870" y="1444" on="1"/>
        <pt x="1829" y="1378" on="0"/>
        <pt x="1765" y="1204" on="0"/>
        <pt x="1708" y="995" on="0"/>
        <pt x="1657" y="760" on="0"/>
        <pt x="1632" y="633" on="1"/>
        <pt x="1622" y="578" on="0"/>
        <pt x="1595" y="461" on="0"/>
        <pt x="1567" y="346" on="0"/>
        <pt x="1534" y="236" on="0"/>
        <pt x="1516" y="190" on="1"/>
        <pt x="1481" y="102" on="0"/>
        <pt x="1366" y="0" on="0"/>
        <pt x="1274" y="0" on="1"/>
        <pt x="1202" y="0" on="1"/>
        <pt x="1202" y="61" on="1"/>
        <pt x="1272" y="61" on="1"/>
        <pt x="1378" y="68" on="0"/>
        <pt x="1378" y="147" on="1"/>
        <pt x="1378" y="195" on="0"/>
        <pt x="1346" y="399" on="0"/>
        <pt x="1296" y="651" on="0"/>
        <pt x="1239" y="913" on="0"/>
        <pt x="1214" y="1018" on="1"/>
        <pt x="1204" y="1059" on="0"/>
        <pt x="1159" y="1223" on="0"/>
        <pt x="1126" y="1315" on="1"/>
        <pt x="1106" y="1231" on="0"/>
        <pt x="1079" y="1036" on="0"/>
        <pt x="1059" y="836" on="0"/>
        <pt x="1036" y="639" on="0"/>
        <pt x="1022" y="555" on="1"/>
        <pt x="997" y="422" on="0"/>
        <pt x="924" y="201" on="0"/>
        <pt x="797" y="45" on="0"/>
        <pt x="606" y="-41" on="0"/>
        <pt x="467" y="-41" on="1"/>
        <pt x="373" y="-41" on="0"/>
        <pt x="219" y="23" on="0"/>
        <pt x="111" y="135" on="0"/>
        <pt x="51" y="293" on="0"/>
        <pt x="51" y="389" on="1"/>
        <pt x="51" y="494" on="0"/>
        <pt x="121" y="641" on="0"/>
        <pt x="227" y="733" on="0"/>
        <pt x="352" y="774" on="0"/>
        <pt x="410" y="774" on="1"/>
        <pt x="481" y="774" on="0"/>
        <pt x="594" y="731" on="0"/>
        <pt x="670" y="653" on="0"/>
        <pt x="711" y="551" on="0"/>
        <pt x="711" y="494" on="1"/>
        <pt x="711" y="453" on="0"/>
        <pt x="686" y="365" on="0"/>
        <pt x="633" y="293" on="0"/>
        <pt x="549" y="246" on="0"/>
        <pt x="492" y="246" on="1"/>
        <pt x="375" y="246" on="0"/>
        <pt x="283" y="395" on="0"/>
        <pt x="283" y="506" on="1"/>
        <pt x="348" y="506" on="1"/>
        <pt x="348" y="467" on="0"/>
        <pt x="360" y="395" on="0"/>
        <pt x="393" y="340" on="0"/>
        <pt x="449" y="307" on="0"/>
        <pt x="492" y="307" on="1"/>
        <pt x="551" y="307" on="0"/>
        <pt x="645" y="395" on="0"/>
        <pt x="645" y="494" on="1"/>
        <pt x="645" y="596" on="0"/>
        <pt x="512" y="713" on="0"/>
        <pt x="410" y="713" on="1"/>
        <pt x="354" y="713" on="0"/>
        <pt x="250" y="678" on="0"/>
        <pt x="168" y="600" on="0"/>
        <pt x="117" y="477" on="0"/>
        <pt x="117" y="389" on="1"/>
        <pt x="117" y="285" on="0"/>
        <pt x="188" y="143" on="0"/>
        <pt x="297" y="57" on="0"/>
        <pt x="420" y="20" on="0"/>
        <pt x="471" y="20" on="1"/>
        <pt x="594" y="20" on="0"/>
        <pt x="762" y="100" on="0"/>
        <pt x="872" y="242" on="0"/>
        <pt x="936" y="440" on="0"/>
        <pt x="958" y="561" on="1"/>
        <pt x="977" y="662" on="0"/>
        <pt x="1001" y="891" on="0"/>
        <pt x="1028" y="1120" on="0"/>
        <pt x="1061" y="1331" on="0"/>
        <pt x="1087" y="1413" on="1"/>
        <pt x="1077" y="1440" on="1"/>
        <pt x="1032" y="1540" on="0"/>
        <pt x="907" y="1659" on="0"/>
        <pt x="809" y="1659" on="1"/>
        <pt x="725" y="1659" on="0"/>
        <pt x="641" y="1567" on="0"/>
        <pt x="641" y="1497" on="1"/>
        <pt x="641" y="1427" on="0"/>
        <pt x="702" y="1358" on="0"/>
        <pt x="752" y="1358" on="1"/>
        <pt x="793" y="1358" on="0"/>
        <pt x="842" y="1407" on="0"/>
        <pt x="842" y="1446" on="1"/>
        <pt x="842" y="1491" on="0"/>
        <pt x="784" y="1524" on="0"/>
        <pt x="756" y="1524" on="1"/>
        <pt x="756" y="1585" on="1"/>
        <pt x="821" y="1585" on="0"/>
        <pt x="907" y="1513" on="0"/>
        <pt x="907" y="1446" on="1"/>
        <pt x="907" y="1380" on="0"/>
        <pt x="817" y="1296" on="0"/>
        <pt x="752" y="1296" on="1"/>
        <pt x="666" y="1296" on="0"/>
        <pt x="575" y="1403" on="0"/>
        <pt x="575" y="1495" on="1"/>
        <pt x="575" y="1599" on="0"/>
        <pt x="711" y="1720" on="0"/>
        <pt x="815" y="1720" on="1"/>
        <pt x="930" y="1720" on="0"/>
        <pt x="1098" y="1628" on="0"/>
        <pt x="1219" y="1468" on="0"/>
        <pt x="1303" y="1255" on="0"/>
        <pt x="1333" y="1137" on="1"/>
        <pt x="1358" y="1042" on="0"/>
        <pt x="1403" y="862" on="0"/>
        <pt x="1444" y="676" on="0"/>
        <pt x="1481" y="481" on="0"/>
        <pt x="1497" y="371" on="1"/>
        <pt x="1513" y="371" on="1"/>
        <pt x="1522" y="403" on="0"/>
        <pt x="1538" y="479" on="0"/>
        <pt x="1552" y="559" on="0"/>
        <pt x="1569" y="637" on="0"/>
        <pt x="1575" y="670" on="1"/>
        <pt x="1624" y="918" on="0"/>
        <pt x="1724" y="1321" on="0"/>
        <pt x="1804" y="1454" on="1"/>
        <pt x="1888" y="1591" on="0"/>
        <pt x="1997" y="1638" on="1"/>
        <pt x="2091" y="1679" on="0"/>
        <pt x="2228" y="1679" on="1"/>
        <pt x="2294" y="1679" on="1"/>
      </contour>
    </TTGlyph>
    <TTGlyph name="N" xMin="51" yMin="-41" xMax="1886" yMax="1720">
      <contour>
        <pt x="662" y="1659" on="1"/>
        <pt x="578" y="1659" on="0"/>
        <pt x="492" y="1567" on="0"/>
        <pt x="492" y="1497" on="1"/>
        <pt x="492" y="1427" on="0"/>
        <pt x="553" y="1358" on="0"/>
        <pt x="602" y="1358" on="1"/>
        <pt x="643" y="1358" on="0"/>
        <pt x="692" y="1407" on="0"/>
        <pt x="692" y="1446" on="1"/>
        <pt x="692" y="1491" on="0"/>
        <pt x="635" y="1524" on="0"/>
        <pt x="606" y="1524" on="1"/>
        <pt x="606" y="1585" on="1"/>
        <pt x="672" y="1585" on="0"/>
        <pt x="758" y="1513" on="0"/>
        <pt x="758" y="1446" on="1"/>
        <pt x="758" y="1380" on="0"/>
        <pt x="668" y="1296" on="0"/>
        <pt x="602" y="1296" on="1"/>
        <pt x="516" y="1296" on="0"/>
        <pt x="426" y="1403" on="0"/>
        <pt x="426" y="1495" on="1"/>
        <pt x="426" y="1599" on="0"/>
        <pt x="561" y="1720" on="0"/>
        <pt x="666" y="1720" on="1"/>
        <pt x="793" y="1720" on="0"/>
        <pt x="979" y="1597" on="0"/>
        <pt x="1044" y="1489" on="1"/>
        <pt x="1106" y="1386" on="0"/>
        <pt x="1202" y="1153" on="0"/>
        <pt x="1247" y="1001" on="1"/>
        <pt x="1294" y="844" on="0"/>
        <pt x="1393" y="518" on="0"/>
        <pt x="1434" y="377" on="1"/>
        <pt x="1438" y="362" on="0"/>
        <pt x="1444" y="338" on="0"/>
        <pt x="1448" y="326" on="1"/>
        <pt x="1468" y="381" on="0"/>
        <pt x="1485" y="504" on="0"/>
        <pt x="1485" y="573" on="1"/>
        <pt x="1485" y="635" on="0"/>
        <pt x="1481" y="778" on="0"/>
        <pt x="1477" y="928" on="0"/>
        <pt x="1473" y="1079" on="0"/>
        <pt x="1473" y="1147" on="1"/>
        <pt x="1473" y="1325" on="0"/>
        <pt x="1516" y="1530" on="0"/>
        <pt x="1575" y="1593" on="1"/>
        <pt x="1655" y="1679" on="0"/>
        <pt x="1792" y="1679" on="1"/>
        <pt x="1792" y="1618" on="1"/>
        <pt x="1747" y="1618" on="0"/>
        <pt x="1655" y="1591" on="0"/>
        <pt x="1618" y="1548" on="1"/>
        <pt x="1589" y="1516" on="0"/>
        <pt x="1556" y="1417" on="0"/>
        <pt x="1542" y="1307" on="0"/>
        <pt x="1538" y="1190" on="0"/>
        <pt x="1538" y="1141" on="1"/>
        <pt x="1538" y="1079" on="0"/>
        <pt x="1542" y="958" on="0"/>
        <pt x="1546" y="831" on="0"/>
        <pt x="1550" y="690" on="0"/>
        <pt x="1550" y="608" on="1"/>
        <pt x="1550" y="510" on="0"/>
        <pt x="1526" y="328" on="0"/>
        <pt x="1487" y="244" on="1"/>
        <pt x="1479" y="229" on="1"/>
        <pt x="1518" y="131" on="0"/>
        <pt x="1612" y="20" on="0"/>
        <pt x="1681" y="20" on="1"/>
        <pt x="1726" y="20" on="0"/>
        <pt x="1780" y="63" on="0"/>
        <pt x="1810" y="131" on="0"/>
        <pt x="1821" y="209" on="0"/>
        <pt x="1821" y="246" on="1"/>
        <pt x="1821" y="311" on="1"/>
        <pt x="1886" y="311" on="1"/>
        <pt x="1886" y="246" on="1"/>
        <pt x="1886" y="123" on="0"/>
        <pt x="1786" y="-41" on="0"/>
        <pt x="1671" y="-41" on="1"/>
        <pt x="1597" y="-41" on="0"/>
        <pt x="1485" y="8" on="0"/>
        <pt x="1397" y="106" on="0"/>
        <pt x="1325" y="252" on="0"/>
        <pt x="1292" y="348" on="1"/>
        <pt x="1251" y="465" on="0"/>
        <pt x="1153" y="772" on="0"/>
        <pt x="1096" y="977" on="1"/>
        <pt x="1090" y="1004" on="0"/>
        <pt x="1057" y="1106" on="0"/>
        <pt x="1014" y="1233" on="0"/>
        <pt x="958" y="1374" on="0"/>
        <pt x="930" y="1438" on="1"/>
        <pt x="901" y="1356" on="0"/>
        <pt x="893" y="1169" on="0"/>
        <pt x="893" y="1079" on="1"/>
        <pt x="893" y="958" on="0"/>
        <pt x="903" y="707" on="0"/>
        <pt x="903" y="573" on="1"/>
        <pt x="903" y="442" on="0"/>
        <pt x="868" y="219" on="0"/>
        <pt x="772" y="53" on="0"/>
        <pt x="602" y="-41" on="0"/>
        <pt x="467" y="-41" on="1"/>
        <pt x="373" y="-41" on="0"/>
        <pt x="219" y="23" on="0"/>
        <pt x="111" y="135" on="0"/>
        <pt x="51" y="293" on="0"/>
        <pt x="51" y="389" on="1"/>
        <pt x="51" y="494" on="0"/>
        <pt x="121" y="641" on="0"/>
        <pt x="227" y="733" on="0"/>
        <pt x="352" y="774" on="0"/>
        <pt x="410" y="774" on="1"/>
        <pt x="481" y="774" on="0"/>
        <pt x="594" y="731" on="0"/>
        <pt x="670" y="653" on="0"/>
        <pt x="711" y="551" on="0"/>
        <pt x="711" y="494" on="1"/>
        <pt x="711" y="453" on="0"/>
        <pt x="686" y="365" on="0"/>
        <pt x="633" y="293" on="0"/>
        <pt x="549" y="246" on="0"/>
        <pt x="492" y="246" on="1"/>
        <pt x="375" y="246" on="0"/>
        <pt x="283" y="395" on="0"/>
        <pt x="283" y="506" on="1"/>
        <pt x="348" y="506" on="1"/>
        <pt x="348" y="467" on="0"/>
        <pt x="360" y="395" on="0"/>
        <pt x="393" y="340" on="0"/>
        <pt x="449" y="307" on="0"/>
        <pt x="492" y="307" on="1"/>
        <pt x="551" y="307" on="0"/>
        <pt x="645" y="395" on="0"/>
        <pt x="645" y="494" on="1"/>
        <pt x="645" y="596" on="0"/>
        <pt x="512" y="713" on="0"/>
        <pt x="410" y="713" on="1"/>
        <pt x="354" y="713" on="0"/>
        <pt x="250" y="678" on="0"/>
        <pt x="168" y="600" on="0"/>
        <pt x="117" y="477" on="0"/>
        <pt x="117" y="389" on="1"/>
        <pt x="117" y="285" on="0"/>
        <pt x="188" y="143" on="0"/>
        <pt x="295" y="57" on="0"/>
        <pt x="418" y="20" on="0"/>
        <pt x="469" y="20" on="1"/>
        <pt x="590" y="20" on="0"/>
        <pt x="735" y="109" on="0"/>
        <pt x="813" y="260" on="0"/>
        <pt x="838" y="461" on="0"/>
        <pt x="838" y="573" on="1"/>
        <pt x="838" y="684" on="0"/>
        <pt x="827" y="926" on="0"/>
        <pt x="827" y="1055" on="1"/>
        <pt x="827" y="1192" on="0"/>
        <pt x="846" y="1415" on="0"/>
        <pt x="893" y="1509" on="1"/>
        <pt x="852" y="1577" on="0"/>
        <pt x="743" y="1659" on="0"/>
      </contour>
    </TTGlyph>
    <TTGlyph name="Ntilde" xMin="51" yMin="-41" xMax="1886" yMax="1997">
      <component glyphName="N" x="0" y="0" flags="0x204"/>
      <component glyphName="tilde" x="995" y="860" flags="0x4"/>
    </TTGlyph>
    <TTGlyph name="O" xMin="51" yMin="-41" xMax="1087" yMax="1720">
      <contour>
        <pt x="569" y="1720" on="1"/>
        <pt x="817" y="1720" on="0"/>
        <pt x="1087" y="1276" on="0"/>
        <pt x="1087" y="840" on="1"/>
        <pt x="1087" y="403" on="0"/>
        <pt x="817" y="-41" on="0"/>
        <pt x="569" y="-41" on="1"/>
        <pt x="322" y="-41" on="0"/>
        <pt x="51" y="403" on="0"/>
        <pt x="51" y="840" on="1"/>
        <pt x="51" y="1276" on="0"/>
        <pt x="322" y="1720" on="0"/>
      </contour>
      <contour>
        <pt x="430" y="1501" on="1"/>
        <pt x="430" y="1432" on="0"/>
        <pt x="492" y="1358" on="0"/>
        <pt x="541" y="1358" on="1"/>
        <pt x="582" y="1358" on="0"/>
        <pt x="631" y="1407" on="0"/>
        <pt x="631" y="1446" on="1"/>
        <pt x="631" y="1491" on="0"/>
        <pt x="573" y="1524" on="0"/>
        <pt x="545" y="1524" on="1"/>
        <pt x="545" y="1585" on="1"/>
        <pt x="610" y="1585" on="0"/>
        <pt x="696" y="1513" on="0"/>
        <pt x="696" y="1446" on="1"/>
        <pt x="696" y="1380" on="0"/>
        <pt x="606" y="1296" on="0"/>
        <pt x="541" y="1296" on="1"/>
        <pt x="461" y="1296" on="0"/>
        <pt x="373" y="1397" on="0"/>
        <pt x="373" y="1475" on="1"/>
        <pt x="373" y="1513" on="0"/>
        <pt x="401" y="1593" on="0"/>
        <pt x="428" y="1620" on="1"/>
        <pt x="406" y="1620" on="1"/>
        <pt x="371" y="1595" on="0"/>
        <pt x="295" y="1460" on="0"/>
        <pt x="272" y="1391" on="1"/>
        <pt x="256" y="1341" on="0"/>
        <pt x="231" y="1231" on="0"/>
        <pt x="215" y="1100" on="0"/>
        <pt x="205" y="938" on="0"/>
        <pt x="205" y="840" on="1"/>
        <pt x="205" y="756" on="0"/>
        <pt x="215" y="569" on="0"/>
        <pt x="246" y="387" on="0"/>
        <pt x="297" y="221" on="0"/>
        <pt x="379" y="96" on="0"/>
        <pt x="492" y="20" on="0"/>
        <pt x="569" y="20" on="1"/>
        <pt x="645" y="20" on="0"/>
        <pt x="760" y="96" on="0"/>
        <pt x="840" y="221" on="0"/>
        <pt x="893" y="387" on="0"/>
        <pt x="922" y="569" on="0"/>
        <pt x="934" y="756" on="0"/>
        <pt x="934" y="840" on="1"/>
        <pt x="934" y="924" on="0"/>
        <pt x="924" y="1110" on="0"/>
        <pt x="897" y="1292" on="0"/>
        <pt x="850" y="1458" on="0"/>
        <pt x="774" y="1583" on="0"/>
        <pt x="664" y="1659" on="0"/>
        <pt x="590" y="1659" on="1"/>
        <pt x="526" y="1659" on="0"/>
        <pt x="430" y="1579" on="0"/>
      </contour>
    </TTGlyph>
    <TTGlyph name="OE" xMin="51" yMin="-41" xMax="1903" yMax="1720">
      <contour>
        <pt x="1815" y="1499" on="1"/>
        <pt x="1815" y="1407" on="0"/>
        <pt x="1722" y="1296" on="0"/>
        <pt x="1638" y="1296" on="1"/>
        <pt x="1573" y="1296" on="0"/>
        <pt x="1489" y="1376" on="0"/>
        <pt x="1489" y="1444" on="1"/>
        <pt x="1489" y="1516" on="0"/>
        <pt x="1575" y="1585" on="0"/>
        <pt x="1640" y="1585" on="1"/>
        <pt x="1640" y="1524" on="1"/>
        <pt x="1612" y="1524" on="0"/>
        <pt x="1554" y="1491" on="0"/>
        <pt x="1554" y="1446" on="1"/>
        <pt x="1554" y="1405" on="0"/>
        <pt x="1602" y="1358" on="0"/>
        <pt x="1642" y="1358" on="1"/>
        <pt x="1690" y="1358" on="0"/>
        <pt x="1749" y="1423" on="0"/>
        <pt x="1749" y="1495" on="1"/>
        <pt x="1749" y="1561" on="0"/>
        <pt x="1657" y="1659" on="0"/>
        <pt x="1565" y="1659" on="1"/>
        <pt x="1491" y="1659" on="0"/>
        <pt x="1380" y="1597" on="0"/>
        <pt x="1311" y="1495" on="0"/>
        <pt x="1276" y="1360" on="0"/>
        <pt x="1276" y="1286" on="1"/>
        <pt x="1276" y="1120" on="0"/>
        <pt x="1382" y="934" on="0"/>
        <pt x="1485" y="922" on="1"/>
        <pt x="1485" y="860" on="1"/>
        <pt x="1442" y="860" on="0"/>
        <pt x="1321" y="823" on="0"/>
        <pt x="1208" y="731" on="0"/>
        <pt x="1128" y="578" on="0"/>
        <pt x="1128" y="459" on="1"/>
        <pt x="1128" y="250" on="0"/>
        <pt x="1321" y="20" on="0"/>
        <pt x="1483" y="20" on="1"/>
        <pt x="1540" y="20" on="0"/>
        <pt x="1667" y="57" on="0"/>
        <pt x="1769" y="143" on="0"/>
        <pt x="1837" y="285" on="0"/>
        <pt x="1837" y="389" on="1"/>
        <pt x="1837" y="477" on="0"/>
        <pt x="1790" y="600" on="0"/>
        <pt x="1710" y="678" on="0"/>
        <pt x="1608" y="713" on="0"/>
        <pt x="1552" y="713" on="1"/>
        <pt x="1446" y="713" on="0"/>
        <pt x="1309" y="594" on="0"/>
        <pt x="1309" y="492" on="1"/>
        <pt x="1309" y="393" on="0"/>
        <pt x="1403" y="307" on="0"/>
        <pt x="1462" y="307" on="1"/>
        <pt x="1505" y="307" on="0"/>
        <pt x="1561" y="340" on="0"/>
        <pt x="1593" y="395" on="0"/>
        <pt x="1606" y="467" on="0"/>
        <pt x="1606" y="506" on="1"/>
        <pt x="1671" y="506" on="1"/>
        <pt x="1671" y="395" on="0"/>
        <pt x="1579" y="246" on="0"/>
        <pt x="1462" y="246" on="1"/>
        <pt x="1403" y="246" on="0"/>
        <pt x="1321" y="287" on="0"/>
        <pt x="1268" y="354" on="0"/>
        <pt x="1243" y="444" on="0"/>
        <pt x="1243" y="492" on="1"/>
        <pt x="1243" y="549" on="0"/>
        <pt x="1286" y="651" on="0"/>
        <pt x="1366" y="729" on="0"/>
        <pt x="1481" y="774" on="0"/>
        <pt x="1552" y="774" on="1"/>
        <pt x="1620" y="774" on="0"/>
        <pt x="1745" y="731" on="0"/>
        <pt x="1843" y="639" on="0"/>
        <pt x="1903" y="492" on="0"/>
        <pt x="1903" y="389" on="1"/>
        <pt x="1903" y="293" on="0"/>
        <pt x="1843" y="135" on="0"/>
        <pt x="1733" y="23" on="0"/>
        <pt x="1579" y="-41" on="0"/>
        <pt x="1485" y="-41" on="1"/>
        <pt x="1403" y="-41" on="0"/>
        <pt x="1253" y="-2" on="0"/>
        <pt x="1128" y="84" on="0"/>
        <pt x="1040" y="227" on="0"/>
        <pt x="1020" y="332" on="1"/>
        <pt x="999" y="332" on="1"/>
        <pt x="975" y="254" on="0"/>
        <pt x="889" y="117" on="0"/>
        <pt x="778" y="16" on="0"/>
        <pt x="645" y="-41" on="0"/>
        <pt x="569" y="-41" on="1"/>
        <pt x="322" y="-41" on="0"/>
        <pt x="51" y="403" on="0"/>
        <pt x="51" y="840" on="1"/>
        <pt x="51" y="1276" on="0"/>
        <pt x="322" y="1720" on="0"/>
        <pt x="569" y="1720" on="1"/>
        <pt x="817" y="1720" on="0"/>
        <pt x="1077" y="1276" on="0"/>
        <pt x="1077" y="840" on="1"/>
        <pt x="1077" y="809" on="0"/>
        <pt x="1069" y="709" on="0"/>
        <pt x="1063" y="680" on="1"/>
        <pt x="1083" y="680" on="1"/>
        <pt x="1124" y="754" on="0"/>
        <pt x="1276" y="874" on="0"/>
        <pt x="1374" y="895" on="1"/>
        <pt x="1374" y="915" on="1"/>
        <pt x="1303" y="940" on="0"/>
        <pt x="1210" y="1026" on="0"/>
        <pt x="1157" y="1130" on="0"/>
        <pt x="1137" y="1243" on="0"/>
        <pt x="1137" y="1292" on="1"/>
        <pt x="1137" y="1415" on="0"/>
        <pt x="1251" y="1614" on="0"/>
        <pt x="1352" y="1671" on="1"/>
        <pt x="1401" y="1700" on="0"/>
        <pt x="1509" y="1720" on="0"/>
        <pt x="1569" y="1720" on="1"/>
        <pt x="1626" y="1720" on="0"/>
        <pt x="1716" y="1683" on="0"/>
        <pt x="1780" y="1622" on="0"/>
        <pt x="1815" y="1542" on="0"/>
      </contour>
      <contour>
        <pt x="430" y="1501" on="1"/>
        <pt x="430" y="1432" on="0"/>
        <pt x="492" y="1358" on="0"/>
        <pt x="541" y="1358" on="1"/>
        <pt x="582" y="1358" on="0"/>
        <pt x="631" y="1407" on="0"/>
        <pt x="631" y="1446" on="1"/>
        <pt x="631" y="1491" on="0"/>
        <pt x="573" y="1524" on="0"/>
        <pt x="545" y="1524" on="1"/>
        <pt x="545" y="1585" on="1"/>
        <pt x="610" y="1585" on="0"/>
        <pt x="696" y="1513" on="0"/>
        <pt x="696" y="1446" on="1"/>
        <pt x="696" y="1380" on="0"/>
        <pt x="606" y="1296" on="0"/>
        <pt x="541" y="1296" on="1"/>
        <pt x="461" y="1296" on="0"/>
        <pt x="373" y="1397" on="0"/>
        <pt x="373" y="1475" on="1"/>
        <pt x="373" y="1513" on="0"/>
        <pt x="401" y="1593" on="0"/>
        <pt x="428" y="1620" on="1"/>
        <pt x="406" y="1620" on="1"/>
        <pt x="371" y="1595" on="0"/>
        <pt x="295" y="1460" on="0"/>
        <pt x="272" y="1391" on="1"/>
        <pt x="256" y="1341" on="0"/>
        <pt x="231" y="1231" on="0"/>
        <pt x="215" y="1100" on="0"/>
        <pt x="205" y="938" on="0"/>
        <pt x="205" y="840" on="1"/>
        <pt x="205" y="756" on="0"/>
        <pt x="215" y="569" on="0"/>
        <pt x="246" y="387" on="0"/>
        <pt x="297" y="221" on="0"/>
        <pt x="379" y="96" on="0"/>
        <pt x="492" y="20" on="0"/>
        <pt x="569" y="20" on="1"/>
        <pt x="645" y="20" on="0"/>
        <pt x="760" y="96" on="0"/>
        <pt x="840" y="221" on="0"/>
        <pt x="893" y="387" on="0"/>
        <pt x="922" y="569" on="0"/>
        <pt x="934" y="756" on="0"/>
        <pt x="934" y="840" on="1"/>
        <pt x="934" y="924" on="0"/>
        <pt x="924" y="1110" on="0"/>
        <pt x="897" y="1292" on="0"/>
        <pt x="850" y="1458" on="0"/>
        <pt x="774" y="1583" on="0"/>
        <pt x="664" y="1659" on="0"/>
        <pt x="590" y="1659" on="1"/>
        <pt x="526" y="1659" on="0"/>
        <pt x="430" y="1579" on="0"/>
      </contour>
    </TTGlyph>
    <TTGlyph name="Oacute" xMin="51" yMin="-41" xMax="1087" yMax="2058">
      <component glyphName="O" x="0" y="0" flags="0x204"/>
      <component glyphName="acute" x="473" y="860" flags="0x4"/>
    </TTGlyph>
    <TTGlyph name="Ocircumflex" xMin="51" yMin="-41" xMax="1087" yMax="2044">
      <component glyphName="O" x="0" y="0" flags="0x204"/>
      <component glyphName="circumflex" x="346" y="860" flags="0x4"/>
    </TTGlyph>
    <TTGlyph name="Odieresis" xMin="51" yMin="-41" xMax="1087" yMax="1999">
      <component glyphName="O" x="0" y="0" flags="0x204"/>
      <component glyphName="dieresis" x="346" y="860" flags="0x4"/>
    </TTGlyph>
    <TTGlyph name="Ograve" xMin="51" yMin="-41" xMax="1087" yMax="2062">
      <component glyphName="O" x="0" y="0" flags="0x204"/>
      <component glyphName="grave" x="227" y="860" flags="0x4"/>
    </TTGlyph>
    <TTGlyph name="Oslash" xMin="51" yMin="-41" xMax="1087" yMax="1720">
      <contour>
        <pt x="252" y="92" on="1"/>
        <pt x="154" y="199" on="0"/>
        <pt x="51" y="571" on="0"/>
        <pt x="51" y="840" on="1"/>
        <pt x="51" y="1276" on="0"/>
        <pt x="322" y="1720" on="0"/>
        <pt x="569" y="1720" on="1"/>
        <pt x="731" y="1720" on="0"/>
        <pt x="846" y="1622" on="1"/>
        <pt x="885" y="1720" on="1"/>
        <pt x="950" y="1720" on="1"/>
        <pt x="893" y="1577" on="1"/>
        <pt x="989" y="1468" on="0"/>
        <pt x="1087" y="1102" on="0"/>
        <pt x="1087" y="840" on="1"/>
        <pt x="1087" y="403" on="0"/>
        <pt x="817" y="-41" on="0"/>
        <pt x="569" y="-41" on="1"/>
        <pt x="414" y="-41" on="0"/>
        <pt x="301" y="49" on="1"/>
        <pt x="266" y="-41" on="1"/>
        <pt x="201" y="-41" on="1"/>
      </contour>
      <contour>
        <pt x="934" y="840" on="1"/>
        <pt x="934" y="913" on="0"/>
        <pt x="926" y="1075" on="0"/>
        <pt x="907" y="1235" on="0"/>
        <pt x="872" y="1389" on="0"/>
        <pt x="846" y="1452" on="1"/>
        <pt x="340" y="152" on="1"/>
        <pt x="381" y="92" on="0"/>
        <pt x="494" y="20" on="0"/>
        <pt x="569" y="20" on="1"/>
        <pt x="645" y="20" on="0"/>
        <pt x="760" y="96" on="0"/>
        <pt x="840" y="221" on="0"/>
        <pt x="893" y="387" on="0"/>
        <pt x="922" y="569" on="0"/>
        <pt x="934" y="756" on="0"/>
      </contour>
      <contour>
        <pt x="430" y="1501" on="1"/>
        <pt x="430" y="1432" on="0"/>
        <pt x="492" y="1358" on="0"/>
        <pt x="541" y="1358" on="1"/>
        <pt x="582" y="1358" on="0"/>
        <pt x="631" y="1407" on="0"/>
        <pt x="631" y="1446" on="1"/>
        <pt x="631" y="1491" on="0"/>
        <pt x="573" y="1524" on="0"/>
        <pt x="545" y="1524" on="1"/>
        <pt x="545" y="1585" on="1"/>
        <pt x="610" y="1585" on="0"/>
        <pt x="696" y="1513" on="0"/>
        <pt x="696" y="1446" on="1"/>
        <pt x="696" y="1380" on="0"/>
        <pt x="606" y="1296" on="0"/>
        <pt x="541" y="1296" on="1"/>
        <pt x="461" y="1296" on="0"/>
        <pt x="373" y="1397" on="0"/>
        <pt x="373" y="1475" on="1"/>
        <pt x="373" y="1513" on="0"/>
        <pt x="401" y="1593" on="0"/>
        <pt x="428" y="1620" on="1"/>
        <pt x="406" y="1620" on="1"/>
        <pt x="371" y="1595" on="0"/>
        <pt x="295" y="1460" on="0"/>
        <pt x="272" y="1391" on="1"/>
        <pt x="256" y="1341" on="0"/>
        <pt x="231" y="1231" on="0"/>
        <pt x="215" y="1100" on="0"/>
        <pt x="205" y="938" on="0"/>
        <pt x="205" y="840" on="1"/>
        <pt x="205" y="766" on="0"/>
        <pt x="213" y="602" on="0"/>
        <pt x="236" y="440" on="0"/>
        <pt x="272" y="285" on="0"/>
        <pt x="303" y="221" on="1"/>
        <pt x="809" y="1524" on="1"/>
        <pt x="770" y="1585" on="0"/>
        <pt x="664" y="1659" on="0"/>
        <pt x="590" y="1659" on="1"/>
        <pt x="526" y="1659" on="0"/>
        <pt x="430" y="1579" on="0"/>
      </contour>
    </TTGlyph>
    <TTGlyph name="Otilde" xMin="51" yMin="-41" xMax="1087" yMax="1997">
      <component glyphName="O" x="0" y="0" flags="0x204"/>
      <component glyphName="tilde" x="360" y="860" flags="0x4"/>
    </TTGlyph>
    <TTGlyph name="P" xMin="51" yMin="-41" xMax="1556" yMax="1720">
      <contour>
        <pt x="965" y="1182" on="1"/>
        <pt x="965" y="1059" on="0"/>
        <pt x="977" y="795" on="0"/>
        <pt x="977" y="635" on="1"/>
        <pt x="977" y="311" on="0"/>
        <pt x="737" y="-41" on="0"/>
        <pt x="467" y="-41" on="1"/>
        <pt x="373" y="-41" on="0"/>
        <pt x="219" y="23" on="0"/>
        <pt x="111" y="135" on="0"/>
        <pt x="51" y="293" on="0"/>
        <pt x="51" y="389" on="1"/>
        <pt x="51" y="494" on="0"/>
        <pt x="121" y="641" on="0"/>
        <pt x="227" y="733" on="0"/>
        <pt x="352" y="774" on="0"/>
        <pt x="410" y="774" on="1"/>
        <pt x="481" y="774" on="0"/>
        <pt x="594" y="731" on="0"/>
        <pt x="670" y="653" on="0"/>
        <pt x="711" y="551" on="0"/>
        <pt x="711" y="494" on="1"/>
        <pt x="711" y="453" on="0"/>
        <pt x="686" y="365" on="0"/>
        <pt x="633" y="293" on="0"/>
        <pt x="549" y="246" on="0"/>
        <pt x="492" y="246" on="1"/>
        <pt x="375" y="246" on="0"/>
        <pt x="283" y="395" on="0"/>
        <pt x="283" y="506" on="1"/>
        <pt x="348" y="506" on="1"/>
        <pt x="348" y="467" on="0"/>
        <pt x="360" y="395" on="0"/>
        <pt x="393" y="340" on="0"/>
        <pt x="449" y="307" on="0"/>
        <pt x="492" y="307" on="1"/>
        <pt x="551" y="307" on="0"/>
        <pt x="645" y="395" on="0"/>
        <pt x="645" y="494" on="1"/>
        <pt x="645" y="596" on="0"/>
        <pt x="512" y="713" on="0"/>
        <pt x="410" y="713" on="1"/>
        <pt x="354" y="713" on="0"/>
        <pt x="250" y="678" on="0"/>
        <pt x="168" y="600" on="0"/>
        <pt x="117" y="477" on="0"/>
        <pt x="117" y="389" on="1"/>
        <pt x="117" y="285" on="0"/>
        <pt x="188" y="143" on="0"/>
        <pt x="297" y="57" on="0"/>
        <pt x="420" y="20" on="0"/>
        <pt x="471" y="20" on="1"/>
        <pt x="592" y="20" on="0"/>
        <pt x="737" y="113" on="0"/>
        <pt x="813" y="264" on="0"/>
        <pt x="838" y="457" on="0"/>
        <pt x="838" y="557" on="1"/>
        <pt x="838" y="666" on="0"/>
        <pt x="827" y="926" on="0"/>
        <pt x="827" y="1055" on="1"/>
        <pt x="827" y="1237" on="0"/>
        <pt x="860" y="1460" on="0"/>
        <pt x="901" y="1536" on="1"/>
        <pt x="827" y="1530" on="0"/>
        <pt x="684" y="1483" on="0"/>
        <pt x="569" y="1401" on="0"/>
        <pt x="500" y="1280" on="0"/>
        <pt x="500" y="1204" on="1"/>
        <pt x="500" y="1135" on="0"/>
        <pt x="561" y="1061" on="0"/>
        <pt x="610" y="1061" on="1"/>
        <pt x="651" y="1061" on="0"/>
        <pt x="700" y="1110" on="0"/>
        <pt x="700" y="1149" on="1"/>
        <pt x="700" y="1194" on="0"/>
        <pt x="643" y="1227" on="0"/>
        <pt x="614" y="1227" on="1"/>
        <pt x="614" y="1288" on="1"/>
        <pt x="680" y="1288" on="0"/>
        <pt x="766" y="1217" on="0"/>
        <pt x="766" y="1149" on="1"/>
        <pt x="766" y="1083" on="0"/>
        <pt x="676" y="999" on="0"/>
        <pt x="610" y="999" on="1"/>
        <pt x="524" y="999" on="0"/>
        <pt x="434" y="1110" on="0"/>
        <pt x="434" y="1202" on="1"/>
        <pt x="434" y="1298" on="0"/>
        <pt x="524" y="1444" on="0"/>
        <pt x="670" y="1544" on="0"/>
        <pt x="852" y="1597" on="0"/>
        <pt x="944" y="1599" on="1"/>
        <pt x="993" y="1657" on="0"/>
        <pt x="1135" y="1720" on="0"/>
        <pt x="1219" y="1720" on="1"/>
        <pt x="1219" y="1659" on="1"/>
        <pt x="1190" y="1659" on="0"/>
        <pt x="1090" y="1632" on="0"/>
        <pt x="1053" y="1593" on="1"/>
        <pt x="1163" y="1581" on="0"/>
        <pt x="1350" y="1505" on="0"/>
        <pt x="1483" y="1382" on="0"/>
        <pt x="1556" y="1217" on="0"/>
        <pt x="1556" y="1116" on="1"/>
        <pt x="1556" y="1059" on="0"/>
        <pt x="1528" y="926" on="0"/>
        <pt x="1460" y="813" on="0"/>
        <pt x="1350" y="739" on="0"/>
        <pt x="1266" y="739" on="1"/>
        <pt x="1147" y="739" on="0"/>
        <pt x="1038" y="897" on="0"/>
        <pt x="1038" y="1063" on="1"/>
        <pt x="1104" y="1063" on="1"/>
        <pt x="1104" y="1012" on="0"/>
        <pt x="1118" y="918" on="0"/>
        <pt x="1155" y="844" on="0"/>
        <pt x="1212" y="801" on="0"/>
        <pt x="1255" y="801" on="1"/>
        <pt x="1333" y="801" on="0"/>
        <pt x="1403" y="971" on="0"/>
        <pt x="1403" y="1112" on="1"/>
        <pt x="1403" y="1305" on="0"/>
        <pt x="1198" y="1518" on="0"/>
        <pt x="1012" y="1534" on="1"/>
        <pt x="985" y="1479" on="0"/>
        <pt x="965" y="1311" on="0"/>
      </contour>
    </TTGlyph>
    <TTGlyph name="Q" xMin="51" yMin="-41" xMax="1102" yMax="1720">
      <contour>
        <pt x="51" y="156" on="1"/>
        <pt x="51" y="229" on="0"/>
        <pt x="152" y="322" on="0"/>
        <pt x="248" y="322" on="1"/>
        <pt x="305" y="322" on="0"/>
        <pt x="408" y="285" on="0"/>
        <pt x="504" y="227" on="0"/>
        <pt x="594" y="160" on="0"/>
        <pt x="637" y="127" on="1"/>
        <pt x="707" y="186" on="0"/>
        <pt x="805" y="356" on="0"/>
        <pt x="868" y="561" on="0"/>
        <pt x="899" y="791" on="0"/>
        <pt x="899" y="909" on="1"/>
        <pt x="899" y="1028" on="0"/>
        <pt x="872" y="1292" on="0"/>
        <pt x="797" y="1513" on="0"/>
        <pt x="655" y="1659" on="0"/>
        <pt x="541" y="1659" on="1"/>
        <pt x="428" y="1659" on="0"/>
        <pt x="268" y="1540" on="0"/>
        <pt x="168" y="1356" on="0"/>
        <pt x="123" y="1128" on="0"/>
        <pt x="123" y="1020" on="1"/>
        <pt x="123" y="877" on="0"/>
        <pt x="168" y="674" on="0"/>
        <pt x="250" y="543" on="0"/>
        <pt x="365" y="481" on="0"/>
        <pt x="434" y="481" on="1"/>
        <pt x="545" y="481" on="0"/>
        <pt x="655" y="616" on="0"/>
        <pt x="655" y="719" on="1"/>
        <pt x="655" y="811" on="0"/>
        <pt x="565" y="901" on="0"/>
        <pt x="504" y="901" on="1"/>
        <pt x="459" y="901" on="0"/>
        <pt x="403" y="866" on="0"/>
        <pt x="373" y="811" on="0"/>
        <pt x="360" y="739" on="0"/>
        <pt x="360" y="702" on="1"/>
        <pt x="295" y="702" on="1"/>
        <pt x="295" y="752" on="0"/>
        <pt x="317" y="846" on="0"/>
        <pt x="369" y="918" on="0"/>
        <pt x="449" y="963" on="0"/>
        <pt x="504" y="963" on="1"/>
        <pt x="559" y="963" on="0"/>
        <pt x="641" y="924" on="0"/>
        <pt x="694" y="856" on="0"/>
        <pt x="721" y="768" on="0"/>
        <pt x="721" y="719" on="1"/>
        <pt x="721" y="672" on="0"/>
        <pt x="692" y="567" on="0"/>
        <pt x="625" y="479" on="0"/>
        <pt x="516" y="420" on="0"/>
        <pt x="434" y="420" on="1"/>
        <pt x="336" y="420" on="0"/>
        <pt x="195" y="504" on="0"/>
        <pt x="102" y="659" on="0"/>
        <pt x="57" y="881" on="0"/>
        <pt x="57" y="1020" on="1"/>
        <pt x="57" y="1192" on="0"/>
        <pt x="135" y="1454" on="0"/>
        <pt x="268" y="1630" on="0"/>
        <pt x="444" y="1720" on="0"/>
        <pt x="541" y="1720" on="1"/>
        <pt x="686" y="1720" on="0"/>
        <pt x="883" y="1589" on="0"/>
        <pt x="1001" y="1368" on="0"/>
        <pt x="1053" y="1077" on="0"/>
        <pt x="1053" y="918" on="1"/>
        <pt x="1053" y="838" on="0"/>
        <pt x="1026" y="655" on="0"/>
        <pt x="973" y="471" on="0"/>
        <pt x="895" y="299" on="0"/>
        <pt x="844" y="227" on="1"/>
        <pt x="786" y="145" on="0"/>
        <pt x="702" y="82" on="1"/>
        <pt x="745" y="53" on="0"/>
        <pt x="829" y="20" on="0"/>
        <pt x="872" y="20" on="1"/>
        <pt x="928" y="20" on="0"/>
        <pt x="991" y="63" on="0"/>
        <pt x="1026" y="131" on="0"/>
        <pt x="1036" y="209" on="0"/>
        <pt x="1036" y="246" on="1"/>
        <pt x="1036" y="311" on="1"/>
        <pt x="1102" y="311" on="1"/>
        <pt x="1102" y="246" on="1"/>
        <pt x="1102" y="184" on="0"/>
        <pt x="1079" y="80" on="0"/>
        <pt x="1024" y="2" on="0"/>
        <pt x="936" y="-41" on="0"/>
        <pt x="868" y="-41" on="1"/>
        <pt x="801" y="-41" on="0"/>
        <pt x="688" y="4" on="0"/>
        <pt x="637" y="37" on="1"/>
        <pt x="569" y="0" on="0"/>
        <pt x="416" y="-41" on="0"/>
        <pt x="332" y="-41" on="1"/>
        <pt x="242" y="-41" on="0"/>
        <pt x="133" y="-4" on="0"/>
        <pt x="72" y="55" on="0"/>
        <pt x="51" y="125" on="0"/>
      </contour>
      <contour>
        <pt x="240" y="260" on="1"/>
        <pt x="186" y="260" on="0"/>
        <pt x="117" y="209" on="0"/>
        <pt x="117" y="156" on="1"/>
        <pt x="117" y="90" on="0"/>
        <pt x="233" y="20" on="0"/>
        <pt x="338" y="20" on="1"/>
        <pt x="406" y="20" on="0"/>
        <pt x="524" y="53" on="0"/>
        <pt x="573" y="82" on="1"/>
        <pt x="532" y="113" on="0"/>
        <pt x="455" y="176" on="0"/>
        <pt x="373" y="227" on="0"/>
        <pt x="287" y="260" on="0"/>
      </contour>
    </TTGlyph>
    <TTGlyph name="R" xMin="51" yMin="-41" xMax="1810" yMax="1720">
      <contour>
        <pt x="1202" y="825" on="1"/>
        <pt x="1321" y="817" on="0"/>
        <pt x="1452" y="735" on="0"/>
        <pt x="1513" y="614" on="0"/>
        <pt x="1526" y="467" on="0"/>
        <pt x="1526" y="393" on="1"/>
        <pt x="1526" y="287" on="0"/>
        <pt x="1538" y="143" on="0"/>
        <pt x="1565" y="57" on="0"/>
        <pt x="1610" y="20" on="0"/>
        <pt x="1642" y="20" on="1"/>
        <pt x="1675" y="20" on="0"/>
        <pt x="1714" y="57" on="0"/>
        <pt x="1737" y="115" on="0"/>
        <pt x="1745" y="188" on="0"/>
        <pt x="1745" y="223" on="1"/>
        <pt x="1745" y="311" on="1"/>
        <pt x="1810" y="311" on="1"/>
        <pt x="1810" y="225" on="1"/>
        <pt x="1810" y="104" on="0"/>
        <pt x="1724" y="-41" on="0"/>
        <pt x="1612" y="-41" on="1"/>
        <pt x="1544" y="-41" on="0"/>
        <pt x="1452" y="18" on="0"/>
        <pt x="1397" y="129" on="0"/>
        <pt x="1372" y="283" on="0"/>
        <pt x="1372" y="377" on="1"/>
        <pt x="1372" y="469" on="0"/>
        <pt x="1364" y="623" on="0"/>
        <pt x="1313" y="731" on="0"/>
        <pt x="1206" y="793" on="0"/>
        <pt x="1108" y="793" on="1"/>
        <pt x="1067" y="793" on="1"/>
        <pt x="1067" y="854" on="1"/>
        <pt x="1208" y="856" on="0"/>
        <pt x="1368" y="1038" on="0"/>
        <pt x="1368" y="1190" on="1"/>
        <pt x="1368" y="1274" on="0"/>
        <pt x="1315" y="1399" on="0"/>
        <pt x="1219" y="1481" on="0"/>
        <pt x="1087" y="1528" on="0"/>
        <pt x="1012" y="1534" on="1"/>
        <pt x="983" y="1479" on="0"/>
        <pt x="965" y="1311" on="0"/>
        <pt x="965" y="1182" on="1"/>
        <pt x="965" y="1059" on="0"/>
        <pt x="977" y="795" on="0"/>
        <pt x="977" y="635" on="1"/>
        <pt x="977" y="311" on="0"/>
        <pt x="737" y="-41" on="0"/>
        <pt x="467" y="-41" on="1"/>
        <pt x="373" y="-41" on="0"/>
        <pt x="219" y="23" on="0"/>
        <pt x="111" y="135" on="0"/>
        <pt x="51" y="293" on="0"/>
        <pt x="51" y="389" on="1"/>
        <pt x="51" y="494" on="0"/>
        <pt x="121" y="641" on="0"/>
        <pt x="227" y="733" on="0"/>
        <pt x="352" y="774" on="0"/>
        <pt x="410" y="774" on="1"/>
        <pt x="481" y="774" on="0"/>
        <pt x="594" y="731" on="0"/>
        <pt x="670" y="653" on="0"/>
        <pt x="711" y="551" on="0"/>
        <pt x="711" y="494" on="1"/>
        <pt x="711" y="453" on="0"/>
        <pt x="686" y="365" on="0"/>
        <pt x="633" y="293" on="0"/>
        <pt x="549" y="246" on="0"/>
        <pt x="492" y="246" on="1"/>
        <pt x="375" y="246" on="0"/>
        <pt x="283" y="395" on="0"/>
        <pt x="283" y="506" on="1"/>
        <pt x="348" y="506" on="1"/>
        <pt x="348" y="467" on="0"/>
        <pt x="360" y="395" on="0"/>
        <pt x="393" y="340" on="0"/>
        <pt x="449" y="307" on="0"/>
        <pt x="492" y="307" on="1"/>
        <pt x="551" y="307" on="0"/>
        <pt x="645" y="395" on="0"/>
        <pt x="645" y="494" on="1"/>
        <pt x="645" y="596" on="0"/>
        <pt x="512" y="713" on="0"/>
        <pt x="410" y="713" on="1"/>
        <pt x="354" y="713" on="0"/>
        <pt x="250" y="678" on="0"/>
        <pt x="168" y="600" on="0"/>
        <pt x="117" y="477" on="0"/>
        <pt x="117" y="389" on="1"/>
        <pt x="117" y="285" on="0"/>
        <pt x="188" y="143" on="0"/>
        <pt x="297" y="57" on="0"/>
        <pt x="420" y="20" on="0"/>
        <pt x="471" y="20" on="1"/>
        <pt x="592" y="20" on="0"/>
        <pt x="737" y="113" on="0"/>
        <pt x="813" y="264" on="0"/>
        <pt x="838" y="457" on="0"/>
        <pt x="838" y="557" on="1"/>
        <pt x="838" y="666" on="0"/>
        <pt x="827" y="926" on="0"/>
        <pt x="827" y="1055" on="1"/>
        <pt x="827" y="1237" on="0"/>
        <pt x="860" y="1460" on="0"/>
        <pt x="901" y="1536" on="1"/>
        <pt x="827" y="1530" on="0"/>
        <pt x="684" y="1483" on="0"/>
        <pt x="569" y="1401" on="0"/>
        <pt x="500" y="1280" on="0"/>
        <pt x="500" y="1204" on="1"/>
        <pt x="500" y="1135" on="0"/>
        <pt x="561" y="1061" on="0"/>
        <pt x="610" y="1061" on="1"/>
        <pt x="651" y="1061" on="0"/>
        <pt x="700" y="1110" on="0"/>
        <pt x="700" y="1149" on="1"/>
        <pt x="700" y="1194" on="0"/>
        <pt x="643" y="1227" on="0"/>
        <pt x="614" y="1227" on="1"/>
        <pt x="614" y="1288" on="1"/>
        <pt x="680" y="1288" on="0"/>
        <pt x="766" y="1217" on="0"/>
        <pt x="766" y="1149" on="1"/>
        <pt x="766" y="1083" on="0"/>
        <pt x="676" y="999" on="0"/>
        <pt x="610" y="999" on="1"/>
        <pt x="524" y="999" on="0"/>
        <pt x="434" y="1110" on="0"/>
        <pt x="434" y="1202" on="1"/>
        <pt x="434" y="1298" on="0"/>
        <pt x="524" y="1444" on="0"/>
        <pt x="670" y="1544" on="0"/>
        <pt x="852" y="1597" on="0"/>
        <pt x="944" y="1599" on="1"/>
        <pt x="993" y="1657" on="0"/>
        <pt x="1135" y="1720" on="0"/>
        <pt x="1219" y="1720" on="1"/>
        <pt x="1219" y="1659" on="1"/>
        <pt x="1190" y="1659" on="0"/>
        <pt x="1090" y="1632" on="0"/>
        <pt x="1053" y="1595" on="1"/>
        <pt x="1159" y="1585" on="0"/>
        <pt x="1333" y="1526" on="0"/>
        <pt x="1456" y="1425" on="0"/>
        <pt x="1522" y="1286" on="0"/>
        <pt x="1522" y="1198" on="1"/>
        <pt x="1522" y="1143" on="0"/>
        <pt x="1491" y="1020" on="0"/>
        <pt x="1417" y="918" on="0"/>
        <pt x="1294" y="848" on="0"/>
        <pt x="1202" y="846" on="1"/>
      </contour>
    </TTGlyph>
    <TTGlyph name="S" xMin="51" yMin="-41" xMax="1235" yMax="1720">
      <contour>
        <pt x="1235" y="467" on="1"/>
        <pt x="1235" y="358" on="0"/>
        <pt x="1167" y="174" on="0"/>
        <pt x="1036" y="37" on="0"/>
        <pt x="842" y="-41" on="0"/>
        <pt x="715" y="-41" on="1"/>
        <pt x="621" y="-41" on="0"/>
        <pt x="467" y="23" on="0"/>
        <pt x="356" y="135" on="0"/>
        <pt x="295" y="293" on="0"/>
        <pt x="295" y="389" on="1"/>
        <pt x="295" y="494" on="0"/>
        <pt x="365" y="641" on="0"/>
        <pt x="471" y="733" on="0"/>
        <pt x="596" y="774" on="0"/>
        <pt x="653" y="774" on="1"/>
        <pt x="725" y="774" on="0"/>
        <pt x="838" y="731" on="0"/>
        <pt x="913" y="653" on="0"/>
        <pt x="954" y="551" on="0"/>
        <pt x="954" y="494" on="1"/>
        <pt x="954" y="453" on="0"/>
        <pt x="930" y="365" on="0"/>
        <pt x="877" y="293" on="0"/>
        <pt x="793" y="246" on="0"/>
        <pt x="735" y="246" on="1"/>
        <pt x="618" y="246" on="0"/>
        <pt x="526" y="395" on="0"/>
        <pt x="526" y="506" on="1"/>
        <pt x="592" y="506" on="1"/>
        <pt x="592" y="467" on="0"/>
        <pt x="604" y="395" on="0"/>
        <pt x="637" y="340" on="0"/>
        <pt x="692" y="307" on="0"/>
        <pt x="735" y="307" on="1"/>
        <pt x="795" y="307" on="0"/>
        <pt x="889" y="395" on="0"/>
        <pt x="889" y="494" on="1"/>
        <pt x="889" y="596" on="0"/>
        <pt x="756" y="713" on="0"/>
        <pt x="653" y="713" on="1"/>
        <pt x="598" y="713" on="0"/>
        <pt x="494" y="678" on="0"/>
        <pt x="412" y="600" on="0"/>
        <pt x="360" y="477" on="0"/>
        <pt x="360" y="389" on="1"/>
        <pt x="360" y="285" on="0"/>
        <pt x="434" y="143" on="0"/>
        <pt x="543" y="57" on="0"/>
        <pt x="666" y="20" on="0"/>
        <pt x="717" y="20" on="1"/>
        <pt x="811" y="20" on="0"/>
        <pt x="952" y="84" on="0"/>
        <pt x="1047" y="195" on="0"/>
        <pt x="1092" y="340" on="0"/>
        <pt x="1092" y="420" on="1"/>
        <pt x="1092" y="504" on="0"/>
        <pt x="1034" y="664" on="0"/>
        <pt x="946" y="819" on="0"/>
        <pt x="838" y="969" on="0"/>
        <pt x="786" y="1042" on="1"/>
        <pt x="678" y="999" on="0"/>
        <pt x="549" y="999" on="1"/>
        <pt x="459" y="999" on="0"/>
        <pt x="281" y="1044" on="0"/>
        <pt x="139" y="1143" on="0"/>
        <pt x="51" y="1294" on="0"/>
        <pt x="51" y="1399" on="1"/>
        <pt x="51" y="1491" on="0"/>
        <pt x="147" y="1604" on="0"/>
        <pt x="231" y="1604" on="1"/>
        <pt x="297" y="1604" on="0"/>
        <pt x="377" y="1524" on="0"/>
        <pt x="377" y="1456" on="1"/>
        <pt x="377" y="1384" on="0"/>
        <pt x="291" y="1315" on="0"/>
        <pt x="225" y="1315" on="1"/>
        <pt x="225" y="1376" on="1"/>
        <pt x="254" y="1376" on="0"/>
        <pt x="311" y="1409" on="0"/>
        <pt x="311" y="1454" on="1"/>
        <pt x="311" y="1495" on="0"/>
        <pt x="268" y="1542" on="0"/>
        <pt x="227" y="1542" on="1"/>
        <pt x="180" y="1542" on="0"/>
        <pt x="117" y="1475" on="0"/>
        <pt x="117" y="1403" on="1"/>
        <pt x="117" y="1317" on="0"/>
        <pt x="190" y="1188" on="0"/>
        <pt x="313" y="1104" on="0"/>
        <pt x="467" y="1061" on="0"/>
        <pt x="547" y="1061" on="1"/>
        <pt x="602" y="1061" on="0"/>
        <pt x="702" y="1077" on="0"/>
        <pt x="750" y="1094" on="1"/>
        <pt x="686" y="1188" on="0"/>
        <pt x="614" y="1356" on="0"/>
        <pt x="614" y="1446" on="1"/>
        <pt x="614" y="1501" on="0"/>
        <pt x="649" y="1599" on="0"/>
        <pt x="717" y="1675" on="0"/>
        <pt x="815" y="1720" on="0"/>
        <pt x="879" y="1720" on="1"/>
        <pt x="993" y="1720" on="0"/>
        <pt x="1110" y="1587" on="0"/>
        <pt x="1110" y="1489" on="1"/>
        <pt x="1110" y="1368" on="0"/>
        <pt x="1004" y="1174" on="0"/>
        <pt x="911" y="1108" on="1"/>
        <pt x="967" y="1040" on="0"/>
        <pt x="1081" y="891" on="0"/>
        <pt x="1176" y="731" on="0"/>
        <pt x="1235" y="559" on="0"/>
      </contour>
      <contour>
        <pt x="1044" y="1479" on="1"/>
        <pt x="1044" y="1513" on="0"/>
        <pt x="1028" y="1579" on="0"/>
        <pt x="991" y="1628" on="0"/>
        <pt x="932" y="1659" on="0"/>
        <pt x="891" y="1659" on="1"/>
        <pt x="825" y="1659" on="0"/>
        <pt x="735" y="1563" on="0"/>
        <pt x="735" y="1468" on="1"/>
        <pt x="735" y="1391" on="0"/>
        <pt x="815" y="1237" on="0"/>
        <pt x="874" y="1155" on="1"/>
        <pt x="954" y="1212" on="0"/>
        <pt x="1044" y="1376" on="0"/>
      </contour>
    </TTGlyph>
    <TTGlyph name="Scaron" xMin="51" yMin="-41" xMax="1235" yMax="2044">
      <component glyphName="S" x="0" y="0" flags="0x204"/>
      <component glyphName="caron" x="666" y="860" flags="0x4"/>
    </TTGlyph>
    <TTGlyph name="T" xMin="51" yMin="-41" xMax="1505" yMax="1679">
      <contour>
        <pt x="1053" y="1618" on="1"/>
        <pt x="946" y="1618" on="0"/>
        <pt x="721" y="1552" on="0"/>
        <pt x="635" y="1481" on="1"/>
        <pt x="575" y="1432" on="0"/>
        <pt x="500" y="1294" on="0"/>
        <pt x="500" y="1204" on="1"/>
        <pt x="500" y="1135" on="0"/>
        <pt x="561" y="1061" on="0"/>
        <pt x="610" y="1061" on="1"/>
        <pt x="651" y="1061" on="0"/>
        <pt x="700" y="1110" on="0"/>
        <pt x="700" y="1149" on="1"/>
        <pt x="700" y="1194" on="0"/>
        <pt x="643" y="1227" on="0"/>
        <pt x="614" y="1227" on="1"/>
        <pt x="614" y="1288" on="1"/>
        <pt x="680" y="1288" on="0"/>
        <pt x="766" y="1217" on="0"/>
        <pt x="766" y="1149" on="1"/>
        <pt x="766" y="1083" on="0"/>
        <pt x="678" y="999" on="0"/>
        <pt x="612" y="999" on="1"/>
        <pt x="526" y="999" on="0"/>
        <pt x="434" y="1110" on="0"/>
        <pt x="434" y="1202" on="1"/>
        <pt x="434" y="1305" on="0"/>
        <pt x="530" y="1466" on="0"/>
        <pt x="604" y="1526" on="1"/>
        <pt x="723" y="1620" on="0"/>
        <pt x="1028" y="1679" on="0"/>
        <pt x="1214" y="1679" on="1"/>
        <pt x="1505" y="1679" on="1"/>
        <pt x="1505" y="1618" on="1"/>
        <pt x="1266" y="1618" on="1"/>
        <pt x="1206" y="1618" on="0"/>
        <pt x="1092" y="1593" on="0"/>
        <pt x="1049" y="1546" on="1"/>
        <pt x="989" y="1483" on="0"/>
        <pt x="965" y="1270" on="0"/>
        <pt x="965" y="1141" on="1"/>
        <pt x="965" y="1079" on="0"/>
        <pt x="969" y="967" on="0"/>
        <pt x="973" y="846" on="0"/>
        <pt x="977" y="715" on="0"/>
        <pt x="977" y="635" on="1"/>
        <pt x="977" y="311" on="0"/>
        <pt x="737" y="-41" on="0"/>
        <pt x="467" y="-41" on="1"/>
        <pt x="373" y="-41" on="0"/>
        <pt x="219" y="23" on="0"/>
        <pt x="111" y="135" on="0"/>
        <pt x="51" y="293" on="0"/>
        <pt x="51" y="389" on="1"/>
        <pt x="51" y="494" on="0"/>
        <pt x="121" y="641" on="0"/>
        <pt x="227" y="733" on="0"/>
        <pt x="352" y="774" on="0"/>
        <pt x="410" y="774" on="1"/>
        <pt x="481" y="774" on="0"/>
        <pt x="594" y="731" on="0"/>
        <pt x="670" y="653" on="0"/>
        <pt x="711" y="551" on="0"/>
        <pt x="711" y="494" on="1"/>
        <pt x="711" y="453" on="0"/>
        <pt x="686" y="365" on="0"/>
        <pt x="633" y="293" on="0"/>
        <pt x="549" y="246" on="0"/>
        <pt x="492" y="246" on="1"/>
        <pt x="375" y="246" on="0"/>
        <pt x="283" y="395" on="0"/>
        <pt x="283" y="506" on="1"/>
        <pt x="348" y="506" on="1"/>
        <pt x="348" y="467" on="0"/>
        <pt x="360" y="395" on="0"/>
        <pt x="393" y="340" on="0"/>
        <pt x="449" y="307" on="0"/>
        <pt x="492" y="307" on="1"/>
        <pt x="551" y="307" on="0"/>
        <pt x="645" y="395" on="0"/>
        <pt x="645" y="494" on="1"/>
        <pt x="645" y="596" on="0"/>
        <pt x="512" y="713" on="0"/>
        <pt x="410" y="713" on="1"/>
        <pt x="354" y="713" on="0"/>
        <pt x="250" y="678" on="0"/>
        <pt x="168" y="600" on="0"/>
        <pt x="117" y="477" on="0"/>
        <pt x="117" y="389" on="1"/>
        <pt x="117" y="285" on="0"/>
        <pt x="188" y="143" on="0"/>
        <pt x="297" y="57" on="0"/>
        <pt x="420" y="20" on="0"/>
        <pt x="471" y="20" on="1"/>
        <pt x="592" y="20" on="0"/>
        <pt x="737" y="113" on="0"/>
        <pt x="813" y="264" on="0"/>
        <pt x="838" y="457" on="0"/>
        <pt x="838" y="557" on="1"/>
        <pt x="838" y="666" on="0"/>
        <pt x="827" y="885" on="0"/>
        <pt x="827" y="1014" on="1"/>
        <pt x="827" y="1112" on="0"/>
        <pt x="838" y="1290" on="0"/>
        <pt x="854" y="1358" on="1"/>
        <pt x="874" y="1436" on="0"/>
        <pt x="967" y="1563" on="0"/>
        <pt x="1053" y="1597" on="1"/>
      </contour>
    </TTGlyph>
    <TTGlyph name="Thorn" xMin="51" yMin="-41" xMax="1556" yMax="1901">
      <contour>
        <pt x="965" y="1182" on="1"/>
        <pt x="965" y="1059" on="0"/>
        <pt x="977" y="795" on="0"/>
        <pt x="977" y="635" on="1"/>
        <pt x="977" y="311" on="0"/>
        <pt x="737" y="-41" on="0"/>
        <pt x="467" y="-41" on="1"/>
        <pt x="373" y="-41" on="0"/>
        <pt x="219" y="23" on="0"/>
        <pt x="111" y="135" on="0"/>
        <pt x="51" y="293" on="0"/>
        <pt x="51" y="389" on="1"/>
        <pt x="51" y="494" on="0"/>
        <pt x="121" y="641" on="0"/>
        <pt x="227" y="733" on="0"/>
        <pt x="352" y="774" on="0"/>
        <pt x="410" y="774" on="1"/>
        <pt x="481" y="774" on="0"/>
        <pt x="594" y="731" on="0"/>
        <pt x="670" y="653" on="0"/>
        <pt x="711" y="551" on="0"/>
        <pt x="711" y="494" on="1"/>
        <pt x="711" y="453" on="0"/>
        <pt x="686" y="365" on="0"/>
        <pt x="633" y="293" on="0"/>
        <pt x="549" y="246" on="0"/>
        <pt x="492" y="246" on="1"/>
        <pt x="375" y="246" on="0"/>
        <pt x="283" y="395" on="0"/>
        <pt x="283" y="506" on="1"/>
        <pt x="348" y="506" on="1"/>
        <pt x="348" y="467" on="0"/>
        <pt x="360" y="395" on="0"/>
        <pt x="393" y="340" on="0"/>
        <pt x="449" y="307" on="0"/>
        <pt x="492" y="307" on="1"/>
        <pt x="551" y="307" on="0"/>
        <pt x="645" y="395" on="0"/>
        <pt x="645" y="494" on="1"/>
        <pt x="645" y="596" on="0"/>
        <pt x="512" y="713" on="0"/>
        <pt x="410" y="713" on="1"/>
        <pt x="354" y="713" on="0"/>
        <pt x="250" y="678" on="0"/>
        <pt x="168" y="600" on="0"/>
        <pt x="117" y="477" on="0"/>
        <pt x="117" y="389" on="1"/>
        <pt x="117" y="285" on="0"/>
        <pt x="188" y="143" on="0"/>
        <pt x="297" y="57" on="0"/>
        <pt x="420" y="20" on="0"/>
        <pt x="471" y="20" on="1"/>
        <pt x="592" y="20" on="0"/>
        <pt x="737" y="113" on="0"/>
        <pt x="813" y="264" on="0"/>
        <pt x="838" y="457" on="0"/>
        <pt x="838" y="557" on="1"/>
        <pt x="838" y="666" on="0"/>
        <pt x="827" y="926" on="0"/>
        <pt x="827" y="1055" on="1"/>
        <pt x="827" y="1194" on="0"/>
        <pt x="846" y="1436" on="0"/>
        <pt x="868" y="1534" on="1"/>
        <pt x="799" y="1524" on="0"/>
        <pt x="666" y="1473" on="0"/>
        <pt x="563" y="1391" on="0"/>
        <pt x="500" y="1276" on="0"/>
        <pt x="500" y="1204" on="1"/>
        <pt x="500" y="1135" on="0"/>
        <pt x="561" y="1061" on="0"/>
        <pt x="610" y="1061" on="1"/>
        <pt x="651" y="1061" on="0"/>
        <pt x="700" y="1110" on="0"/>
        <pt x="700" y="1149" on="1"/>
        <pt x="700" y="1194" on="0"/>
        <pt x="643" y="1227" on="0"/>
        <pt x="614" y="1227" on="1"/>
        <pt x="614" y="1288" on="1"/>
        <pt x="680" y="1288" on="0"/>
        <pt x="766" y="1217" on="0"/>
        <pt x="766" y="1149" on="1"/>
        <pt x="766" y="1083" on="0"/>
        <pt x="676" y="999" on="0"/>
        <pt x="610" y="999" on="1"/>
        <pt x="524" y="999" on="0"/>
        <pt x="434" y="1110" on="0"/>
        <pt x="434" y="1202" on="1"/>
        <pt x="434" y="1290" on="0"/>
        <pt x="512" y="1430" on="0"/>
        <pt x="637" y="1528" on="0"/>
        <pt x="799" y="1585" on="0"/>
        <pt x="885" y="1595" on="1"/>
        <pt x="905" y="1671" on="0"/>
        <pt x="944" y="1729" on="1"/>
        <pt x="995" y="1808" on="0"/>
        <pt x="1143" y="1898" on="0"/>
        <pt x="1247" y="1901" on="1"/>
        <pt x="1247" y="1839" on="1"/>
        <pt x="1217" y="1839" on="0"/>
        <pt x="1116" y="1808" on="0"/>
        <pt x="1075" y="1767" on="1"/>
        <pt x="1053" y="1743" on="0"/>
        <pt x="1014" y="1659" on="0"/>
        <pt x="999" y="1597" on="1"/>
        <pt x="1122" y="1591" on="0"/>
        <pt x="1327" y="1522" on="0"/>
        <pt x="1475" y="1397" on="0"/>
        <pt x="1556" y="1223" on="0"/>
        <pt x="1556" y="1116" on="1"/>
        <pt x="1556" y="1059" on="0"/>
        <pt x="1528" y="926" on="0"/>
        <pt x="1460" y="813" on="0"/>
        <pt x="1350" y="739" on="0"/>
        <pt x="1266" y="739" on="1"/>
        <pt x="1147" y="739" on="0"/>
        <pt x="1038" y="897" on="0"/>
        <pt x="1038" y="1063" on="1"/>
        <pt x="1104" y="1063" on="1"/>
        <pt x="1104" y="1012" on="0"/>
        <pt x="1118" y="918" on="0"/>
        <pt x="1155" y="844" on="0"/>
        <pt x="1212" y="801" on="0"/>
        <pt x="1255" y="801" on="1"/>
        <pt x="1333" y="801" on="0"/>
        <pt x="1403" y="971" on="0"/>
        <pt x="1403" y="1112" on="1"/>
        <pt x="1403" y="1311" on="0"/>
        <pt x="1186" y="1526" on="0"/>
        <pt x="987" y="1536" on="1"/>
        <pt x="977" y="1466" on="0"/>
        <pt x="965" y="1290" on="0"/>
      </contour>
    </TTGlyph>
    <TTGlyph name="U" xMin="51" yMin="-41" xMax="1442" yMax="1679">
      <contour>
        <pt x="1200" y="608" on="1"/>
        <pt x="1200" y="543" on="0"/>
        <pt x="1194" y="397" on="0"/>
        <pt x="1169" y="252" on="0"/>
        <pt x="1124" y="121" on="0"/>
        <pt x="1044" y="18" on="0"/>
        <pt x="928" y="-41" on="0"/>
        <pt x="846" y="-41" on="1"/>
        <pt x="719" y="-41" on="0"/>
        <pt x="561" y="84" on="0"/>
        <pt x="475" y="289" on="0"/>
        <pt x="444" y="553" on="0"/>
        <pt x="444" y="692" on="1"/>
        <pt x="444" y="1014" on="1"/>
        <pt x="444" y="1112" on="0"/>
        <pt x="455" y="1290" on="0"/>
        <pt x="471" y="1358" on="1"/>
        <pt x="492" y="1436" on="0"/>
        <pt x="586" y="1563" on="0"/>
        <pt x="670" y="1597" on="1"/>
        <pt x="670" y="1618" on="1"/>
        <pt x="563" y="1618" on="0"/>
        <pt x="338" y="1552" on="0"/>
        <pt x="252" y="1481" on="1"/>
        <pt x="193" y="1432" on="0"/>
        <pt x="117" y="1294" on="0"/>
        <pt x="117" y="1204" on="1"/>
        <pt x="117" y="1135" on="0"/>
        <pt x="178" y="1061" on="0"/>
        <pt x="227" y="1061" on="1"/>
        <pt x="268" y="1061" on="0"/>
        <pt x="317" y="1110" on="0"/>
        <pt x="317" y="1149" on="1"/>
        <pt x="317" y="1194" on="0"/>
        <pt x="260" y="1227" on="0"/>
        <pt x="231" y="1227" on="1"/>
        <pt x="231" y="1288" on="1"/>
        <pt x="297" y="1288" on="0"/>
        <pt x="383" y="1217" on="0"/>
        <pt x="383" y="1149" on="1"/>
        <pt x="383" y="1083" on="0"/>
        <pt x="295" y="999" on="0"/>
        <pt x="229" y="999" on="1"/>
        <pt x="143" y="999" on="0"/>
        <pt x="51" y="1110" on="0"/>
        <pt x="51" y="1202" on="1"/>
        <pt x="51" y="1305" on="0"/>
        <pt x="147" y="1466" on="0"/>
        <pt x="221" y="1526" on="1"/>
        <pt x="283" y="1575" on="0"/>
        <pt x="420" y="1636" on="0"/>
        <pt x="573" y="1669" on="0"/>
        <pt x="743" y="1679" on="0"/>
        <pt x="840" y="1679" on="1"/>
        <pt x="840" y="1618" on="1"/>
        <pt x="809" y="1618" on="0"/>
        <pt x="713" y="1589" on="0"/>
        <pt x="674" y="1546" on="1"/>
        <pt x="618" y="1483" on="0"/>
        <pt x="598" y="1266" on="0"/>
        <pt x="598" y="1137" on="1"/>
        <pt x="598" y="692" on="1"/>
        <pt x="598" y="563" on="0"/>
        <pt x="608" y="317" on="0"/>
        <pt x="637" y="223" on="1"/>
        <pt x="668" y="123" on="0"/>
        <pt x="782" y="20" on="0"/>
        <pt x="858" y="20" on="1"/>
        <pt x="922" y="20" on="0"/>
        <pt x="1010" y="74" on="0"/>
        <pt x="1071" y="164" on="0"/>
        <pt x="1108" y="279" on="0"/>
        <pt x="1128" y="401" on="0"/>
        <pt x="1135" y="522" on="0"/>
        <pt x="1135" y="573" on="1"/>
        <pt x="1135" y="635" on="0"/>
        <pt x="1130" y="778" on="0"/>
        <pt x="1126" y="928" on="0"/>
        <pt x="1122" y="1079" on="0"/>
        <pt x="1122" y="1147" on="1"/>
        <pt x="1122" y="1325" on="0"/>
        <pt x="1165" y="1530" on="0"/>
        <pt x="1225" y="1593" on="1"/>
        <pt x="1305" y="1679" on="0"/>
        <pt x="1442" y="1679" on="1"/>
        <pt x="1442" y="1618" on="1"/>
        <pt x="1397" y="1618" on="0"/>
        <pt x="1305" y="1591" on="0"/>
        <pt x="1268" y="1548" on="1"/>
        <pt x="1239" y="1516" on="0"/>
        <pt x="1206" y="1417" on="0"/>
        <pt x="1192" y="1307" on="0"/>
        <pt x="1188" y="1190" on="0"/>
        <pt x="1188" y="1141" on="1"/>
        <pt x="1188" y="1079" on="0"/>
        <pt x="1192" y="958" on="0"/>
        <pt x="1196" y="831" on="0"/>
        <pt x="1200" y="690" on="0"/>
      </contour>
    </TTGlyph>
    <TTGlyph name="Uacute" xMin="51" yMin="-41" xMax="1442" yMax="2058">
      <component glyphName="U" x="0" y="0" flags="0x204"/>
      <component glyphName="acute" x="870" y="860" flags="0x4"/>
    </TTGlyph>
    <TTGlyph name="Ucircumflex" xMin="51" yMin="-41" xMax="1442" yMax="2044">
      <component glyphName="U" x="0" y="0" flags="0x204"/>
      <component glyphName="circumflex" x="645" y="860" flags="0x4"/>
    </TTGlyph>
    <TTGlyph name="Udieresis" xMin="51" yMin="-41" xMax="1442" yMax="1999">
      <component glyphName="U" x="0" y="0" flags="0x204"/>
      <component glyphName="dieresis" x="686" y="860" flags="0x4"/>
    </TTGlyph>
    <TTGlyph name="Ugrave" xMin="51" yMin="-41" xMax="1442" yMax="2062">
      <component glyphName="U" x="0" y="0" flags="0x204"/>
      <component glyphName="grave" x="645" y="860" flags="0x4"/>
    </TTGlyph>
    <TTGlyph name="V" xMin="51" yMin="0" xMax="1573" yMax="1720">
      <contour>
        <pt x="287" y="1659" on="1"/>
        <pt x="203" y="1659" on="0"/>
        <pt x="117" y="1567" on="0"/>
        <pt x="117" y="1497" on="1"/>
        <pt x="117" y="1427" on="0"/>
        <pt x="178" y="1358" on="0"/>
        <pt x="227" y="1358" on="1"/>
        <pt x="268" y="1358" on="0"/>
        <pt x="317" y="1407" on="0"/>
        <pt x="317" y="1446" on="1"/>
        <pt x="317" y="1491" on="0"/>
        <pt x="260" y="1524" on="0"/>
        <pt x="231" y="1524" on="1"/>
        <pt x="231" y="1585" on="1"/>
        <pt x="297" y="1585" on="0"/>
        <pt x="383" y="1513" on="0"/>
        <pt x="383" y="1446" on="1"/>
        <pt x="383" y="1380" on="0"/>
        <pt x="293" y="1296" on="0"/>
        <pt x="227" y="1296" on="1"/>
        <pt x="141" y="1296" on="0"/>
        <pt x="51" y="1403" on="0"/>
        <pt x="51" y="1495" on="1"/>
        <pt x="51" y="1599" on="0"/>
        <pt x="186" y="1720" on="0"/>
        <pt x="291" y="1720" on="1"/>
        <pt x="375" y="1720" on="0"/>
        <pt x="487" y="1675" on="0"/>
        <pt x="537" y="1630" on="1"/>
        <pt x="588" y="1583" on="0"/>
        <pt x="678" y="1438" on="0"/>
        <pt x="752" y="1268" on="0"/>
        <pt x="813" y="1085" on="0"/>
        <pt x="836" y="1001" on="1"/>
        <pt x="879" y="844" on="0"/>
        <pt x="963" y="541" on="0"/>
        <pt x="1001" y="369" on="1"/>
        <pt x="1018" y="369" on="1"/>
        <pt x="1053" y="502" on="0"/>
        <pt x="1106" y="811" on="0"/>
        <pt x="1155" y="1110" on="0"/>
        <pt x="1212" y="1378" on="0"/>
        <pt x="1251" y="1473" on="1"/>
        <pt x="1303" y="1593" on="0"/>
        <pt x="1462" y="1679" on="0"/>
        <pt x="1573" y="1679" on="1"/>
        <pt x="1573" y="1618" on="1"/>
        <pt x="1550" y="1618" on="1"/>
        <pt x="1460" y="1618" on="0"/>
        <pt x="1354" y="1542" on="0"/>
        <pt x="1321" y="1470" on="1"/>
        <pt x="1288" y="1399" on="0"/>
        <pt x="1239" y="1200" on="0"/>
        <pt x="1198" y="973" on="0"/>
        <pt x="1159" y="731" on="0"/>
        <pt x="1114" y="494" on="0"/>
        <pt x="1061" y="276" on="0"/>
        <pt x="1024" y="190" on="1"/>
        <pt x="983" y="90" on="0"/>
        <pt x="852" y="0" on="0"/>
        <pt x="770" y="0" on="1"/>
        <pt x="705" y="0" on="1"/>
        <pt x="705" y="61" on="1"/>
        <pt x="776" y="61" on="1"/>
        <pt x="881" y="61" on="0"/>
        <pt x="881" y="147" on="1"/>
        <pt x="881" y="186" on="0"/>
        <pt x="844" y="377" on="0"/>
        <pt x="784" y="621" on="0"/>
        <pt x="717" y="891" on="0"/>
        <pt x="686" y="1008" on="1"/>
        <pt x="670" y="1071" on="0"/>
        <pt x="625" y="1227" on="0"/>
        <pt x="569" y="1380" on="0"/>
        <pt x="504" y="1518" on="0"/>
        <pt x="469" y="1563" on="1"/>
        <pt x="395" y="1659" on="0"/>
      </contour>
    </TTGlyph>
    <TTGlyph name="W" xMin="51" yMin="0" xMax="2251" yMax="1720">
      <contour>
        <pt x="1997" y="1470" on="1"/>
        <pt x="1962" y="1407" on="0"/>
        <pt x="1905" y="1221" on="0"/>
        <pt x="1855" y="999" on="0"/>
        <pt x="1810" y="756" on="0"/>
        <pt x="1790" y="633" on="1"/>
        <pt x="1772" y="520" on="0"/>
        <pt x="1718" y="289" on="0"/>
        <pt x="1677" y="190" on="1"/>
        <pt x="1632" y="86" on="0"/>
        <pt x="1513" y="0" on="0"/>
        <pt x="1432" y="0" on="1"/>
        <pt x="1366" y="0" on="1"/>
        <pt x="1366" y="61" on="1"/>
        <pt x="1438" y="61" on="1"/>
        <pt x="1542" y="61" on="0"/>
        <pt x="1542" y="147" on="1"/>
        <pt x="1542" y="197" on="0"/>
        <pt x="1501" y="387" on="0"/>
        <pt x="1440" y="614" on="0"/>
        <pt x="1370" y="856" on="0"/>
        <pt x="1343" y="958" on="1"/>
        <pt x="1321" y="1036" on="0"/>
        <pt x="1266" y="1235" on="0"/>
        <pt x="1247" y="1321" on="1"/>
        <pt x="1231" y="1321" on="1"/>
        <pt x="1212" y="1253" on="0"/>
        <pt x="1184" y="1112" on="0"/>
        <pt x="1153" y="940" on="0"/>
        <pt x="1114" y="727" on="0"/>
        <pt x="1087" y="592" on="1"/>
        <pt x="1065" y="479" on="0"/>
        <pt x="1008" y="289" on="0"/>
        <pt x="967" y="190" on="1"/>
        <pt x="922" y="86" on="0"/>
        <pt x="803" y="0" on="0"/>
        <pt x="721" y="0" on="1"/>
        <pt x="655" y="0" on="1"/>
        <pt x="655" y="61" on="1"/>
        <pt x="727" y="61" on="1"/>
        <pt x="831" y="61" on="0"/>
        <pt x="831" y="147" on="1"/>
        <pt x="831" y="195" on="0"/>
        <pt x="795" y="395" on="0"/>
        <pt x="743" y="639" on="0"/>
        <pt x="684" y="895" on="0"/>
        <pt x="662" y="999" on="1"/>
        <pt x="651" y="1047" on="0"/>
        <pt x="621" y="1178" on="0"/>
        <pt x="575" y="1323" on="0"/>
        <pt x="516" y="1470" on="0"/>
        <pt x="479" y="1534" on="1"/>
        <pt x="406" y="1659" on="0"/>
        <pt x="293" y="1659" on="1"/>
        <pt x="209" y="1659" on="0"/>
        <pt x="123" y="1567" on="0"/>
        <pt x="123" y="1497" on="1"/>
        <pt x="123" y="1427" on="0"/>
        <pt x="184" y="1358" on="0"/>
        <pt x="233" y="1358" on="1"/>
        <pt x="274" y="1358" on="0"/>
        <pt x="324" y="1407" on="0"/>
        <pt x="324" y="1446" on="1"/>
        <pt x="324" y="1491" on="0"/>
        <pt x="266" y="1524" on="0"/>
        <pt x="238" y="1524" on="1"/>
        <pt x="238" y="1585" on="1"/>
        <pt x="303" y="1585" on="0"/>
        <pt x="389" y="1513" on="0"/>
        <pt x="389" y="1446" on="1"/>
        <pt x="389" y="1380" on="0"/>
        <pt x="299" y="1296" on="0"/>
        <pt x="233" y="1296" on="1"/>
        <pt x="147" y="1296" on="0"/>
        <pt x="51" y="1403" on="0"/>
        <pt x="51" y="1495" on="1"/>
        <pt x="51" y="1599" on="0"/>
        <pt x="193" y="1720" on="0"/>
        <pt x="297" y="1720" on="1"/>
        <pt x="410" y="1720" on="0"/>
        <pt x="567" y="1614" on="0"/>
        <pt x="684" y="1430" on="0"/>
        <pt x="770" y="1184" on="0"/>
        <pt x="809" y="1042" on="1"/>
        <pt x="850" y="895" on="0"/>
        <pt x="924" y="551" on="0"/>
        <pt x="952" y="375" on="1"/>
        <pt x="969" y="375" on="1"/>
        <pt x="987" y="440" on="0"/>
        <pt x="1014" y="561" on="0"/>
        <pt x="1026" y="627" on="1"/>
        <pt x="1051" y="752" on="0"/>
        <pt x="1094" y="999" on="0"/>
        <pt x="1141" y="1227" on="0"/>
        <pt x="1192" y="1419" on="0"/>
        <pt x="1223" y="1489" on="1"/>
        <pt x="1270" y="1595" on="0"/>
        <pt x="1399" y="1679" on="0"/>
        <pt x="1479" y="1679" on="1"/>
        <pt x="1540" y="1679" on="1"/>
        <pt x="1540" y="1618" on="1"/>
        <pt x="1458" y="1618" on="1"/>
        <pt x="1411" y="1618" on="0"/>
        <pt x="1364" y="1579" on="0"/>
        <pt x="1364" y="1532" on="1"/>
        <pt x="1364" y="1495" on="0"/>
        <pt x="1386" y="1382" on="0"/>
        <pt x="1423" y="1243" on="0"/>
        <pt x="1468" y="1085" on="0"/>
        <pt x="1491" y="1001" on="1"/>
        <pt x="1511" y="922" on="0"/>
        <pt x="1556" y="774" on="0"/>
        <pt x="1599" y="623" on="0"/>
        <pt x="1642" y="465" on="0"/>
        <pt x="1661" y="375" on="1"/>
        <pt x="1677" y="375" on="1"/>
        <pt x="1692" y="440" on="0"/>
        <pt x="1718" y="596" on="0"/>
        <pt x="1731" y="668" on="1"/>
        <pt x="1772" y="918" on="0"/>
        <pt x="1860" y="1335" on="0"/>
        <pt x="1927" y="1473" on="1"/>
        <pt x="1987" y="1591" on="0"/>
        <pt x="2140" y="1679" on="0"/>
        <pt x="2251" y="1679" on="1"/>
        <pt x="2251" y="1618" on="1"/>
        <pt x="2228" y="1618" on="1"/>
        <pt x="2136" y="1618" on="0"/>
        <pt x="2034" y="1540" on="0"/>
      </contour>
    </TTGlyph>
    <TTGlyph name="X" xMin="51" yMin="-41" xMax="1671" yMax="1720">
      <contour>
        <pt x="1262" y="1470" on="1"/>
        <pt x="1214" y="1378" on="0"/>
        <pt x="1141" y="1081" on="0"/>
        <pt x="1098" y="889" on="1"/>
        <pt x="1106" y="848" on="0"/>
        <pt x="1133" y="735" on="0"/>
        <pt x="1165" y="604" on="0"/>
        <pt x="1202" y="463" on="0"/>
        <pt x="1223" y="393" on="1"/>
        <pt x="1247" y="311" on="0"/>
        <pt x="1294" y="174" on="0"/>
        <pt x="1350" y="76" on="0"/>
        <pt x="1419" y="20" on="0"/>
        <pt x="1466" y="20" on="1"/>
        <pt x="1511" y="20" on="0"/>
        <pt x="1565" y="63" on="0"/>
        <pt x="1595" y="131" on="0"/>
        <pt x="1606" y="209" on="0"/>
        <pt x="1606" y="246" on="1"/>
        <pt x="1606" y="311" on="1"/>
        <pt x="1671" y="311" on="1"/>
        <pt x="1671" y="246" on="1"/>
        <pt x="1671" y="123" on="0"/>
        <pt x="1571" y="-41" on="0"/>
        <pt x="1456" y="-41" on="1"/>
        <pt x="1313" y="-41" on="0"/>
        <pt x="1141" y="156" on="0"/>
        <pt x="1081" y="348" on="1"/>
        <pt x="1053" y="438" on="0"/>
        <pt x="1012" y="639" on="0"/>
        <pt x="999" y="709" on="1"/>
        <pt x="979" y="709" on="1"/>
        <pt x="975" y="655" on="0"/>
        <pt x="965" y="469" on="0"/>
        <pt x="930" y="344" on="1"/>
        <pt x="883" y="170" on="0"/>
        <pt x="662" y="-41" on="0"/>
        <pt x="467" y="-41" on="1"/>
        <pt x="373" y="-41" on="0"/>
        <pt x="219" y="23" on="0"/>
        <pt x="111" y="135" on="0"/>
        <pt x="51" y="293" on="0"/>
        <pt x="51" y="389" on="1"/>
        <pt x="51" y="494" on="0"/>
        <pt x="121" y="641" on="0"/>
        <pt x="227" y="733" on="0"/>
        <pt x="352" y="774" on="0"/>
        <pt x="410" y="774" on="1"/>
        <pt x="481" y="774" on="0"/>
        <pt x="594" y="731" on="0"/>
        <pt x="670" y="653" on="0"/>
        <pt x="711" y="551" on="0"/>
        <pt x="711" y="494" on="1"/>
        <pt x="711" y="453" on="0"/>
        <pt x="686" y="365" on="0"/>
        <pt x="633" y="293" on="0"/>
        <pt x="549" y="246" on="0"/>
        <pt x="492" y="246" on="1"/>
        <pt x="375" y="246" on="0"/>
        <pt x="283" y="395" on="0"/>
        <pt x="283" y="506" on="1"/>
        <pt x="348" y="506" on="1"/>
        <pt x="348" y="467" on="0"/>
        <pt x="360" y="395" on="0"/>
        <pt x="393" y="340" on="0"/>
        <pt x="449" y="307" on="0"/>
        <pt x="492" y="307" on="1"/>
        <pt x="551" y="307" on="0"/>
        <pt x="645" y="395" on="0"/>
        <pt x="645" y="494" on="1"/>
        <pt x="645" y="596" on="0"/>
        <pt x="512" y="713" on="0"/>
        <pt x="410" y="713" on="1"/>
        <pt x="354" y="713" on="0"/>
        <pt x="250" y="678" on="0"/>
        <pt x="168" y="600" on="0"/>
        <pt x="117" y="477" on="0"/>
        <pt x="117" y="389" on="1"/>
        <pt x="117" y="285" on="0"/>
        <pt x="188" y="143" on="0"/>
        <pt x="297" y="57" on="0"/>
        <pt x="420" y="20" on="0"/>
        <pt x="471" y="20" on="1"/>
        <pt x="569" y="20" on="0"/>
        <pt x="713" y="88" on="0"/>
        <pt x="811" y="207" on="0"/>
        <pt x="872" y="371" on="0"/>
        <pt x="909" y="563" on="0"/>
        <pt x="928" y="778" on="0"/>
        <pt x="934" y="889" on="1"/>
        <pt x="928" y="932" on="0"/>
        <pt x="903" y="1065" on="0"/>
        <pt x="866" y="1219" on="0"/>
        <pt x="817" y="1376" on="0"/>
        <pt x="786" y="1440" on="1"/>
        <pt x="764" y="1487" on="0"/>
        <pt x="717" y="1567" on="0"/>
        <pt x="659" y="1626" on="0"/>
        <pt x="586" y="1659" on="0"/>
        <pt x="539" y="1659" on="1"/>
        <pt x="455" y="1659" on="0"/>
        <pt x="369" y="1567" on="0"/>
        <pt x="369" y="1497" on="1"/>
        <pt x="369" y="1427" on="0"/>
        <pt x="430" y="1358" on="0"/>
        <pt x="479" y="1358" on="1"/>
        <pt x="520" y="1358" on="0"/>
        <pt x="569" y="1407" on="0"/>
        <pt x="569" y="1446" on="1"/>
        <pt x="569" y="1491" on="0"/>
        <pt x="512" y="1524" on="0"/>
        <pt x="483" y="1524" on="1"/>
        <pt x="483" y="1585" on="1"/>
        <pt x="549" y="1585" on="0"/>
        <pt x="635" y="1513" on="0"/>
        <pt x="635" y="1446" on="1"/>
        <pt x="635" y="1380" on="0"/>
        <pt x="545" y="1296" on="0"/>
        <pt x="479" y="1296" on="1"/>
        <pt x="393" y="1296" on="0"/>
        <pt x="303" y="1403" on="0"/>
        <pt x="303" y="1495" on="1"/>
        <pt x="303" y="1599" on="0"/>
        <pt x="438" y="1720" on="0"/>
        <pt x="543" y="1720" on="1"/>
        <pt x="778" y="1720" on="0"/>
        <pt x="901" y="1487" on="1"/>
        <pt x="946" y="1401" on="0"/>
        <pt x="1010" y="1198" on="0"/>
        <pt x="1051" y="1047" on="1"/>
        <pt x="1071" y="1047" on="1"/>
        <pt x="1102" y="1192" on="0"/>
        <pt x="1157" y="1393" on="0"/>
        <pt x="1194" y="1473" on="1"/>
        <pt x="1249" y="1591" on="0"/>
        <pt x="1401" y="1679" on="0"/>
        <pt x="1511" y="1679" on="1"/>
        <pt x="1511" y="1618" on="1"/>
        <pt x="1489" y="1618" on="1"/>
        <pt x="1397" y="1618" on="0"/>
        <pt x="1296" y="1540" on="0"/>
      </contour>
    </TTGlyph>
    <TTGlyph name="Y" xMin="57" yMin="-41" xMax="1493" yMax="1720">
      <contour>
        <pt x="1180" y="1473" on="1"/>
        <pt x="1231" y="1593" on="0"/>
        <pt x="1382" y="1679" on="0"/>
        <pt x="1493" y="1679" on="1"/>
        <pt x="1493" y="1618" on="1"/>
        <pt x="1470" y="1618" on="1"/>
        <pt x="1380" y="1618" on="0"/>
        <pt x="1280" y="1540" on="0"/>
        <pt x="1249" y="1470" on="1"/>
        <pt x="1221" y="1409" on="0"/>
        <pt x="1176" y="1229" on="0"/>
        <pt x="1133" y="1012" on="0"/>
        <pt x="1092" y="772" on="0"/>
        <pt x="1069" y="651" on="1"/>
        <pt x="1042" y="510" on="0"/>
        <pt x="961" y="258" on="0"/>
        <pt x="823" y="70" on="0"/>
        <pt x="621" y="-41" on="0"/>
        <pt x="473" y="-41" on="1"/>
        <pt x="379" y="-41" on="0"/>
        <pt x="225" y="23" on="0"/>
        <pt x="117" y="135" on="0"/>
        <pt x="57" y="293" on="0"/>
        <pt x="57" y="389" on="1"/>
        <pt x="57" y="494" on="0"/>
        <pt x="127" y="641" on="0"/>
        <pt x="233" y="733" on="0"/>
        <pt x="358" y="774" on="0"/>
        <pt x="416" y="774" on="1"/>
        <pt x="487" y="774" on="0"/>
        <pt x="600" y="731" on="0"/>
        <pt x="676" y="653" on="0"/>
        <pt x="717" y="551" on="0"/>
        <pt x="717" y="494" on="1"/>
        <pt x="717" y="453" on="0"/>
        <pt x="692" y="365" on="0"/>
        <pt x="639" y="293" on="0"/>
        <pt x="555" y="246" on="0"/>
        <pt x="498" y="246" on="1"/>
        <pt x="381" y="246" on="0"/>
        <pt x="289" y="395" on="0"/>
        <pt x="289" y="506" on="1"/>
        <pt x="354" y="506" on="1"/>
        <pt x="354" y="467" on="0"/>
        <pt x="367" y="395" on="0"/>
        <pt x="399" y="340" on="0"/>
        <pt x="455" y="307" on="0"/>
        <pt x="498" y="307" on="1"/>
        <pt x="557" y="307" on="0"/>
        <pt x="651" y="395" on="0"/>
        <pt x="651" y="494" on="1"/>
        <pt x="651" y="596" on="0"/>
        <pt x="518" y="713" on="0"/>
        <pt x="416" y="713" on="1"/>
        <pt x="360" y="713" on="0"/>
        <pt x="256" y="678" on="0"/>
        <pt x="174" y="600" on="0"/>
        <pt x="123" y="477" on="0"/>
        <pt x="123" y="389" on="1"/>
        <pt x="123" y="285" on="0"/>
        <pt x="195" y="143" on="0"/>
        <pt x="303" y="57" on="0"/>
        <pt x="426" y="20" on="0"/>
        <pt x="477" y="20" on="1"/>
        <pt x="590" y="20" on="0"/>
        <pt x="793" y="119" on="0"/>
        <pt x="868" y="258" on="1"/>
        <pt x="856" y="319" on="0"/>
        <pt x="801" y="549" on="0"/>
        <pt x="731" y="821" on="0"/>
        <pt x="655" y="1102" on="0"/>
        <pt x="625" y="1212" on="1"/>
        <pt x="600" y="1298" on="0"/>
        <pt x="535" y="1483" on="0"/>
        <pt x="489" y="1550" on="1"/>
        <pt x="457" y="1599" on="0"/>
        <pt x="365" y="1659" on="0"/>
        <pt x="305" y="1659" on="1"/>
        <pt x="221" y="1659" on="0"/>
        <pt x="137" y="1567" on="0"/>
        <pt x="137" y="1497" on="1"/>
        <pt x="137" y="1427" on="0"/>
        <pt x="199" y="1358" on="0"/>
        <pt x="248" y="1358" on="1"/>
        <pt x="289" y="1358" on="0"/>
        <pt x="338" y="1407" on="0"/>
        <pt x="338" y="1446" on="1"/>
        <pt x="338" y="1491" on="0"/>
        <pt x="281" y="1524" on="0"/>
        <pt x="252" y="1524" on="1"/>
        <pt x="252" y="1585" on="1"/>
        <pt x="317" y="1585" on="0"/>
        <pt x="403" y="1513" on="0"/>
        <pt x="403" y="1446" on="1"/>
        <pt x="403" y="1380" on="0"/>
        <pt x="313" y="1296" on="0"/>
        <pt x="248" y="1296" on="1"/>
        <pt x="162" y="1296" on="0"/>
        <pt x="72" y="1403" on="0"/>
        <pt x="72" y="1495" on="1"/>
        <pt x="72" y="1599" on="0"/>
        <pt x="207" y="1720" on="0"/>
        <pt x="311" y="1720" on="1"/>
        <pt x="393" y="1720" on="0"/>
        <pt x="518" y="1669" on="0"/>
        <pt x="569" y="1612" on="1"/>
        <pt x="629" y="1546" on="0"/>
        <pt x="713" y="1362" on="0"/>
        <pt x="748" y="1262" on="1"/>
        <pt x="807" y="1085" on="0"/>
        <pt x="913" y="694" on="0"/>
        <pt x="954" y="508" on="1"/>
        <pt x="975" y="508" on="1"/>
        <pt x="999" y="625" on="0"/>
        <pt x="1044" y="895" on="0"/>
        <pt x="1092" y="1159" on="0"/>
        <pt x="1145" y="1393" on="0"/>
      </contour>
    </TTGlyph>
    <TTGlyph name="Yacute" xMin="57" yMin="-41" xMax="1493" yMax="2058">
      <component glyphName="Y" x="0" y="0" flags="0x204"/>
      <component glyphName="acute" x="770" y="860" flags="0x4"/>
    </TTGlyph>
    <TTGlyph name="Ydieresis" xMin="57" yMin="-41" xMax="1493" yMax="1999">
      <component glyphName="Y" x="0" y="0" flags="0x204"/>
      <component glyphName="dieresis" x="682" y="860" flags="0x4"/>
    </TTGlyph>
    <TTGlyph name="Z" xMin="51" yMin="-41" xMax="1507" yMax="1679">
      <contour>
        <pt x="1507" y="416" on="1"/>
        <pt x="1507" y="205" on="0"/>
        <pt x="1268" y="-41" on="0"/>
        <pt x="1036" y="-41" on="1"/>
        <pt x="907" y="-41" on="0"/>
        <pt x="702" y="45" on="0"/>
        <pt x="610" y="104" on="1"/>
        <pt x="555" y="35" on="0"/>
        <pt x="406" y="-41" on="0"/>
        <pt x="307" y="-41" on="1"/>
        <pt x="225" y="-41" on="0"/>
        <pt x="125" y="-4" on="0"/>
        <pt x="70" y="55" on="0"/>
        <pt x="51" y="125" on="0"/>
        <pt x="51" y="156" on="1"/>
        <pt x="51" y="223" on="0"/>
        <pt x="150" y="322" on="0"/>
        <pt x="248" y="322" on="1"/>
        <pt x="346" y="322" on="0"/>
        <pt x="520" y="260" on="0"/>
        <pt x="612" y="219" on="1"/>
        <pt x="649" y="285" on="0"/>
        <pt x="705" y="444" on="0"/>
        <pt x="743" y="612" on="0"/>
        <pt x="772" y="782" on="0"/>
        <pt x="782" y="860" on="1"/>
        <pt x="590" y="860" on="1"/>
        <pt x="590" y="922" on="1"/>
        <pt x="791" y="922" on="1"/>
        <pt x="813" y="1083" on="0"/>
        <pt x="864" y="1298" on="0"/>
        <pt x="899" y="1378" on="1"/>
        <pt x="915" y="1415" on="0"/>
        <pt x="965" y="1493" on="0"/>
        <pt x="1006" y="1522" on="1"/>
        <pt x="1006" y="1542" on="1"/>
        <pt x="956" y="1554" on="0"/>
        <pt x="836" y="1563" on="0"/>
        <pt x="791" y="1563" on="1"/>
        <pt x="573" y="1563" on="0"/>
        <pt x="328" y="1395" on="0"/>
        <pt x="328" y="1204" on="1"/>
        <pt x="328" y="1135" on="0"/>
        <pt x="389" y="1061" on="0"/>
        <pt x="438" y="1061" on="1"/>
        <pt x="479" y="1061" on="0"/>
        <pt x="528" y="1110" on="0"/>
        <pt x="528" y="1149" on="1"/>
        <pt x="528" y="1194" on="0"/>
        <pt x="471" y="1227" on="0"/>
        <pt x="442" y="1227" on="1"/>
        <pt x="442" y="1288" on="1"/>
        <pt x="508" y="1288" on="0"/>
        <pt x="594" y="1217" on="0"/>
        <pt x="594" y="1149" on="1"/>
        <pt x="594" y="1083" on="0"/>
        <pt x="506" y="999" on="0"/>
        <pt x="440" y="999" on="1"/>
        <pt x="354" y="999" on="0"/>
        <pt x="262" y="1108" on="0"/>
        <pt x="262" y="1200" on="1"/>
        <pt x="262" y="1331" on="0"/>
        <pt x="379" y="1513" on="0"/>
        <pt x="475" y="1571" on="1"/>
        <pt x="586" y="1636" on="0"/>
        <pt x="868" y="1679" on="0"/>
        <pt x="1049" y="1679" on="1"/>
        <pt x="1294" y="1679" on="1"/>
        <pt x="1294" y="1618" on="1"/>
        <pt x="1229" y="1618" on="0"/>
        <pt x="1126" y="1573" on="0"/>
        <pt x="1044" y="1501" on="0"/>
        <pt x="983" y="1407" on="0"/>
        <pt x="963" y="1358" on="1"/>
        <pt x="928" y="1280" on="0"/>
        <pt x="881" y="1075" on="0"/>
        <pt x="858" y="922" on="1"/>
        <pt x="1049" y="922" on="1"/>
        <pt x="1049" y="860" on="1"/>
        <pt x="848" y="860" on="1"/>
        <pt x="836" y="778" on="0"/>
        <pt x="807" y="602" on="0"/>
        <pt x="766" y="428" on="0"/>
        <pt x="711" y="264" on="0"/>
        <pt x="672" y="195" on="1"/>
        <pt x="762" y="156" on="0"/>
        <pt x="952" y="98" on="0"/>
        <pt x="1067" y="98" on="1"/>
        <pt x="1141" y="98" on="0"/>
        <pt x="1276" y="135" on="0"/>
        <pt x="1380" y="213" on="0"/>
        <pt x="1442" y="332" on="0"/>
        <pt x="1442" y="414" on="1"/>
        <pt x="1442" y="498" on="0"/>
        <pt x="1395" y="612" on="0"/>
        <pt x="1315" y="682" on="0"/>
        <pt x="1212" y="713" on="0"/>
        <pt x="1157" y="713" on="1"/>
        <pt x="1051" y="713" on="0"/>
        <pt x="913" y="594" on="0"/>
        <pt x="913" y="492" on="1"/>
        <pt x="913" y="393" on="0"/>
        <pt x="1008" y="307" on="0"/>
        <pt x="1067" y="307" on="1"/>
        <pt x="1110" y="307" on="0"/>
        <pt x="1165" y="340" on="0"/>
        <pt x="1198" y="395" on="0"/>
        <pt x="1210" y="467" on="0"/>
        <pt x="1210" y="506" on="1"/>
        <pt x="1276" y="506" on="1"/>
        <pt x="1276" y="395" on="0"/>
        <pt x="1180" y="246" on="0"/>
        <pt x="1067" y="246" on="1"/>
        <pt x="1008" y="246" on="0"/>
        <pt x="926" y="287" on="0"/>
        <pt x="872" y="354" on="0"/>
        <pt x="848" y="444" on="0"/>
        <pt x="848" y="492" on="1"/>
        <pt x="848" y="549" on="0"/>
        <pt x="891" y="651" on="0"/>
        <pt x="973" y="729" on="0"/>
        <pt x="1087" y="774" on="0"/>
        <pt x="1159" y="774" on="1"/>
        <pt x="1227" y="774" on="0"/>
        <pt x="1352" y="733" on="0"/>
        <pt x="1448" y="647" on="0"/>
        <pt x="1507" y="510" on="0"/>
      </contour>
      <contour>
        <pt x="242" y="260" on="1"/>
        <pt x="188" y="260" on="0"/>
        <pt x="117" y="209" on="0"/>
        <pt x="117" y="156" on="1"/>
        <pt x="117" y="90" on="0"/>
        <pt x="209" y="20" on="0"/>
        <pt x="313" y="20" on="1"/>
        <pt x="391" y="20" on="0"/>
        <pt x="508" y="84" on="0"/>
        <pt x="555" y="137" on="1"/>
        <pt x="475" y="186" on="0"/>
        <pt x="324" y="260" on="0"/>
      </contour>
    </TTGlyph>
    <TTGlyph name="Zcaron" xMin="51" yMin="-41" xMax="1507" yMax="2044">
      <component glyphName="Z" x="0" y="0" flags="0x204"/>
      <component glyphName="caron" x="614" y="860" flags="0x4"/>
    </TTGlyph>
    <TTGlyph name="a" xMin="51" yMin="-41" xMax="991" yMax="860">
      <contour>
        <pt x="379" y="860" on="1"/>
        <pt x="535" y="860" on="0"/>
        <pt x="707" y="625" on="0"/>
        <pt x="707" y="358" on="1"/>
        <pt x="707" y="293" on="0"/>
        <pt x="711" y="172" on="0"/>
        <pt x="731" y="78" on="0"/>
        <pt x="780" y="20" on="0"/>
        <pt x="823" y="20" on="1"/>
        <pt x="858" y="20" on="0"/>
        <pt x="899" y="63" on="0"/>
        <pt x="920" y="125" on="0"/>
        <pt x="926" y="195" on="0"/>
        <pt x="926" y="223" on="1"/>
        <pt x="926" y="311" on="1"/>
        <pt x="991" y="311" on="1"/>
        <pt x="991" y="225" on="1"/>
        <pt x="991" y="168" on="0"/>
        <pt x="975" y="70" on="0"/>
        <pt x="932" y="0" on="0"/>
        <pt x="858" y="-41" on="0"/>
        <pt x="801" y="-41" on="1"/>
        <pt x="715" y="-41" on="0"/>
        <pt x="610" y="55" on="0"/>
        <pt x="594" y="141" on="1"/>
        <pt x="573" y="141" on="1"/>
        <pt x="555" y="70" on="0"/>
        <pt x="446" y="-41" on="0"/>
        <pt x="354" y="-41" on="1"/>
        <pt x="272" y="-41" on="0"/>
        <pt x="158" y="31" on="0"/>
        <pt x="84" y="154" on="0"/>
        <pt x="51" y="315" on="0"/>
        <pt x="51" y="408" on="1"/>
        <pt x="51" y="625" on="0"/>
        <pt x="225" y="860" on="0"/>
      </contour>
      <contour>
        <pt x="379" y="799" on="1"/>
        <pt x="184" y="799" on="0"/>
        <pt x="184" y="412" on="1"/>
        <pt x="184" y="219" on="0"/>
        <pt x="281" y="20" on="0"/>
        <pt x="379" y="20" on="1"/>
        <pt x="475" y="20" on="0"/>
        <pt x="573" y="217" on="0"/>
        <pt x="573" y="408" on="1"/>
        <pt x="573" y="600" on="0"/>
        <pt x="475" y="799" on="0"/>
      </contour>
    </TTGlyph>
    <TTGlyph name="aacute" xMin="51" yMin="-41" xMax="991" yMax="1198">
      <component glyphName="a" x="0" y="0" flags="0x204"/>
      <component glyphName="acute" x="299" y="0" flags="0x4"/>
    </TTGlyph>
    <TTGlyph name="acircumflex" xMin="51" yMin="-41" xMax="991" yMax="1154">
      <component glyphName="a" x="0" y="0" flags="0x204"/>
      <component glyphName="circumflex" x="162" y="-30" flags="0x4"/>
    </TTGlyph>
    <TTGlyph name="acute" xMin="57" yMin="905" xMax="395" yMax="1198">
      <contour>
        <pt x="395" y="1151" on="1"/>
        <pt x="94" y="905" on="1"/>
        <pt x="57" y="952" on="1"/>
        <pt x="358" y="1198" on="1"/>
      </contour>
    </TTGlyph>
    <TTGlyph name="adieresis" xMin="51" yMin="-41" xMax="991" yMax="1139">
      <component glyphName="a" x="0" y="0" flags="0x204"/>
      <component glyphName="dieresis" x="156" y="0" flags="0x4"/>
    </TTGlyph>
    <TTGlyph name="ae" xMin="51" yMin="-41" xMax="1182" yMax="860">
      <contour>
        <pt x="696" y="819" on="1"/>
        <pt x="696" y="733" on="1"/>
        <pt x="717" y="733" on="1"/>
        <pt x="743" y="793" on="0"/>
        <pt x="852" y="860" on="0"/>
        <pt x="926" y="860" on="1"/>
        <pt x="987" y="860" on="0"/>
        <pt x="1077" y="817" on="0"/>
        <pt x="1137" y="745" on="0"/>
        <pt x="1165" y="649" on="0"/>
        <pt x="1165" y="598" on="1"/>
        <pt x="1165" y="520" on="0"/>
        <pt x="1110" y="399" on="0"/>
        <pt x="1008" y="317" on="0"/>
        <pt x="868" y="276" on="0"/>
        <pt x="784" y="276" on="1"/>
        <pt x="702" y="276" on="1"/>
        <pt x="709" y="231" on="0"/>
        <pt x="733" y="141" on="0"/>
        <pt x="778" y="68" on="0"/>
        <pt x="852" y="20" on="0"/>
        <pt x="907" y="20" on="1"/>
        <pt x="971" y="20" on="0"/>
        <pt x="1051" y="74" on="0"/>
        <pt x="1098" y="158" on="0"/>
        <pt x="1116" y="262" on="0"/>
        <pt x="1116" y="311" on="1"/>
        <pt x="1182" y="311" on="1"/>
        <pt x="1182" y="242" on="0"/>
        <pt x="1151" y="115" on="0"/>
        <pt x="1083" y="16" on="0"/>
        <pt x="975" y="-41" on="0"/>
        <pt x="897" y="-41" on="1"/>
        <pt x="809" y="-41" on="0"/>
        <pt x="643" y="37" on="0"/>
        <pt x="594" y="141" on="1"/>
        <pt x="573" y="141" on="1"/>
        <pt x="555" y="66" on="0"/>
        <pt x="442" y="-41" on="0"/>
        <pt x="356" y="-41" on="1"/>
        <pt x="203" y="-41" on="0"/>
        <pt x="51" y="195" on="0"/>
        <pt x="51" y="410" on="1"/>
        <pt x="51" y="625" on="0"/>
        <pt x="215" y="860" on="0"/>
        <pt x="352" y="860" on="1"/>
        <pt x="420" y="860" on="0"/>
        <pt x="524" y="795" on="0"/>
        <pt x="553" y="733" on="1"/>
        <pt x="573" y="733" on="1"/>
        <pt x="573" y="819" on="1"/>
      </contour>
      <contour>
        <pt x="379" y="799" on="1"/>
        <pt x="184" y="799" on="0"/>
        <pt x="184" y="412" on="1"/>
        <pt x="184" y="219" on="0"/>
        <pt x="281" y="20" on="0"/>
        <pt x="379" y="20" on="1"/>
        <pt x="475" y="20" on="0"/>
        <pt x="573" y="217" on="0"/>
        <pt x="573" y="408" on="1"/>
        <pt x="573" y="600" on="0"/>
        <pt x="475" y="799" on="0"/>
      </contour>
      <contour>
        <pt x="696" y="338" on="1"/>
        <pt x="772" y="338" on="1"/>
        <pt x="885" y="338" on="0"/>
        <pt x="1032" y="465" on="0"/>
        <pt x="1032" y="588" on="1"/>
        <pt x="1032" y="625" on="0"/>
        <pt x="1020" y="700" on="0"/>
        <pt x="989" y="762" on="0"/>
        <pt x="932" y="799" on="0"/>
        <pt x="889" y="799" on="1"/>
        <pt x="827" y="799" on="0"/>
        <pt x="754" y="729" on="0"/>
        <pt x="711" y="618" on="0"/>
        <pt x="696" y="479" on="0"/>
        <pt x="696" y="410" on="1"/>
      </contour>
    </TTGlyph>
    <TTGlyph name="agrave" xMin="51" yMin="-41" xMax="991" yMax="1202">
      <component glyphName="a" x="0" y="0" flags="0x204"/>
      <component glyphName="grave" x="55" y="0" flags="0x4"/>
    </TTGlyph>
    <TTGlyph name="ampersand" xMin="51" yMin="-41" xMax="1286" yMax="1720">
      <contour>
        <pt x="1071" y="-41" on="1"/>
        <pt x="1004" y="-41" on="0"/>
        <pt x="883" y="6" on="0"/>
        <pt x="827" y="49" on="1"/>
        <pt x="774" y="6" on="0"/>
        <pt x="637" y="-41" on="0"/>
        <pt x="557" y="-41" on="1"/>
        <pt x="461" y="-41" on="0"/>
        <pt x="279" y="10" on="0"/>
        <pt x="137" y="123" on="0"/>
        <pt x="51" y="303" on="0"/>
        <pt x="51" y="434" on="1"/>
        <pt x="51" y="522" on="0"/>
        <pt x="88" y="670" on="0"/>
        <pt x="154" y="797" on="0"/>
        <pt x="248" y="911" on="0"/>
        <pt x="305" y="967" on="1"/>
        <pt x="281" y="1059" on="0"/>
        <pt x="254" y="1231" on="0"/>
        <pt x="254" y="1311" on="1"/>
        <pt x="254" y="1403" on="0"/>
        <pt x="303" y="1552" on="0"/>
        <pt x="395" y="1661" on="0"/>
        <pt x="526" y="1720" on="0"/>
        <pt x="610" y="1720" on="1"/>
        <pt x="702" y="1720" on="0"/>
        <pt x="815" y="1618" on="0"/>
        <pt x="815" y="1530" on="1"/>
        <pt x="815" y="1487" on="0"/>
        <pt x="795" y="1399" on="0"/>
        <pt x="731" y="1294" on="0"/>
        <pt x="616" y="1159" on="0"/>
        <pt x="522" y="1067" on="1"/>
        <pt x="498" y="1042" on="0"/>
        <pt x="453" y="995" on="0"/>
        <pt x="432" y="973" on="1"/>
        <pt x="451" y="920" on="0"/>
        <pt x="496" y="813" on="0"/>
        <pt x="522" y="758" on="1"/>
        <pt x="575" y="774" on="0"/>
        <pt x="629" y="774" on="1"/>
        <pt x="696" y="774" on="0"/>
        <pt x="821" y="731" on="0"/>
        <pt x="920" y="639" on="0"/>
        <pt x="979" y="492" on="0"/>
        <pt x="979" y="389" on="1"/>
        <pt x="979" y="236" on="0"/>
        <pt x="903" y="129" on="1"/>
        <pt x="950" y="76" on="0"/>
        <pt x="1034" y="20" on="0"/>
        <pt x="1081" y="20" on="1"/>
        <pt x="1126" y="20" on="0"/>
        <pt x="1180" y="63" on="0"/>
        <pt x="1210" y="131" on="0"/>
        <pt x="1221" y="209" on="0"/>
        <pt x="1221" y="246" on="1"/>
        <pt x="1221" y="311" on="1"/>
        <pt x="1286" y="311" on="1"/>
        <pt x="1286" y="246" on="1"/>
        <pt x="1286" y="123" on="0"/>
        <pt x="1186" y="-41" on="0"/>
      </contour>
      <contour>
        <pt x="319" y="492" on="1"/>
        <pt x="319" y="547" on="0"/>
        <pt x="360" y="647" on="0"/>
        <pt x="401" y="686" on="1"/>
        <pt x="383" y="727" on="0"/>
        <pt x="352" y="813" on="0"/>
        <pt x="338" y="854" on="1"/>
        <pt x="272" y="762" on="0"/>
        <pt x="205" y="561" on="0"/>
        <pt x="205" y="438" on="1"/>
        <pt x="205" y="229" on="0"/>
        <pt x="399" y="20" on="0"/>
        <pt x="555" y="20" on="1"/>
        <pt x="610" y="20" on="0"/>
        <pt x="729" y="51" on="0"/>
        <pt x="780" y="90" on="1"/>
        <pt x="709" y="160" on="0"/>
        <pt x="635" y="264" on="1"/>
        <pt x="594" y="246" on="0"/>
        <pt x="539" y="246" on="1"/>
        <pt x="479" y="246" on="0"/>
        <pt x="397" y="287" on="0"/>
        <pt x="344" y="354" on="0"/>
        <pt x="319" y="444" on="0"/>
      </contour>
      <contour>
        <pt x="362" y="1313" on="1"/>
        <pt x="362" y="1196" on="0"/>
        <pt x="403" y="1057" on="1"/>
        <pt x="420" y="1069" on="0"/>
        <pt x="428" y="1077" on="1"/>
        <pt x="520" y="1157" on="0"/>
        <pt x="643" y="1288" on="0"/>
        <pt x="719" y="1397" on="0"/>
        <pt x="750" y="1489" on="0"/>
        <pt x="750" y="1532" on="1"/>
        <pt x="750" y="1589" on="0"/>
        <pt x="680" y="1659" on="0"/>
        <pt x="612" y="1659" on="1"/>
        <pt x="547" y="1659" on="0"/>
        <pt x="453" y="1606" on="0"/>
        <pt x="391" y="1513" on="0"/>
        <pt x="362" y="1386" on="0"/>
      </contour>
      <contour>
        <pt x="723" y="395" on="1"/>
        <pt x="762" y="330" on="0"/>
        <pt x="829" y="223" on="0"/>
        <pt x="862" y="180" on="1"/>
        <pt x="885" y="221" on="0"/>
        <pt x="913" y="324" on="0"/>
        <pt x="913" y="389" on="1"/>
        <pt x="913" y="477" on="0"/>
        <pt x="866" y="600" on="0"/>
        <pt x="786" y="678" on="0"/>
        <pt x="684" y="713" on="0"/>
        <pt x="629" y="713" on="1"/>
        <pt x="590" y="713" on="0"/>
        <pt x="549" y="702" on="1"/>
        <pt x="590" y="625" on="0"/>
        <pt x="676" y="471" on="0"/>
      </contour>
      <contour>
        <pt x="539" y="307" on="1"/>
        <pt x="571" y="307" on="0"/>
        <pt x="598" y="317" on="1"/>
        <pt x="563" y="375" on="1"/>
        <pt x="526" y="432" on="0"/>
        <pt x="459" y="559" on="0"/>
        <pt x="428" y="625" on="1"/>
        <pt x="385" y="571" on="0"/>
        <pt x="385" y="492" on="1"/>
        <pt x="385" y="393" on="0"/>
        <pt x="479" y="307" on="0"/>
      </contour>
    </TTGlyph>
    <TTGlyph name="aring" xMin="51" yMin="-41" xMax="991" yMax="1200">
      <component glyphName="a" x="0" y="0" flags="0x204"/>
      <component glyphName="ring" x="154" y="0" flags="0x4"/>
    </TTGlyph>
    <TTGlyph name="asciicircum" xMin="63" yMin="1206" xMax="750" yMax="1679">
      <contour>
        <pt x="442" y="1679" on="1"/>
        <pt x="750" y="1245" on="1"/>
        <pt x="694" y="1206" on="1"/>
        <pt x="403" y="1616" on="1"/>
        <pt x="113" y="1206" on="1"/>
        <pt x="63" y="1243" on="1"/>
        <pt x="373" y="1679" on="1"/>
      </contour>
    </TTGlyph>
    <TTGlyph name="asciitilde" xMin="41" yMin="504" xMax="573" yMax="659">
      <contour>
        <pt x="432" y="504" on="1"/>
        <pt x="393" y="504" on="0"/>
        <pt x="330" y="532" on="0"/>
        <pt x="272" y="569" on="0"/>
        <pt x="217" y="598" on="0"/>
        <pt x="186" y="598" on="1"/>
        <pt x="150" y="598" on="0"/>
        <pt x="109" y="541" on="0"/>
        <pt x="106" y="504" on="1"/>
        <pt x="41" y="504" on="1"/>
        <pt x="45" y="569" on="0"/>
        <pt x="127" y="659" on="0"/>
        <pt x="186" y="659" on="1"/>
        <pt x="227" y="659" on="0"/>
        <pt x="293" y="631" on="0"/>
        <pt x="352" y="594" on="0"/>
        <pt x="403" y="565" on="0"/>
        <pt x="432" y="565" on="1"/>
        <pt x="469" y="565" on="0"/>
        <pt x="506" y="623" on="0"/>
        <pt x="508" y="659" on="1"/>
        <pt x="573" y="659" on="1"/>
        <pt x="569" y="594" on="0"/>
        <pt x="494" y="504" on="0"/>
      </contour>
    </TTGlyph>
    <TTGlyph name="asterisk" xMin="51" yMin="1159" xMax="612" yMax="1720">
      <contour>
        <pt x="453" y="1423" on="1"/>
        <pt x="449" y="1393" on="0"/>
        <pt x="430" y="1366" on="1"/>
        <pt x="553" y="1262" on="1"/>
        <pt x="512" y="1217" on="1"/>
        <pt x="403" y="1341" on="1"/>
        <pt x="377" y="1325" on="0"/>
        <pt x="348" y="1319" on="1"/>
        <pt x="362" y="1159" on="1"/>
        <pt x="297" y="1159" on="1"/>
        <pt x="311" y="1319" on="1"/>
        <pt x="276" y="1325" on="0"/>
        <pt x="256" y="1343" on="1"/>
        <pt x="147" y="1217" on="1"/>
        <pt x="106" y="1262" on="1"/>
        <pt x="231" y="1370" on="1"/>
        <pt x="213" y="1399" on="0"/>
        <pt x="211" y="1425" on="1"/>
        <pt x="51" y="1409" on="1"/>
        <pt x="51" y="1470" on="1"/>
        <pt x="211" y="1454" on="1"/>
        <pt x="213" y="1481" on="0"/>
        <pt x="231" y="1509" on="1"/>
        <pt x="106" y="1618" on="1"/>
        <pt x="147" y="1663" on="1"/>
        <pt x="256" y="1536" on="1"/>
        <pt x="276" y="1554" on="0"/>
        <pt x="311" y="1561" on="1"/>
        <pt x="297" y="1720" on="1"/>
        <pt x="362" y="1720" on="1"/>
        <pt x="348" y="1561" on="1"/>
        <pt x="379" y="1556" on="0"/>
        <pt x="406" y="1538" on="1"/>
        <pt x="512" y="1663" on="1"/>
        <pt x="553" y="1618" on="1"/>
        <pt x="430" y="1511" on="1"/>
        <pt x="451" y="1485" on="0"/>
        <pt x="453" y="1454" on="1"/>
        <pt x="612" y="1470" on="1"/>
        <pt x="612" y="1409" on="1"/>
      </contour>
    </TTGlyph>
    <TTGlyph name="at" xMin="51" yMin="-487" xMax="1587" yMax="1321">
      <contour>
        <pt x="772" y="-487" on="1"/>
        <pt x="631" y="-487" on="0"/>
        <pt x="369" y="-381" on="0"/>
        <pt x="170" y="-154" on="0"/>
        <pt x="51" y="201" on="0"/>
        <pt x="51" y="449" on="1"/>
        <pt x="51" y="631" on="0"/>
        <pt x="152" y="948" on="0"/>
        <pt x="344" y="1186" on="0"/>
        <pt x="627" y="1321" on="0"/>
        <pt x="809" y="1321" on="1"/>
        <pt x="1001" y="1321" on="0"/>
        <pt x="1294" y="1186" on="0"/>
        <pt x="1489" y="948" on="0"/>
        <pt x="1587" y="631" on="0"/>
        <pt x="1587" y="449" on="1"/>
        <pt x="1587" y="197" on="0"/>
        <pt x="1419" y="-41" on="0"/>
        <pt x="1282" y="-41" on="1"/>
        <pt x="1241" y="-41" on="0"/>
        <pt x="1161" y="-25" on="0"/>
        <pt x="1092" y="18" on="0"/>
        <pt x="1038" y="88" on="0"/>
        <pt x="1024" y="141" on="1"/>
        <pt x="1004" y="141" on="1"/>
        <pt x="985" y="70" on="0"/>
        <pt x="877" y="-41" on="0"/>
        <pt x="784" y="-41" on="1"/>
        <pt x="700" y="-41" on="0"/>
        <pt x="586" y="31" on="0"/>
        <pt x="514" y="154" on="0"/>
        <pt x="481" y="315" on="0"/>
        <pt x="481" y="408" on="1"/>
        <pt x="481" y="625" on="0"/>
        <pt x="655" y="860" on="0"/>
        <pt x="809" y="860" on="1"/>
        <pt x="965" y="860" on="0"/>
        <pt x="1137" y="627" on="0"/>
        <pt x="1137" y="358" on="1"/>
        <pt x="1137" y="279" on="0"/>
        <pt x="1143" y="176" on="0"/>
        <pt x="1153" y="139" on="1"/>
        <pt x="1184" y="20" on="0"/>
        <pt x="1296" y="20" on="1"/>
        <pt x="1348" y="20" on="0"/>
        <pt x="1430" y="68" on="0"/>
        <pt x="1489" y="170" on="0"/>
        <pt x="1522" y="332" on="0"/>
        <pt x="1522" y="449" on="1"/>
        <pt x="1522" y="618" on="0"/>
        <pt x="1425" y="913" on="0"/>
        <pt x="1243" y="1133" on="0"/>
        <pt x="977" y="1260" on="0"/>
        <pt x="809" y="1260" on="1"/>
        <pt x="643" y="1260" on="0"/>
        <pt x="385" y="1133" on="0"/>
        <pt x="209" y="913" on="0"/>
        <pt x="117" y="618" on="0"/>
        <pt x="117" y="449" on="1"/>
        <pt x="117" y="221" on="0"/>
        <pt x="229" y="-111" on="0"/>
        <pt x="414" y="-326" on="0"/>
        <pt x="649" y="-428" on="0"/>
        <pt x="772" y="-428" on="1"/>
        <pt x="831" y="-428" on="0"/>
        <pt x="958" y="-399" on="0"/>
        <pt x="1063" y="-332" on="0"/>
        <pt x="1128" y="-219" on="0"/>
        <pt x="1128" y="-135" on="1"/>
        <pt x="1194" y="-135" on="1"/>
        <pt x="1194" y="-225" on="0"/>
        <pt x="1124" y="-358" on="0"/>
        <pt x="1008" y="-444" on="0"/>
        <pt x="854" y="-487" on="0"/>
      </contour>
      <contour>
        <pt x="809" y="799" on="1"/>
        <pt x="614" y="799" on="0"/>
        <pt x="614" y="412" on="1"/>
        <pt x="614" y="219" on="0"/>
        <pt x="711" y="20" on="0"/>
        <pt x="809" y="20" on="1"/>
        <pt x="905" y="20" on="0"/>
        <pt x="1004" y="217" on="0"/>
        <pt x="1004" y="408" on="1"/>
        <pt x="1004" y="600" on="0"/>
        <pt x="905" y="799" on="0"/>
      </contour>
    </TTGlyph>
    <TTGlyph name="atilde" xMin="51" yMin="-41" xMax="991" yMax="1137">
      <component glyphName="a" x="0" y="0" flags="0x204"/>
      <component glyphName="tilde" x="172" y="0" flags="0x4"/>
    </TTGlyph>
    <TTGlyph name="b" xMin="0" yMin="-41" xMax="778" yMax="1720">
      <contour>
        <pt x="451" y="793" on="1"/>
        <pt x="360" y="793" on="0"/>
        <pt x="256" y="604" on="0"/>
        <pt x="256" y="412" on="1"/>
        <pt x="256" y="219" on="0"/>
        <pt x="352" y="20" on="0"/>
        <pt x="451" y="20" on="1"/>
        <pt x="547" y="20" on="0"/>
        <pt x="645" y="217" on="0"/>
        <pt x="645" y="408" on="1"/>
        <pt x="645" y="793" on="0"/>
      </contour>
      <contour>
        <pt x="434" y="1055" on="1"/>
        <pt x="502" y="1163" on="0"/>
        <pt x="563" y="1362" on="0"/>
        <pt x="563" y="1456" on="1"/>
        <pt x="563" y="1542" on="0"/>
        <pt x="508" y="1655" on="0"/>
        <pt x="449" y="1655" on="1"/>
        <pt x="393" y="1655" on="0"/>
        <pt x="322" y="1567" on="0"/>
        <pt x="283" y="1425" on="0"/>
        <pt x="264" y="1247" on="0"/>
        <pt x="260" y="1155" on="1"/>
        <pt x="260" y="1133" on="0"/>
        <pt x="258" y="1077" on="0"/>
        <pt x="256" y="1004" on="0"/>
        <pt x="256" y="903" on="0"/>
        <pt x="256" y="836" on="1"/>
        <pt x="311" y="889" on="0"/>
        <pt x="399" y="1001" on="0"/>
      </contour>
      <contour>
        <pt x="629" y="1464" on="1"/>
        <pt x="629" y="1366" on="0"/>
        <pt x="567" y="1174" on="0"/>
        <pt x="463" y="995" on="0"/>
        <pt x="328" y="836" on="0"/>
        <pt x="256" y="770" on="1"/>
        <pt x="256" y="727" on="1"/>
        <pt x="276" y="727" on="1"/>
        <pt x="309" y="780" on="0"/>
        <pt x="420" y="854" on="0"/>
        <pt x="496" y="854" on="1"/>
        <pt x="575" y="854" on="0"/>
        <pt x="684" y="778" on="0"/>
        <pt x="750" y="657" on="0"/>
        <pt x="778" y="502" on="0"/>
        <pt x="778" y="422" on="1"/>
        <pt x="778" y="207" on="0"/>
        <pt x="604" y="-41" on="0"/>
        <pt x="449" y="-41" on="1"/>
        <pt x="377" y="-41" on="0"/>
        <pt x="242" y="25" on="0"/>
        <pt x="195" y="102" on="1"/>
        <pt x="154" y="172" on="0"/>
        <pt x="123" y="373" on="0"/>
        <pt x="123" y="494" on="1"/>
        <pt x="123" y="651" on="1"/>
        <pt x="102" y="629" on="0"/>
        <pt x="59" y="598" on="0"/>
        <pt x="41" y="588" on="1"/>
        <pt x="18" y="575" on="0"/>
        <pt x="0" y="565" on="1"/>
        <pt x="0" y="627" on="1"/>
        <pt x="33" y="643" on="0"/>
        <pt x="104" y="694" on="0"/>
        <pt x="123" y="715" on="1"/>
        <pt x="123" y="782" on="0"/>
        <pt x="123" y="877" on="0"/>
        <pt x="125" y="958" on="0"/>
        <pt x="127" y="1042" on="0"/>
        <pt x="129" y="1102" on="1"/>
        <pt x="133" y="1210" on="0"/>
        <pt x="164" y="1438" on="0"/>
        <pt x="203" y="1530" on="1"/>
        <pt x="233" y="1606" on="0"/>
        <pt x="352" y="1720" on="0"/>
        <pt x="438" y="1720" on="1"/>
        <pt x="530" y="1720" on="0"/>
        <pt x="629" y="1581" on="0"/>
      </contour>
    </TTGlyph>
    <TTGlyph name="backslash" xMin="158" yMin="0" xMax="866" yMax="1679">
      <contour>
        <pt x="866" y="0" on="1"/>
        <pt x="793" y="0" on="1"/>
        <pt x="158" y="1679" on="1"/>
        <pt x="231" y="1679" on="1"/>
      </contour>
    </TTGlyph>
    <TTGlyph name="bar" xMin="479" yMin="0" xMax="545" yMax="1679">
      <contour>
        <pt x="479" y="1679" on="1"/>
        <pt x="545" y="1679" on="1"/>
        <pt x="545" y="0" on="1"/>
        <pt x="479" y="0" on="1"/>
      </contour>
    </TTGlyph>
</ttFont>
